M48
; DRILL file {KiCad (5.1.5)-3} date 10/17/20 20:23:17
; FORMAT={-:-/ absolute / inch / decimal}
; #@! TF.CreationDate,2020-10-17T20:23:17+02:00
; #@! TF.GenerationSoftware,Kicad,Pcbnew,(5.1.5)-3
; #@! TF.FileFunction,Plated,1,2,PTH
FMAT,2
INCH
T1C0.0157
T2C0.0197
T3C0.0374
T4C0.0394
T5C0.1260
%
G90
G05
T1
X2.4Y-3.075
X3.0Y-2.9
X3.05Y-3.3
X3.1875Y-2.575
X3.2375Y-2.625
X3.5375Y-2.7375
X3.5965Y-2.6247
X3.5965Y-2.7075
X3.6125Y-2.55
X3.625Y-2.7625
X3.6659Y-2.6976
X3.725Y-2.7625
X3.75Y-2.725
T2
X2.2055Y-3.6
X2.2332Y-3.5332
X2.2332Y-3.6668
X2.3Y-3.5055
X2.3Y-3.6945
X2.3668Y-3.5332
X2.3668Y-3.6668
X2.3945Y-3.6
X3.7305Y-2.35
X3.7582Y-2.2832
X3.7582Y-2.4168
X3.825Y-2.2555
X3.825Y-2.4445
X3.8918Y-2.2832
X3.8918Y-2.4168
X3.9195Y-2.35
T3
X2.55Y-2.9375
X2.55Y-3.0359
X2.55Y-3.1344
X2.55Y-3.2328
X2.55Y-2.375
X2.55Y-2.4734
X2.55Y-2.5719
X3.575Y-2.936
X3.575Y-3.0344
X3.575Y-3.1329
X3.575Y-3.2313
X3.575Y-3.3297
X3.575Y-3.4281
X3.575Y-3.5266
X3.575Y-3.625
T4
X3.0Y-2.3
X3.1Y-2.3
X3.2Y-2.3
X3.3Y-2.3
X3.4Y-2.3
X3.5Y-2.3
T5
X2.3Y-3.6
X3.825Y-2.35
T0
M30
