G04 #@! TF.GenerationSoftware,KiCad,Pcbnew,(5.1.5)-3*
G04 #@! TF.CreationDate,2020-10-17T20:23:14+02:00*
G04 #@! TF.ProjectId,KnokooPedalCtrl,4b6e6f6b-6f6f-4506-9564-616c4374726c,v0.1*
G04 #@! TF.SameCoordinates,Original*
G04 #@! TF.FileFunction,Copper,L1,Top*
G04 #@! TF.FilePolarity,Positive*
%FSLAX46Y46*%
G04 Gerber Fmt 4.6, Leading zero omitted, Abs format (unit mm)*
G04 Created by KiCad (PCBNEW (5.1.5)-3) date 2020-10-17 20:23:14*
%MOMM*%
%LPD*%
G04 APERTURE LIST*
%ADD10O,1.950000X1.700000*%
%ADD11C,0.100000*%
%ADD12O,1.700000X1.700000*%
%ADD13R,1.700000X1.700000*%
%ADD14C,0.800000*%
%ADD15C,6.400000*%
%ADD16R,1.200000X0.900000*%
%ADD17C,0.500000*%
%ADD18C,0.250000*%
%ADD19C,0.254000*%
G04 APERTURE END LIST*
D10*
X64770000Y-82112500D03*
X64770000Y-79612500D03*
X64770000Y-77112500D03*
G04 #@! TA.AperFunction,ComponentPad*
D11*
G36*
X65519504Y-73763704D02*
G01*
X65543773Y-73767304D01*
X65567571Y-73773265D01*
X65590671Y-73781530D01*
X65612849Y-73792020D01*
X65633893Y-73804633D01*
X65653598Y-73819247D01*
X65671777Y-73835723D01*
X65688253Y-73853902D01*
X65702867Y-73873607D01*
X65715480Y-73894651D01*
X65725970Y-73916829D01*
X65734235Y-73939929D01*
X65740196Y-73963727D01*
X65743796Y-73987996D01*
X65745000Y-74012500D01*
X65745000Y-75212500D01*
X65743796Y-75237004D01*
X65740196Y-75261273D01*
X65734235Y-75285071D01*
X65725970Y-75308171D01*
X65715480Y-75330349D01*
X65702867Y-75351393D01*
X65688253Y-75371098D01*
X65671777Y-75389277D01*
X65653598Y-75405753D01*
X65633893Y-75420367D01*
X65612849Y-75432980D01*
X65590671Y-75443470D01*
X65567571Y-75451735D01*
X65543773Y-75457696D01*
X65519504Y-75461296D01*
X65495000Y-75462500D01*
X64045000Y-75462500D01*
X64020496Y-75461296D01*
X63996227Y-75457696D01*
X63972429Y-75451735D01*
X63949329Y-75443470D01*
X63927151Y-75432980D01*
X63906107Y-75420367D01*
X63886402Y-75405753D01*
X63868223Y-75389277D01*
X63851747Y-75371098D01*
X63837133Y-75351393D01*
X63824520Y-75330349D01*
X63814030Y-75308171D01*
X63805765Y-75285071D01*
X63799804Y-75261273D01*
X63796204Y-75237004D01*
X63795000Y-75212500D01*
X63795000Y-74012500D01*
X63796204Y-73987996D01*
X63799804Y-73963727D01*
X63805765Y-73939929D01*
X63814030Y-73916829D01*
X63824520Y-73894651D01*
X63837133Y-73873607D01*
X63851747Y-73853902D01*
X63868223Y-73835723D01*
X63886402Y-73819247D01*
X63906107Y-73804633D01*
X63927151Y-73792020D01*
X63949329Y-73781530D01*
X63972429Y-73773265D01*
X63996227Y-73767304D01*
X64020496Y-73763704D01*
X64045000Y-73762500D01*
X65495000Y-73762500D01*
X65519504Y-73763704D01*
G37*
G04 #@! TD.AperFunction*
G04 #@! TA.AperFunction,SMDPad,CuDef*
G36*
X90309703Y-63835722D02*
G01*
X90324264Y-63837882D01*
X90338543Y-63841459D01*
X90352403Y-63846418D01*
X90365710Y-63852712D01*
X90378336Y-63860280D01*
X90390159Y-63869048D01*
X90401066Y-63878934D01*
X90410952Y-63889841D01*
X90419720Y-63901664D01*
X90427288Y-63914290D01*
X90433582Y-63927597D01*
X90438541Y-63941457D01*
X90442118Y-63955736D01*
X90444278Y-63970297D01*
X90445000Y-63985000D01*
X90445000Y-64285000D01*
X90444278Y-64299703D01*
X90442118Y-64314264D01*
X90438541Y-64328543D01*
X90433582Y-64342403D01*
X90427288Y-64355710D01*
X90419720Y-64368336D01*
X90410952Y-64380159D01*
X90401066Y-64391066D01*
X90390159Y-64400952D01*
X90378336Y-64409720D01*
X90365710Y-64417288D01*
X90352403Y-64423582D01*
X90338543Y-64428541D01*
X90324264Y-64432118D01*
X90309703Y-64434278D01*
X90295000Y-64435000D01*
X88645000Y-64435000D01*
X88630297Y-64434278D01*
X88615736Y-64432118D01*
X88601457Y-64428541D01*
X88587597Y-64423582D01*
X88574290Y-64417288D01*
X88561664Y-64409720D01*
X88549841Y-64400952D01*
X88538934Y-64391066D01*
X88529048Y-64380159D01*
X88520280Y-64368336D01*
X88512712Y-64355710D01*
X88506418Y-64342403D01*
X88501459Y-64328543D01*
X88497882Y-64314264D01*
X88495722Y-64299703D01*
X88495000Y-64285000D01*
X88495000Y-63985000D01*
X88495722Y-63970297D01*
X88497882Y-63955736D01*
X88501459Y-63941457D01*
X88506418Y-63927597D01*
X88512712Y-63914290D01*
X88520280Y-63901664D01*
X88529048Y-63889841D01*
X88538934Y-63878934D01*
X88549841Y-63869048D01*
X88561664Y-63860280D01*
X88574290Y-63852712D01*
X88587597Y-63846418D01*
X88601457Y-63841459D01*
X88615736Y-63837882D01*
X88630297Y-63835722D01*
X88645000Y-63835000D01*
X90295000Y-63835000D01*
X90309703Y-63835722D01*
G37*
G04 #@! TD.AperFunction*
G04 #@! TA.AperFunction,SMDPad,CuDef*
G36*
X90309703Y-65105722D02*
G01*
X90324264Y-65107882D01*
X90338543Y-65111459D01*
X90352403Y-65116418D01*
X90365710Y-65122712D01*
X90378336Y-65130280D01*
X90390159Y-65139048D01*
X90401066Y-65148934D01*
X90410952Y-65159841D01*
X90419720Y-65171664D01*
X90427288Y-65184290D01*
X90433582Y-65197597D01*
X90438541Y-65211457D01*
X90442118Y-65225736D01*
X90444278Y-65240297D01*
X90445000Y-65255000D01*
X90445000Y-65555000D01*
X90444278Y-65569703D01*
X90442118Y-65584264D01*
X90438541Y-65598543D01*
X90433582Y-65612403D01*
X90427288Y-65625710D01*
X90419720Y-65638336D01*
X90410952Y-65650159D01*
X90401066Y-65661066D01*
X90390159Y-65670952D01*
X90378336Y-65679720D01*
X90365710Y-65687288D01*
X90352403Y-65693582D01*
X90338543Y-65698541D01*
X90324264Y-65702118D01*
X90309703Y-65704278D01*
X90295000Y-65705000D01*
X88645000Y-65705000D01*
X88630297Y-65704278D01*
X88615736Y-65702118D01*
X88601457Y-65698541D01*
X88587597Y-65693582D01*
X88574290Y-65687288D01*
X88561664Y-65679720D01*
X88549841Y-65670952D01*
X88538934Y-65661066D01*
X88529048Y-65650159D01*
X88520280Y-65638336D01*
X88512712Y-65625710D01*
X88506418Y-65612403D01*
X88501459Y-65598543D01*
X88497882Y-65584264D01*
X88495722Y-65569703D01*
X88495000Y-65555000D01*
X88495000Y-65255000D01*
X88495722Y-65240297D01*
X88497882Y-65225736D01*
X88501459Y-65211457D01*
X88506418Y-65197597D01*
X88512712Y-65184290D01*
X88520280Y-65171664D01*
X88529048Y-65159841D01*
X88538934Y-65148934D01*
X88549841Y-65139048D01*
X88561664Y-65130280D01*
X88574290Y-65122712D01*
X88587597Y-65116418D01*
X88601457Y-65111459D01*
X88615736Y-65107882D01*
X88630297Y-65105722D01*
X88645000Y-65105000D01*
X90295000Y-65105000D01*
X90309703Y-65105722D01*
G37*
G04 #@! TD.AperFunction*
G04 #@! TA.AperFunction,SMDPad,CuDef*
G36*
X90309703Y-66375722D02*
G01*
X90324264Y-66377882D01*
X90338543Y-66381459D01*
X90352403Y-66386418D01*
X90365710Y-66392712D01*
X90378336Y-66400280D01*
X90390159Y-66409048D01*
X90401066Y-66418934D01*
X90410952Y-66429841D01*
X90419720Y-66441664D01*
X90427288Y-66454290D01*
X90433582Y-66467597D01*
X90438541Y-66481457D01*
X90442118Y-66495736D01*
X90444278Y-66510297D01*
X90445000Y-66525000D01*
X90445000Y-66825000D01*
X90444278Y-66839703D01*
X90442118Y-66854264D01*
X90438541Y-66868543D01*
X90433582Y-66882403D01*
X90427288Y-66895710D01*
X90419720Y-66908336D01*
X90410952Y-66920159D01*
X90401066Y-66931066D01*
X90390159Y-66940952D01*
X90378336Y-66949720D01*
X90365710Y-66957288D01*
X90352403Y-66963582D01*
X90338543Y-66968541D01*
X90324264Y-66972118D01*
X90309703Y-66974278D01*
X90295000Y-66975000D01*
X88645000Y-66975000D01*
X88630297Y-66974278D01*
X88615736Y-66972118D01*
X88601457Y-66968541D01*
X88587597Y-66963582D01*
X88574290Y-66957288D01*
X88561664Y-66949720D01*
X88549841Y-66940952D01*
X88538934Y-66931066D01*
X88529048Y-66920159D01*
X88520280Y-66908336D01*
X88512712Y-66895710D01*
X88506418Y-66882403D01*
X88501459Y-66868543D01*
X88497882Y-66854264D01*
X88495722Y-66839703D01*
X88495000Y-66825000D01*
X88495000Y-66525000D01*
X88495722Y-66510297D01*
X88497882Y-66495736D01*
X88501459Y-66481457D01*
X88506418Y-66467597D01*
X88512712Y-66454290D01*
X88520280Y-66441664D01*
X88529048Y-66429841D01*
X88538934Y-66418934D01*
X88549841Y-66409048D01*
X88561664Y-66400280D01*
X88574290Y-66392712D01*
X88587597Y-66386418D01*
X88601457Y-66381459D01*
X88615736Y-66377882D01*
X88630297Y-66375722D01*
X88645000Y-66375000D01*
X90295000Y-66375000D01*
X90309703Y-66375722D01*
G37*
G04 #@! TD.AperFunction*
G04 #@! TA.AperFunction,SMDPad,CuDef*
G36*
X90309703Y-67645722D02*
G01*
X90324264Y-67647882D01*
X90338543Y-67651459D01*
X90352403Y-67656418D01*
X90365710Y-67662712D01*
X90378336Y-67670280D01*
X90390159Y-67679048D01*
X90401066Y-67688934D01*
X90410952Y-67699841D01*
X90419720Y-67711664D01*
X90427288Y-67724290D01*
X90433582Y-67737597D01*
X90438541Y-67751457D01*
X90442118Y-67765736D01*
X90444278Y-67780297D01*
X90445000Y-67795000D01*
X90445000Y-68095000D01*
X90444278Y-68109703D01*
X90442118Y-68124264D01*
X90438541Y-68138543D01*
X90433582Y-68152403D01*
X90427288Y-68165710D01*
X90419720Y-68178336D01*
X90410952Y-68190159D01*
X90401066Y-68201066D01*
X90390159Y-68210952D01*
X90378336Y-68219720D01*
X90365710Y-68227288D01*
X90352403Y-68233582D01*
X90338543Y-68238541D01*
X90324264Y-68242118D01*
X90309703Y-68244278D01*
X90295000Y-68245000D01*
X88645000Y-68245000D01*
X88630297Y-68244278D01*
X88615736Y-68242118D01*
X88601457Y-68238541D01*
X88587597Y-68233582D01*
X88574290Y-68227288D01*
X88561664Y-68219720D01*
X88549841Y-68210952D01*
X88538934Y-68201066D01*
X88529048Y-68190159D01*
X88520280Y-68178336D01*
X88512712Y-68165710D01*
X88506418Y-68152403D01*
X88501459Y-68138543D01*
X88497882Y-68124264D01*
X88495722Y-68109703D01*
X88495000Y-68095000D01*
X88495000Y-67795000D01*
X88495722Y-67780297D01*
X88497882Y-67765736D01*
X88501459Y-67751457D01*
X88506418Y-67737597D01*
X88512712Y-67724290D01*
X88520280Y-67711664D01*
X88529048Y-67699841D01*
X88538934Y-67688934D01*
X88549841Y-67679048D01*
X88561664Y-67670280D01*
X88574290Y-67662712D01*
X88587597Y-67656418D01*
X88601457Y-67651459D01*
X88615736Y-67647882D01*
X88630297Y-67645722D01*
X88645000Y-67645000D01*
X90295000Y-67645000D01*
X90309703Y-67645722D01*
G37*
G04 #@! TD.AperFunction*
G04 #@! TA.AperFunction,SMDPad,CuDef*
G36*
X85359703Y-67645722D02*
G01*
X85374264Y-67647882D01*
X85388543Y-67651459D01*
X85402403Y-67656418D01*
X85415710Y-67662712D01*
X85428336Y-67670280D01*
X85440159Y-67679048D01*
X85451066Y-67688934D01*
X85460952Y-67699841D01*
X85469720Y-67711664D01*
X85477288Y-67724290D01*
X85483582Y-67737597D01*
X85488541Y-67751457D01*
X85492118Y-67765736D01*
X85494278Y-67780297D01*
X85495000Y-67795000D01*
X85495000Y-68095000D01*
X85494278Y-68109703D01*
X85492118Y-68124264D01*
X85488541Y-68138543D01*
X85483582Y-68152403D01*
X85477288Y-68165710D01*
X85469720Y-68178336D01*
X85460952Y-68190159D01*
X85451066Y-68201066D01*
X85440159Y-68210952D01*
X85428336Y-68219720D01*
X85415710Y-68227288D01*
X85402403Y-68233582D01*
X85388543Y-68238541D01*
X85374264Y-68242118D01*
X85359703Y-68244278D01*
X85345000Y-68245000D01*
X83695000Y-68245000D01*
X83680297Y-68244278D01*
X83665736Y-68242118D01*
X83651457Y-68238541D01*
X83637597Y-68233582D01*
X83624290Y-68227288D01*
X83611664Y-68219720D01*
X83599841Y-68210952D01*
X83588934Y-68201066D01*
X83579048Y-68190159D01*
X83570280Y-68178336D01*
X83562712Y-68165710D01*
X83556418Y-68152403D01*
X83551459Y-68138543D01*
X83547882Y-68124264D01*
X83545722Y-68109703D01*
X83545000Y-68095000D01*
X83545000Y-67795000D01*
X83545722Y-67780297D01*
X83547882Y-67765736D01*
X83551459Y-67751457D01*
X83556418Y-67737597D01*
X83562712Y-67724290D01*
X83570280Y-67711664D01*
X83579048Y-67699841D01*
X83588934Y-67688934D01*
X83599841Y-67679048D01*
X83611664Y-67670280D01*
X83624290Y-67662712D01*
X83637597Y-67656418D01*
X83651457Y-67651459D01*
X83665736Y-67647882D01*
X83680297Y-67645722D01*
X83695000Y-67645000D01*
X85345000Y-67645000D01*
X85359703Y-67645722D01*
G37*
G04 #@! TD.AperFunction*
G04 #@! TA.AperFunction,SMDPad,CuDef*
G36*
X85359703Y-66375722D02*
G01*
X85374264Y-66377882D01*
X85388543Y-66381459D01*
X85402403Y-66386418D01*
X85415710Y-66392712D01*
X85428336Y-66400280D01*
X85440159Y-66409048D01*
X85451066Y-66418934D01*
X85460952Y-66429841D01*
X85469720Y-66441664D01*
X85477288Y-66454290D01*
X85483582Y-66467597D01*
X85488541Y-66481457D01*
X85492118Y-66495736D01*
X85494278Y-66510297D01*
X85495000Y-66525000D01*
X85495000Y-66825000D01*
X85494278Y-66839703D01*
X85492118Y-66854264D01*
X85488541Y-66868543D01*
X85483582Y-66882403D01*
X85477288Y-66895710D01*
X85469720Y-66908336D01*
X85460952Y-66920159D01*
X85451066Y-66931066D01*
X85440159Y-66940952D01*
X85428336Y-66949720D01*
X85415710Y-66957288D01*
X85402403Y-66963582D01*
X85388543Y-66968541D01*
X85374264Y-66972118D01*
X85359703Y-66974278D01*
X85345000Y-66975000D01*
X83695000Y-66975000D01*
X83680297Y-66974278D01*
X83665736Y-66972118D01*
X83651457Y-66968541D01*
X83637597Y-66963582D01*
X83624290Y-66957288D01*
X83611664Y-66949720D01*
X83599841Y-66940952D01*
X83588934Y-66931066D01*
X83579048Y-66920159D01*
X83570280Y-66908336D01*
X83562712Y-66895710D01*
X83556418Y-66882403D01*
X83551459Y-66868543D01*
X83547882Y-66854264D01*
X83545722Y-66839703D01*
X83545000Y-66825000D01*
X83545000Y-66525000D01*
X83545722Y-66510297D01*
X83547882Y-66495736D01*
X83551459Y-66481457D01*
X83556418Y-66467597D01*
X83562712Y-66454290D01*
X83570280Y-66441664D01*
X83579048Y-66429841D01*
X83588934Y-66418934D01*
X83599841Y-66409048D01*
X83611664Y-66400280D01*
X83624290Y-66392712D01*
X83637597Y-66386418D01*
X83651457Y-66381459D01*
X83665736Y-66377882D01*
X83680297Y-66375722D01*
X83695000Y-66375000D01*
X85345000Y-66375000D01*
X85359703Y-66375722D01*
G37*
G04 #@! TD.AperFunction*
G04 #@! TA.AperFunction,SMDPad,CuDef*
G36*
X85359703Y-65105722D02*
G01*
X85374264Y-65107882D01*
X85388543Y-65111459D01*
X85402403Y-65116418D01*
X85415710Y-65122712D01*
X85428336Y-65130280D01*
X85440159Y-65139048D01*
X85451066Y-65148934D01*
X85460952Y-65159841D01*
X85469720Y-65171664D01*
X85477288Y-65184290D01*
X85483582Y-65197597D01*
X85488541Y-65211457D01*
X85492118Y-65225736D01*
X85494278Y-65240297D01*
X85495000Y-65255000D01*
X85495000Y-65555000D01*
X85494278Y-65569703D01*
X85492118Y-65584264D01*
X85488541Y-65598543D01*
X85483582Y-65612403D01*
X85477288Y-65625710D01*
X85469720Y-65638336D01*
X85460952Y-65650159D01*
X85451066Y-65661066D01*
X85440159Y-65670952D01*
X85428336Y-65679720D01*
X85415710Y-65687288D01*
X85402403Y-65693582D01*
X85388543Y-65698541D01*
X85374264Y-65702118D01*
X85359703Y-65704278D01*
X85345000Y-65705000D01*
X83695000Y-65705000D01*
X83680297Y-65704278D01*
X83665736Y-65702118D01*
X83651457Y-65698541D01*
X83637597Y-65693582D01*
X83624290Y-65687288D01*
X83611664Y-65679720D01*
X83599841Y-65670952D01*
X83588934Y-65661066D01*
X83579048Y-65650159D01*
X83570280Y-65638336D01*
X83562712Y-65625710D01*
X83556418Y-65612403D01*
X83551459Y-65598543D01*
X83547882Y-65584264D01*
X83545722Y-65569703D01*
X83545000Y-65555000D01*
X83545000Y-65255000D01*
X83545722Y-65240297D01*
X83547882Y-65225736D01*
X83551459Y-65211457D01*
X83556418Y-65197597D01*
X83562712Y-65184290D01*
X83570280Y-65171664D01*
X83579048Y-65159841D01*
X83588934Y-65148934D01*
X83599841Y-65139048D01*
X83611664Y-65130280D01*
X83624290Y-65122712D01*
X83637597Y-65116418D01*
X83651457Y-65111459D01*
X83665736Y-65107882D01*
X83680297Y-65105722D01*
X83695000Y-65105000D01*
X85345000Y-65105000D01*
X85359703Y-65105722D01*
G37*
G04 #@! TD.AperFunction*
G04 #@! TA.AperFunction,SMDPad,CuDef*
G36*
X85359703Y-63835722D02*
G01*
X85374264Y-63837882D01*
X85388543Y-63841459D01*
X85402403Y-63846418D01*
X85415710Y-63852712D01*
X85428336Y-63860280D01*
X85440159Y-63869048D01*
X85451066Y-63878934D01*
X85460952Y-63889841D01*
X85469720Y-63901664D01*
X85477288Y-63914290D01*
X85483582Y-63927597D01*
X85488541Y-63941457D01*
X85492118Y-63955736D01*
X85494278Y-63970297D01*
X85495000Y-63985000D01*
X85495000Y-64285000D01*
X85494278Y-64299703D01*
X85492118Y-64314264D01*
X85488541Y-64328543D01*
X85483582Y-64342403D01*
X85477288Y-64355710D01*
X85469720Y-64368336D01*
X85460952Y-64380159D01*
X85451066Y-64391066D01*
X85440159Y-64400952D01*
X85428336Y-64409720D01*
X85415710Y-64417288D01*
X85402403Y-64423582D01*
X85388543Y-64428541D01*
X85374264Y-64432118D01*
X85359703Y-64434278D01*
X85345000Y-64435000D01*
X83695000Y-64435000D01*
X83680297Y-64434278D01*
X83665736Y-64432118D01*
X83651457Y-64428541D01*
X83637597Y-64423582D01*
X83624290Y-64417288D01*
X83611664Y-64409720D01*
X83599841Y-64400952D01*
X83588934Y-64391066D01*
X83579048Y-64380159D01*
X83570280Y-64368336D01*
X83562712Y-64355710D01*
X83556418Y-64342403D01*
X83551459Y-64328543D01*
X83547882Y-64314264D01*
X83545722Y-64299703D01*
X83545000Y-64285000D01*
X83545000Y-63985000D01*
X83545722Y-63970297D01*
X83547882Y-63955736D01*
X83551459Y-63941457D01*
X83556418Y-63927597D01*
X83562712Y-63914290D01*
X83570280Y-63901664D01*
X83579048Y-63889841D01*
X83588934Y-63878934D01*
X83599841Y-63869048D01*
X83611664Y-63860280D01*
X83624290Y-63852712D01*
X83637597Y-63846418D01*
X83651457Y-63841459D01*
X83665736Y-63837882D01*
X83680297Y-63835722D01*
X83695000Y-63835000D01*
X85345000Y-63835000D01*
X85359703Y-63835722D01*
G37*
G04 #@! TD.AperFunction*
G04 #@! TA.AperFunction,SMDPad,CuDef*
G36*
X75207691Y-87041053D02*
G01*
X75228926Y-87044203D01*
X75249750Y-87049419D01*
X75269962Y-87056651D01*
X75289368Y-87065830D01*
X75307781Y-87076866D01*
X75325024Y-87089654D01*
X75340930Y-87104070D01*
X75355346Y-87119976D01*
X75368134Y-87137219D01*
X75379170Y-87155632D01*
X75388349Y-87175038D01*
X75395581Y-87195250D01*
X75400797Y-87216074D01*
X75403947Y-87237309D01*
X75405000Y-87258750D01*
X75405000Y-87696250D01*
X75403947Y-87717691D01*
X75400797Y-87738926D01*
X75395581Y-87759750D01*
X75388349Y-87779962D01*
X75379170Y-87799368D01*
X75368134Y-87817781D01*
X75355346Y-87835024D01*
X75340930Y-87850930D01*
X75325024Y-87865346D01*
X75307781Y-87878134D01*
X75289368Y-87889170D01*
X75269962Y-87898349D01*
X75249750Y-87905581D01*
X75228926Y-87910797D01*
X75207691Y-87913947D01*
X75186250Y-87915000D01*
X74673750Y-87915000D01*
X74652309Y-87913947D01*
X74631074Y-87910797D01*
X74610250Y-87905581D01*
X74590038Y-87898349D01*
X74570632Y-87889170D01*
X74552219Y-87878134D01*
X74534976Y-87865346D01*
X74519070Y-87850930D01*
X74504654Y-87835024D01*
X74491866Y-87817781D01*
X74480830Y-87799368D01*
X74471651Y-87779962D01*
X74464419Y-87759750D01*
X74459203Y-87738926D01*
X74456053Y-87717691D01*
X74455000Y-87696250D01*
X74455000Y-87258750D01*
X74456053Y-87237309D01*
X74459203Y-87216074D01*
X74464419Y-87195250D01*
X74471651Y-87175038D01*
X74480830Y-87155632D01*
X74491866Y-87137219D01*
X74504654Y-87119976D01*
X74519070Y-87104070D01*
X74534976Y-87089654D01*
X74552219Y-87076866D01*
X74570632Y-87065830D01*
X74590038Y-87056651D01*
X74610250Y-87049419D01*
X74631074Y-87044203D01*
X74652309Y-87041053D01*
X74673750Y-87040000D01*
X75186250Y-87040000D01*
X75207691Y-87041053D01*
G37*
G04 #@! TD.AperFunction*
G04 #@! TA.AperFunction,SMDPad,CuDef*
G36*
X75207691Y-88616053D02*
G01*
X75228926Y-88619203D01*
X75249750Y-88624419D01*
X75269962Y-88631651D01*
X75289368Y-88640830D01*
X75307781Y-88651866D01*
X75325024Y-88664654D01*
X75340930Y-88679070D01*
X75355346Y-88694976D01*
X75368134Y-88712219D01*
X75379170Y-88730632D01*
X75388349Y-88750038D01*
X75395581Y-88770250D01*
X75400797Y-88791074D01*
X75403947Y-88812309D01*
X75405000Y-88833750D01*
X75405000Y-89271250D01*
X75403947Y-89292691D01*
X75400797Y-89313926D01*
X75395581Y-89334750D01*
X75388349Y-89354962D01*
X75379170Y-89374368D01*
X75368134Y-89392781D01*
X75355346Y-89410024D01*
X75340930Y-89425930D01*
X75325024Y-89440346D01*
X75307781Y-89453134D01*
X75289368Y-89464170D01*
X75269962Y-89473349D01*
X75249750Y-89480581D01*
X75228926Y-89485797D01*
X75207691Y-89488947D01*
X75186250Y-89490000D01*
X74673750Y-89490000D01*
X74652309Y-89488947D01*
X74631074Y-89485797D01*
X74610250Y-89480581D01*
X74590038Y-89473349D01*
X74570632Y-89464170D01*
X74552219Y-89453134D01*
X74534976Y-89440346D01*
X74519070Y-89425930D01*
X74504654Y-89410024D01*
X74491866Y-89392781D01*
X74480830Y-89374368D01*
X74471651Y-89354962D01*
X74464419Y-89334750D01*
X74459203Y-89313926D01*
X74456053Y-89292691D01*
X74455000Y-89271250D01*
X74455000Y-88833750D01*
X74456053Y-88812309D01*
X74459203Y-88791074D01*
X74464419Y-88770250D01*
X74471651Y-88750038D01*
X74480830Y-88730632D01*
X74491866Y-88712219D01*
X74504654Y-88694976D01*
X74519070Y-88679070D01*
X74534976Y-88664654D01*
X74552219Y-88651866D01*
X74570632Y-88640830D01*
X74590038Y-88631651D01*
X74610250Y-88624419D01*
X74631074Y-88619203D01*
X74652309Y-88616053D01*
X74673750Y-88615000D01*
X75186250Y-88615000D01*
X75207691Y-88616053D01*
G37*
G04 #@! TD.AperFunction*
G04 #@! TA.AperFunction,SMDPad,CuDef*
G36*
X77747691Y-88616053D02*
G01*
X77768926Y-88619203D01*
X77789750Y-88624419D01*
X77809962Y-88631651D01*
X77829368Y-88640830D01*
X77847781Y-88651866D01*
X77865024Y-88664654D01*
X77880930Y-88679070D01*
X77895346Y-88694976D01*
X77908134Y-88712219D01*
X77919170Y-88730632D01*
X77928349Y-88750038D01*
X77935581Y-88770250D01*
X77940797Y-88791074D01*
X77943947Y-88812309D01*
X77945000Y-88833750D01*
X77945000Y-89271250D01*
X77943947Y-89292691D01*
X77940797Y-89313926D01*
X77935581Y-89334750D01*
X77928349Y-89354962D01*
X77919170Y-89374368D01*
X77908134Y-89392781D01*
X77895346Y-89410024D01*
X77880930Y-89425930D01*
X77865024Y-89440346D01*
X77847781Y-89453134D01*
X77829368Y-89464170D01*
X77809962Y-89473349D01*
X77789750Y-89480581D01*
X77768926Y-89485797D01*
X77747691Y-89488947D01*
X77726250Y-89490000D01*
X77213750Y-89490000D01*
X77192309Y-89488947D01*
X77171074Y-89485797D01*
X77150250Y-89480581D01*
X77130038Y-89473349D01*
X77110632Y-89464170D01*
X77092219Y-89453134D01*
X77074976Y-89440346D01*
X77059070Y-89425930D01*
X77044654Y-89410024D01*
X77031866Y-89392781D01*
X77020830Y-89374368D01*
X77011651Y-89354962D01*
X77004419Y-89334750D01*
X76999203Y-89313926D01*
X76996053Y-89292691D01*
X76995000Y-89271250D01*
X76995000Y-88833750D01*
X76996053Y-88812309D01*
X76999203Y-88791074D01*
X77004419Y-88770250D01*
X77011651Y-88750038D01*
X77020830Y-88730632D01*
X77031866Y-88712219D01*
X77044654Y-88694976D01*
X77059070Y-88679070D01*
X77074976Y-88664654D01*
X77092219Y-88651866D01*
X77110632Y-88640830D01*
X77130038Y-88631651D01*
X77150250Y-88624419D01*
X77171074Y-88619203D01*
X77192309Y-88616053D01*
X77213750Y-88615000D01*
X77726250Y-88615000D01*
X77747691Y-88616053D01*
G37*
G04 #@! TD.AperFunction*
G04 #@! TA.AperFunction,SMDPad,CuDef*
G36*
X77747691Y-87041053D02*
G01*
X77768926Y-87044203D01*
X77789750Y-87049419D01*
X77809962Y-87056651D01*
X77829368Y-87065830D01*
X77847781Y-87076866D01*
X77865024Y-87089654D01*
X77880930Y-87104070D01*
X77895346Y-87119976D01*
X77908134Y-87137219D01*
X77919170Y-87155632D01*
X77928349Y-87175038D01*
X77935581Y-87195250D01*
X77940797Y-87216074D01*
X77943947Y-87237309D01*
X77945000Y-87258750D01*
X77945000Y-87696250D01*
X77943947Y-87717691D01*
X77940797Y-87738926D01*
X77935581Y-87759750D01*
X77928349Y-87779962D01*
X77919170Y-87799368D01*
X77908134Y-87817781D01*
X77895346Y-87835024D01*
X77880930Y-87850930D01*
X77865024Y-87865346D01*
X77847781Y-87878134D01*
X77829368Y-87889170D01*
X77809962Y-87898349D01*
X77789750Y-87905581D01*
X77768926Y-87910797D01*
X77747691Y-87913947D01*
X77726250Y-87915000D01*
X77213750Y-87915000D01*
X77192309Y-87913947D01*
X77171074Y-87910797D01*
X77150250Y-87905581D01*
X77130038Y-87898349D01*
X77110632Y-87889170D01*
X77092219Y-87878134D01*
X77074976Y-87865346D01*
X77059070Y-87850930D01*
X77044654Y-87835024D01*
X77031866Y-87817781D01*
X77020830Y-87799368D01*
X77011651Y-87779962D01*
X77004419Y-87759750D01*
X76999203Y-87738926D01*
X76996053Y-87717691D01*
X76995000Y-87696250D01*
X76995000Y-87258750D01*
X76996053Y-87237309D01*
X76999203Y-87216074D01*
X77004419Y-87195250D01*
X77011651Y-87175038D01*
X77020830Y-87155632D01*
X77031866Y-87137219D01*
X77044654Y-87119976D01*
X77059070Y-87104070D01*
X77074976Y-87089654D01*
X77092219Y-87076866D01*
X77110632Y-87065830D01*
X77130038Y-87056651D01*
X77150250Y-87049419D01*
X77171074Y-87044203D01*
X77192309Y-87041053D01*
X77213750Y-87040000D01*
X77726250Y-87040000D01*
X77747691Y-87041053D01*
G37*
G04 #@! TD.AperFunction*
G04 #@! TA.AperFunction,SMDPad,CuDef*
G36*
X77747691Y-74011053D02*
G01*
X77768926Y-74014203D01*
X77789750Y-74019419D01*
X77809962Y-74026651D01*
X77829368Y-74035830D01*
X77847781Y-74046866D01*
X77865024Y-74059654D01*
X77880930Y-74074070D01*
X77895346Y-74089976D01*
X77908134Y-74107219D01*
X77919170Y-74125632D01*
X77928349Y-74145038D01*
X77935581Y-74165250D01*
X77940797Y-74186074D01*
X77943947Y-74207309D01*
X77945000Y-74228750D01*
X77945000Y-74666250D01*
X77943947Y-74687691D01*
X77940797Y-74708926D01*
X77935581Y-74729750D01*
X77928349Y-74749962D01*
X77919170Y-74769368D01*
X77908134Y-74787781D01*
X77895346Y-74805024D01*
X77880930Y-74820930D01*
X77865024Y-74835346D01*
X77847781Y-74848134D01*
X77829368Y-74859170D01*
X77809962Y-74868349D01*
X77789750Y-74875581D01*
X77768926Y-74880797D01*
X77747691Y-74883947D01*
X77726250Y-74885000D01*
X77213750Y-74885000D01*
X77192309Y-74883947D01*
X77171074Y-74880797D01*
X77150250Y-74875581D01*
X77130038Y-74868349D01*
X77110632Y-74859170D01*
X77092219Y-74848134D01*
X77074976Y-74835346D01*
X77059070Y-74820930D01*
X77044654Y-74805024D01*
X77031866Y-74787781D01*
X77020830Y-74769368D01*
X77011651Y-74749962D01*
X77004419Y-74729750D01*
X76999203Y-74708926D01*
X76996053Y-74687691D01*
X76995000Y-74666250D01*
X76995000Y-74228750D01*
X76996053Y-74207309D01*
X76999203Y-74186074D01*
X77004419Y-74165250D01*
X77011651Y-74145038D01*
X77020830Y-74125632D01*
X77031866Y-74107219D01*
X77044654Y-74089976D01*
X77059070Y-74074070D01*
X77074976Y-74059654D01*
X77092219Y-74046866D01*
X77110632Y-74035830D01*
X77130038Y-74026651D01*
X77150250Y-74019419D01*
X77171074Y-74014203D01*
X77192309Y-74011053D01*
X77213750Y-74010000D01*
X77726250Y-74010000D01*
X77747691Y-74011053D01*
G37*
G04 #@! TD.AperFunction*
G04 #@! TA.AperFunction,SMDPad,CuDef*
G36*
X77747691Y-72436053D02*
G01*
X77768926Y-72439203D01*
X77789750Y-72444419D01*
X77809962Y-72451651D01*
X77829368Y-72460830D01*
X77847781Y-72471866D01*
X77865024Y-72484654D01*
X77880930Y-72499070D01*
X77895346Y-72514976D01*
X77908134Y-72532219D01*
X77919170Y-72550632D01*
X77928349Y-72570038D01*
X77935581Y-72590250D01*
X77940797Y-72611074D01*
X77943947Y-72632309D01*
X77945000Y-72653750D01*
X77945000Y-73091250D01*
X77943947Y-73112691D01*
X77940797Y-73133926D01*
X77935581Y-73154750D01*
X77928349Y-73174962D01*
X77919170Y-73194368D01*
X77908134Y-73212781D01*
X77895346Y-73230024D01*
X77880930Y-73245930D01*
X77865024Y-73260346D01*
X77847781Y-73273134D01*
X77829368Y-73284170D01*
X77809962Y-73293349D01*
X77789750Y-73300581D01*
X77768926Y-73305797D01*
X77747691Y-73308947D01*
X77726250Y-73310000D01*
X77213750Y-73310000D01*
X77192309Y-73308947D01*
X77171074Y-73305797D01*
X77150250Y-73300581D01*
X77130038Y-73293349D01*
X77110632Y-73284170D01*
X77092219Y-73273134D01*
X77074976Y-73260346D01*
X77059070Y-73245930D01*
X77044654Y-73230024D01*
X77031866Y-73212781D01*
X77020830Y-73194368D01*
X77011651Y-73174962D01*
X77004419Y-73154750D01*
X76999203Y-73133926D01*
X76996053Y-73112691D01*
X76995000Y-73091250D01*
X76995000Y-72653750D01*
X76996053Y-72632309D01*
X76999203Y-72611074D01*
X77004419Y-72590250D01*
X77011651Y-72570038D01*
X77020830Y-72550632D01*
X77031866Y-72532219D01*
X77044654Y-72514976D01*
X77059070Y-72499070D01*
X77074976Y-72484654D01*
X77092219Y-72471866D01*
X77110632Y-72460830D01*
X77130038Y-72451651D01*
X77150250Y-72444419D01*
X77171074Y-72439203D01*
X77192309Y-72436053D01*
X77213750Y-72435000D01*
X77726250Y-72435000D01*
X77747691Y-72436053D01*
G37*
G04 #@! TD.AperFunction*
G04 #@! TA.AperFunction,SMDPad,CuDef*
G36*
X75207691Y-72436053D02*
G01*
X75228926Y-72439203D01*
X75249750Y-72444419D01*
X75269962Y-72451651D01*
X75289368Y-72460830D01*
X75307781Y-72471866D01*
X75325024Y-72484654D01*
X75340930Y-72499070D01*
X75355346Y-72514976D01*
X75368134Y-72532219D01*
X75379170Y-72550632D01*
X75388349Y-72570038D01*
X75395581Y-72590250D01*
X75400797Y-72611074D01*
X75403947Y-72632309D01*
X75405000Y-72653750D01*
X75405000Y-73091250D01*
X75403947Y-73112691D01*
X75400797Y-73133926D01*
X75395581Y-73154750D01*
X75388349Y-73174962D01*
X75379170Y-73194368D01*
X75368134Y-73212781D01*
X75355346Y-73230024D01*
X75340930Y-73245930D01*
X75325024Y-73260346D01*
X75307781Y-73273134D01*
X75289368Y-73284170D01*
X75269962Y-73293349D01*
X75249750Y-73300581D01*
X75228926Y-73305797D01*
X75207691Y-73308947D01*
X75186250Y-73310000D01*
X74673750Y-73310000D01*
X74652309Y-73308947D01*
X74631074Y-73305797D01*
X74610250Y-73300581D01*
X74590038Y-73293349D01*
X74570632Y-73284170D01*
X74552219Y-73273134D01*
X74534976Y-73260346D01*
X74519070Y-73245930D01*
X74504654Y-73230024D01*
X74491866Y-73212781D01*
X74480830Y-73194368D01*
X74471651Y-73174962D01*
X74464419Y-73154750D01*
X74459203Y-73133926D01*
X74456053Y-73112691D01*
X74455000Y-73091250D01*
X74455000Y-72653750D01*
X74456053Y-72632309D01*
X74459203Y-72611074D01*
X74464419Y-72590250D01*
X74471651Y-72570038D01*
X74480830Y-72550632D01*
X74491866Y-72532219D01*
X74504654Y-72514976D01*
X74519070Y-72499070D01*
X74534976Y-72484654D01*
X74552219Y-72471866D01*
X74570632Y-72460830D01*
X74590038Y-72451651D01*
X74610250Y-72444419D01*
X74631074Y-72439203D01*
X74652309Y-72436053D01*
X74673750Y-72435000D01*
X75186250Y-72435000D01*
X75207691Y-72436053D01*
G37*
G04 #@! TD.AperFunction*
G04 #@! TA.AperFunction,SMDPad,CuDef*
G36*
X75207691Y-74011053D02*
G01*
X75228926Y-74014203D01*
X75249750Y-74019419D01*
X75269962Y-74026651D01*
X75289368Y-74035830D01*
X75307781Y-74046866D01*
X75325024Y-74059654D01*
X75340930Y-74074070D01*
X75355346Y-74089976D01*
X75368134Y-74107219D01*
X75379170Y-74125632D01*
X75388349Y-74145038D01*
X75395581Y-74165250D01*
X75400797Y-74186074D01*
X75403947Y-74207309D01*
X75405000Y-74228750D01*
X75405000Y-74666250D01*
X75403947Y-74687691D01*
X75400797Y-74708926D01*
X75395581Y-74729750D01*
X75388349Y-74749962D01*
X75379170Y-74769368D01*
X75368134Y-74787781D01*
X75355346Y-74805024D01*
X75340930Y-74820930D01*
X75325024Y-74835346D01*
X75307781Y-74848134D01*
X75289368Y-74859170D01*
X75269962Y-74868349D01*
X75249750Y-74875581D01*
X75228926Y-74880797D01*
X75207691Y-74883947D01*
X75186250Y-74885000D01*
X74673750Y-74885000D01*
X74652309Y-74883947D01*
X74631074Y-74880797D01*
X74610250Y-74875581D01*
X74590038Y-74868349D01*
X74570632Y-74859170D01*
X74552219Y-74848134D01*
X74534976Y-74835346D01*
X74519070Y-74820930D01*
X74504654Y-74805024D01*
X74491866Y-74787781D01*
X74480830Y-74769368D01*
X74471651Y-74749962D01*
X74464419Y-74729750D01*
X74459203Y-74708926D01*
X74456053Y-74687691D01*
X74455000Y-74666250D01*
X74455000Y-74228750D01*
X74456053Y-74207309D01*
X74459203Y-74186074D01*
X74464419Y-74165250D01*
X74471651Y-74145038D01*
X74480830Y-74125632D01*
X74491866Y-74107219D01*
X74504654Y-74089976D01*
X74519070Y-74074070D01*
X74534976Y-74059654D01*
X74552219Y-74046866D01*
X74570632Y-74035830D01*
X74590038Y-74026651D01*
X74610250Y-74019419D01*
X74631074Y-74014203D01*
X74652309Y-74011053D01*
X74673750Y-74010000D01*
X75186250Y-74010000D01*
X75207691Y-74011053D01*
G37*
G04 #@! TD.AperFunction*
G04 #@! TA.AperFunction,SMDPad,CuDef*
G36*
X96797691Y-65451053D02*
G01*
X96818926Y-65454203D01*
X96839750Y-65459419D01*
X96859962Y-65466651D01*
X96879368Y-65475830D01*
X96897781Y-65486866D01*
X96915024Y-65499654D01*
X96930930Y-65514070D01*
X96945346Y-65529976D01*
X96958134Y-65547219D01*
X96969170Y-65565632D01*
X96978349Y-65585038D01*
X96985581Y-65605250D01*
X96990797Y-65626074D01*
X96993947Y-65647309D01*
X96995000Y-65668750D01*
X96995000Y-66106250D01*
X96993947Y-66127691D01*
X96990797Y-66148926D01*
X96985581Y-66169750D01*
X96978349Y-66189962D01*
X96969170Y-66209368D01*
X96958134Y-66227781D01*
X96945346Y-66245024D01*
X96930930Y-66260930D01*
X96915024Y-66275346D01*
X96897781Y-66288134D01*
X96879368Y-66299170D01*
X96859962Y-66308349D01*
X96839750Y-66315581D01*
X96818926Y-66320797D01*
X96797691Y-66323947D01*
X96776250Y-66325000D01*
X96263750Y-66325000D01*
X96242309Y-66323947D01*
X96221074Y-66320797D01*
X96200250Y-66315581D01*
X96180038Y-66308349D01*
X96160632Y-66299170D01*
X96142219Y-66288134D01*
X96124976Y-66275346D01*
X96109070Y-66260930D01*
X96094654Y-66245024D01*
X96081866Y-66227781D01*
X96070830Y-66209368D01*
X96061651Y-66189962D01*
X96054419Y-66169750D01*
X96049203Y-66148926D01*
X96046053Y-66127691D01*
X96045000Y-66106250D01*
X96045000Y-65668750D01*
X96046053Y-65647309D01*
X96049203Y-65626074D01*
X96054419Y-65605250D01*
X96061651Y-65585038D01*
X96070830Y-65565632D01*
X96081866Y-65547219D01*
X96094654Y-65529976D01*
X96109070Y-65514070D01*
X96124976Y-65499654D01*
X96142219Y-65486866D01*
X96160632Y-65475830D01*
X96180038Y-65466651D01*
X96200250Y-65459419D01*
X96221074Y-65454203D01*
X96242309Y-65451053D01*
X96263750Y-65450000D01*
X96776250Y-65450000D01*
X96797691Y-65451053D01*
G37*
G04 #@! TD.AperFunction*
G04 #@! TA.AperFunction,SMDPad,CuDef*
G36*
X96797691Y-67026053D02*
G01*
X96818926Y-67029203D01*
X96839750Y-67034419D01*
X96859962Y-67041651D01*
X96879368Y-67050830D01*
X96897781Y-67061866D01*
X96915024Y-67074654D01*
X96930930Y-67089070D01*
X96945346Y-67104976D01*
X96958134Y-67122219D01*
X96969170Y-67140632D01*
X96978349Y-67160038D01*
X96985581Y-67180250D01*
X96990797Y-67201074D01*
X96993947Y-67222309D01*
X96995000Y-67243750D01*
X96995000Y-67681250D01*
X96993947Y-67702691D01*
X96990797Y-67723926D01*
X96985581Y-67744750D01*
X96978349Y-67764962D01*
X96969170Y-67784368D01*
X96958134Y-67802781D01*
X96945346Y-67820024D01*
X96930930Y-67835930D01*
X96915024Y-67850346D01*
X96897781Y-67863134D01*
X96879368Y-67874170D01*
X96859962Y-67883349D01*
X96839750Y-67890581D01*
X96818926Y-67895797D01*
X96797691Y-67898947D01*
X96776250Y-67900000D01*
X96263750Y-67900000D01*
X96242309Y-67898947D01*
X96221074Y-67895797D01*
X96200250Y-67890581D01*
X96180038Y-67883349D01*
X96160632Y-67874170D01*
X96142219Y-67863134D01*
X96124976Y-67850346D01*
X96109070Y-67835930D01*
X96094654Y-67820024D01*
X96081866Y-67802781D01*
X96070830Y-67784368D01*
X96061651Y-67764962D01*
X96054419Y-67744750D01*
X96049203Y-67723926D01*
X96046053Y-67702691D01*
X96045000Y-67681250D01*
X96045000Y-67243750D01*
X96046053Y-67222309D01*
X96049203Y-67201074D01*
X96054419Y-67180250D01*
X96061651Y-67160038D01*
X96070830Y-67140632D01*
X96081866Y-67122219D01*
X96094654Y-67104976D01*
X96109070Y-67089070D01*
X96124976Y-67074654D01*
X96142219Y-67061866D01*
X96160632Y-67050830D01*
X96180038Y-67041651D01*
X96200250Y-67034419D01*
X96221074Y-67029203D01*
X96242309Y-67026053D01*
X96263750Y-67025000D01*
X96776250Y-67025000D01*
X96797691Y-67026053D01*
G37*
G04 #@! TD.AperFunction*
D12*
X88900000Y-58420000D03*
X86360000Y-58420000D03*
X83820000Y-58420000D03*
X81280000Y-58420000D03*
X78740000Y-58420000D03*
D13*
X76200000Y-58420000D03*
D10*
X90805000Y-74575000D03*
X90805000Y-77075000D03*
X90805000Y-79575000D03*
X90805000Y-82075000D03*
X90805000Y-84575000D03*
X90805000Y-87075000D03*
X90805000Y-89575000D03*
G04 #@! TA.AperFunction,ComponentPad*
D11*
G36*
X91554504Y-91226204D02*
G01*
X91578773Y-91229804D01*
X91602571Y-91235765D01*
X91625671Y-91244030D01*
X91647849Y-91254520D01*
X91668893Y-91267133D01*
X91688598Y-91281747D01*
X91706777Y-91298223D01*
X91723253Y-91316402D01*
X91737867Y-91336107D01*
X91750480Y-91357151D01*
X91760970Y-91379329D01*
X91769235Y-91402429D01*
X91775196Y-91426227D01*
X91778796Y-91450496D01*
X91780000Y-91475000D01*
X91780000Y-92675000D01*
X91778796Y-92699504D01*
X91775196Y-92723773D01*
X91769235Y-92747571D01*
X91760970Y-92770671D01*
X91750480Y-92792849D01*
X91737867Y-92813893D01*
X91723253Y-92833598D01*
X91706777Y-92851777D01*
X91688598Y-92868253D01*
X91668893Y-92882867D01*
X91647849Y-92895480D01*
X91625671Y-92905970D01*
X91602571Y-92914235D01*
X91578773Y-92920196D01*
X91554504Y-92923796D01*
X91530000Y-92925000D01*
X90080000Y-92925000D01*
X90055496Y-92923796D01*
X90031227Y-92920196D01*
X90007429Y-92914235D01*
X89984329Y-92905970D01*
X89962151Y-92895480D01*
X89941107Y-92882867D01*
X89921402Y-92868253D01*
X89903223Y-92851777D01*
X89886747Y-92833598D01*
X89872133Y-92813893D01*
X89859520Y-92792849D01*
X89849030Y-92770671D01*
X89840765Y-92747571D01*
X89834804Y-92723773D01*
X89831204Y-92699504D01*
X89830000Y-92675000D01*
X89830000Y-91475000D01*
X89831204Y-91450496D01*
X89834804Y-91426227D01*
X89840765Y-91402429D01*
X89849030Y-91379329D01*
X89859520Y-91357151D01*
X89872133Y-91336107D01*
X89886747Y-91316402D01*
X89903223Y-91298223D01*
X89921402Y-91281747D01*
X89941107Y-91267133D01*
X89962151Y-91254520D01*
X89984329Y-91244030D01*
X90007429Y-91235765D01*
X90031227Y-91229804D01*
X90055496Y-91226204D01*
X90080000Y-91225000D01*
X91530000Y-91225000D01*
X91554504Y-91226204D01*
G37*
G04 #@! TD.AperFunction*
D10*
X64770000Y-65325000D03*
X64770000Y-62825000D03*
G04 #@! TA.AperFunction,ComponentPad*
D11*
G36*
X65519504Y-59476204D02*
G01*
X65543773Y-59479804D01*
X65567571Y-59485765D01*
X65590671Y-59494030D01*
X65612849Y-59504520D01*
X65633893Y-59517133D01*
X65653598Y-59531747D01*
X65671777Y-59548223D01*
X65688253Y-59566402D01*
X65702867Y-59586107D01*
X65715480Y-59607151D01*
X65725970Y-59629329D01*
X65734235Y-59652429D01*
X65740196Y-59676227D01*
X65743796Y-59700496D01*
X65745000Y-59725000D01*
X65745000Y-60925000D01*
X65743796Y-60949504D01*
X65740196Y-60973773D01*
X65734235Y-60997571D01*
X65725970Y-61020671D01*
X65715480Y-61042849D01*
X65702867Y-61063893D01*
X65688253Y-61083598D01*
X65671777Y-61101777D01*
X65653598Y-61118253D01*
X65633893Y-61132867D01*
X65612849Y-61145480D01*
X65590671Y-61155970D01*
X65567571Y-61164235D01*
X65543773Y-61170196D01*
X65519504Y-61173796D01*
X65495000Y-61175000D01*
X64045000Y-61175000D01*
X64020496Y-61173796D01*
X63996227Y-61170196D01*
X63972429Y-61164235D01*
X63949329Y-61155970D01*
X63927151Y-61145480D01*
X63906107Y-61132867D01*
X63886402Y-61118253D01*
X63868223Y-61101777D01*
X63851747Y-61083598D01*
X63837133Y-61063893D01*
X63824520Y-61042849D01*
X63814030Y-61020671D01*
X63805765Y-60997571D01*
X63799804Y-60973773D01*
X63796204Y-60949504D01*
X63795000Y-60925000D01*
X63795000Y-59725000D01*
X63796204Y-59700496D01*
X63799804Y-59676227D01*
X63805765Y-59652429D01*
X63814030Y-59629329D01*
X63824520Y-59607151D01*
X63837133Y-59586107D01*
X63851747Y-59566402D01*
X63868223Y-59548223D01*
X63886402Y-59531747D01*
X63906107Y-59517133D01*
X63927151Y-59504520D01*
X63949329Y-59494030D01*
X63972429Y-59485765D01*
X63996227Y-59479804D01*
X64020496Y-59476204D01*
X64045000Y-59475000D01*
X65495000Y-59475000D01*
X65519504Y-59476204D01*
G37*
G04 #@! TD.AperFunction*
D14*
X60117056Y-89742944D03*
X58420000Y-89040000D03*
X56722944Y-89742944D03*
X56020000Y-91440000D03*
X56722944Y-93137056D03*
X58420000Y-93840000D03*
X60117056Y-93137056D03*
X60820000Y-91440000D03*
D15*
X58420000Y-91440000D03*
D14*
X98852056Y-57992944D03*
X97155000Y-57290000D03*
X95457944Y-57992944D03*
X94755000Y-59690000D03*
X95457944Y-61387056D03*
X97155000Y-62090000D03*
X98852056Y-61387056D03*
X99555000Y-59690000D03*
D15*
X97155000Y-59690000D03*
D16*
X74930000Y-79755000D03*
X74930000Y-76455000D03*
X74930000Y-82170000D03*
X74930000Y-85470000D03*
X77470000Y-85470000D03*
X77470000Y-82170000D03*
X77470000Y-76455000D03*
X77470000Y-79755000D03*
G04 #@! TA.AperFunction,SMDPad,CuDef*
D11*
G36*
X86117691Y-61756053D02*
G01*
X86138926Y-61759203D01*
X86159750Y-61764419D01*
X86179962Y-61771651D01*
X86199368Y-61780830D01*
X86217781Y-61791866D01*
X86235024Y-61804654D01*
X86250930Y-61819070D01*
X86265346Y-61834976D01*
X86278134Y-61852219D01*
X86289170Y-61870632D01*
X86298349Y-61890038D01*
X86305581Y-61910250D01*
X86310797Y-61931074D01*
X86313947Y-61952309D01*
X86315000Y-61973750D01*
X86315000Y-62486250D01*
X86313947Y-62507691D01*
X86310797Y-62528926D01*
X86305581Y-62549750D01*
X86298349Y-62569962D01*
X86289170Y-62589368D01*
X86278134Y-62607781D01*
X86265346Y-62625024D01*
X86250930Y-62640930D01*
X86235024Y-62655346D01*
X86217781Y-62668134D01*
X86199368Y-62679170D01*
X86179962Y-62688349D01*
X86159750Y-62695581D01*
X86138926Y-62700797D01*
X86117691Y-62703947D01*
X86096250Y-62705000D01*
X85658750Y-62705000D01*
X85637309Y-62703947D01*
X85616074Y-62700797D01*
X85595250Y-62695581D01*
X85575038Y-62688349D01*
X85555632Y-62679170D01*
X85537219Y-62668134D01*
X85519976Y-62655346D01*
X85504070Y-62640930D01*
X85489654Y-62625024D01*
X85476866Y-62607781D01*
X85465830Y-62589368D01*
X85456651Y-62569962D01*
X85449419Y-62549750D01*
X85444203Y-62528926D01*
X85441053Y-62507691D01*
X85440000Y-62486250D01*
X85440000Y-61973750D01*
X85441053Y-61952309D01*
X85444203Y-61931074D01*
X85449419Y-61910250D01*
X85456651Y-61890038D01*
X85465830Y-61870632D01*
X85476866Y-61852219D01*
X85489654Y-61834976D01*
X85504070Y-61819070D01*
X85519976Y-61804654D01*
X85537219Y-61791866D01*
X85555632Y-61780830D01*
X85575038Y-61771651D01*
X85595250Y-61764419D01*
X85616074Y-61759203D01*
X85637309Y-61756053D01*
X85658750Y-61755000D01*
X86096250Y-61755000D01*
X86117691Y-61756053D01*
G37*
G04 #@! TD.AperFunction*
G04 #@! TA.AperFunction,SMDPad,CuDef*
G36*
X84542691Y-61756053D02*
G01*
X84563926Y-61759203D01*
X84584750Y-61764419D01*
X84604962Y-61771651D01*
X84624368Y-61780830D01*
X84642781Y-61791866D01*
X84660024Y-61804654D01*
X84675930Y-61819070D01*
X84690346Y-61834976D01*
X84703134Y-61852219D01*
X84714170Y-61870632D01*
X84723349Y-61890038D01*
X84730581Y-61910250D01*
X84735797Y-61931074D01*
X84738947Y-61952309D01*
X84740000Y-61973750D01*
X84740000Y-62486250D01*
X84738947Y-62507691D01*
X84735797Y-62528926D01*
X84730581Y-62549750D01*
X84723349Y-62569962D01*
X84714170Y-62589368D01*
X84703134Y-62607781D01*
X84690346Y-62625024D01*
X84675930Y-62640930D01*
X84660024Y-62655346D01*
X84642781Y-62668134D01*
X84624368Y-62679170D01*
X84604962Y-62688349D01*
X84584750Y-62695581D01*
X84563926Y-62700797D01*
X84542691Y-62703947D01*
X84521250Y-62705000D01*
X84083750Y-62705000D01*
X84062309Y-62703947D01*
X84041074Y-62700797D01*
X84020250Y-62695581D01*
X84000038Y-62688349D01*
X83980632Y-62679170D01*
X83962219Y-62668134D01*
X83944976Y-62655346D01*
X83929070Y-62640930D01*
X83914654Y-62625024D01*
X83901866Y-62607781D01*
X83890830Y-62589368D01*
X83881651Y-62569962D01*
X83874419Y-62549750D01*
X83869203Y-62528926D01*
X83866053Y-62507691D01*
X83865000Y-62486250D01*
X83865000Y-61973750D01*
X83866053Y-61952309D01*
X83869203Y-61931074D01*
X83874419Y-61910250D01*
X83881651Y-61890038D01*
X83890830Y-61870632D01*
X83901866Y-61852219D01*
X83914654Y-61834976D01*
X83929070Y-61819070D01*
X83944976Y-61804654D01*
X83962219Y-61791866D01*
X83980632Y-61780830D01*
X84000038Y-61771651D01*
X84020250Y-61764419D01*
X84041074Y-61759203D01*
X84062309Y-61756053D01*
X84083750Y-61755000D01*
X84521250Y-61755000D01*
X84542691Y-61756053D01*
G37*
G04 #@! TD.AperFunction*
G04 #@! TA.AperFunction,SMDPad,CuDef*
G36*
X94892691Y-65451053D02*
G01*
X94913926Y-65454203D01*
X94934750Y-65459419D01*
X94954962Y-65466651D01*
X94974368Y-65475830D01*
X94992781Y-65486866D01*
X95010024Y-65499654D01*
X95025930Y-65514070D01*
X95040346Y-65529976D01*
X95053134Y-65547219D01*
X95064170Y-65565632D01*
X95073349Y-65585038D01*
X95080581Y-65605250D01*
X95085797Y-65626074D01*
X95088947Y-65647309D01*
X95090000Y-65668750D01*
X95090000Y-66106250D01*
X95088947Y-66127691D01*
X95085797Y-66148926D01*
X95080581Y-66169750D01*
X95073349Y-66189962D01*
X95064170Y-66209368D01*
X95053134Y-66227781D01*
X95040346Y-66245024D01*
X95025930Y-66260930D01*
X95010024Y-66275346D01*
X94992781Y-66288134D01*
X94974368Y-66299170D01*
X94954962Y-66308349D01*
X94934750Y-66315581D01*
X94913926Y-66320797D01*
X94892691Y-66323947D01*
X94871250Y-66325000D01*
X94358750Y-66325000D01*
X94337309Y-66323947D01*
X94316074Y-66320797D01*
X94295250Y-66315581D01*
X94275038Y-66308349D01*
X94255632Y-66299170D01*
X94237219Y-66288134D01*
X94219976Y-66275346D01*
X94204070Y-66260930D01*
X94189654Y-66245024D01*
X94176866Y-66227781D01*
X94165830Y-66209368D01*
X94156651Y-66189962D01*
X94149419Y-66169750D01*
X94144203Y-66148926D01*
X94141053Y-66127691D01*
X94140000Y-66106250D01*
X94140000Y-65668750D01*
X94141053Y-65647309D01*
X94144203Y-65626074D01*
X94149419Y-65605250D01*
X94156651Y-65585038D01*
X94165830Y-65565632D01*
X94176866Y-65547219D01*
X94189654Y-65529976D01*
X94204070Y-65514070D01*
X94219976Y-65499654D01*
X94237219Y-65486866D01*
X94255632Y-65475830D01*
X94275038Y-65466651D01*
X94295250Y-65459419D01*
X94316074Y-65454203D01*
X94337309Y-65451053D01*
X94358750Y-65450000D01*
X94871250Y-65450000D01*
X94892691Y-65451053D01*
G37*
G04 #@! TD.AperFunction*
G04 #@! TA.AperFunction,SMDPad,CuDef*
G36*
X94892691Y-67026053D02*
G01*
X94913926Y-67029203D01*
X94934750Y-67034419D01*
X94954962Y-67041651D01*
X94974368Y-67050830D01*
X94992781Y-67061866D01*
X95010024Y-67074654D01*
X95025930Y-67089070D01*
X95040346Y-67104976D01*
X95053134Y-67122219D01*
X95064170Y-67140632D01*
X95073349Y-67160038D01*
X95080581Y-67180250D01*
X95085797Y-67201074D01*
X95088947Y-67222309D01*
X95090000Y-67243750D01*
X95090000Y-67681250D01*
X95088947Y-67702691D01*
X95085797Y-67723926D01*
X95080581Y-67744750D01*
X95073349Y-67764962D01*
X95064170Y-67784368D01*
X95053134Y-67802781D01*
X95040346Y-67820024D01*
X95025930Y-67835930D01*
X95010024Y-67850346D01*
X94992781Y-67863134D01*
X94974368Y-67874170D01*
X94954962Y-67883349D01*
X94934750Y-67890581D01*
X94913926Y-67895797D01*
X94892691Y-67898947D01*
X94871250Y-67900000D01*
X94358750Y-67900000D01*
X94337309Y-67898947D01*
X94316074Y-67895797D01*
X94295250Y-67890581D01*
X94275038Y-67883349D01*
X94255632Y-67874170D01*
X94237219Y-67863134D01*
X94219976Y-67850346D01*
X94204070Y-67835930D01*
X94189654Y-67820024D01*
X94176866Y-67802781D01*
X94165830Y-67784368D01*
X94156651Y-67764962D01*
X94149419Y-67744750D01*
X94144203Y-67723926D01*
X94141053Y-67702691D01*
X94140000Y-67681250D01*
X94140000Y-67243750D01*
X94141053Y-67222309D01*
X94144203Y-67201074D01*
X94149419Y-67180250D01*
X94156651Y-67160038D01*
X94165830Y-67140632D01*
X94176866Y-67122219D01*
X94189654Y-67104976D01*
X94204070Y-67089070D01*
X94219976Y-67074654D01*
X94237219Y-67061866D01*
X94255632Y-67050830D01*
X94275038Y-67041651D01*
X94295250Y-67034419D01*
X94316074Y-67029203D01*
X94337309Y-67026053D01*
X94358750Y-67025000D01*
X94871250Y-67025000D01*
X94892691Y-67026053D01*
G37*
G04 #@! TD.AperFunction*
G04 #@! TA.AperFunction,SMDPad,CuDef*
G36*
X76774504Y-62226204D02*
G01*
X76798773Y-62229804D01*
X76822571Y-62235765D01*
X76845671Y-62244030D01*
X76867849Y-62254520D01*
X76888893Y-62267133D01*
X76908598Y-62281747D01*
X76926777Y-62298223D01*
X76943253Y-62316402D01*
X76957867Y-62336107D01*
X76970480Y-62357151D01*
X76980970Y-62379329D01*
X76989235Y-62402429D01*
X76995196Y-62426227D01*
X76998796Y-62450496D01*
X77000000Y-62475000D01*
X77000000Y-65475000D01*
X76998796Y-65499504D01*
X76995196Y-65523773D01*
X76989235Y-65547571D01*
X76980970Y-65570671D01*
X76970480Y-65592849D01*
X76957867Y-65613893D01*
X76943253Y-65633598D01*
X76926777Y-65651777D01*
X76908598Y-65668253D01*
X76888893Y-65682867D01*
X76867849Y-65695480D01*
X76845671Y-65705970D01*
X76822571Y-65714235D01*
X76798773Y-65720196D01*
X76774504Y-65723796D01*
X76750000Y-65725000D01*
X75650000Y-65725000D01*
X75625496Y-65723796D01*
X75601227Y-65720196D01*
X75577429Y-65714235D01*
X75554329Y-65705970D01*
X75532151Y-65695480D01*
X75511107Y-65682867D01*
X75491402Y-65668253D01*
X75473223Y-65651777D01*
X75456747Y-65633598D01*
X75442133Y-65613893D01*
X75429520Y-65592849D01*
X75419030Y-65570671D01*
X75410765Y-65547571D01*
X75404804Y-65523773D01*
X75401204Y-65499504D01*
X75400000Y-65475000D01*
X75400000Y-62475000D01*
X75401204Y-62450496D01*
X75404804Y-62426227D01*
X75410765Y-62402429D01*
X75419030Y-62379329D01*
X75429520Y-62357151D01*
X75442133Y-62336107D01*
X75456747Y-62316402D01*
X75473223Y-62298223D01*
X75491402Y-62281747D01*
X75511107Y-62267133D01*
X75532151Y-62254520D01*
X75554329Y-62244030D01*
X75577429Y-62235765D01*
X75601227Y-62229804D01*
X75625496Y-62226204D01*
X75650000Y-62225000D01*
X76750000Y-62225000D01*
X76774504Y-62226204D01*
G37*
G04 #@! TD.AperFunction*
G04 #@! TA.AperFunction,SMDPad,CuDef*
G36*
X76774504Y-67626204D02*
G01*
X76798773Y-67629804D01*
X76822571Y-67635765D01*
X76845671Y-67644030D01*
X76867849Y-67654520D01*
X76888893Y-67667133D01*
X76908598Y-67681747D01*
X76926777Y-67698223D01*
X76943253Y-67716402D01*
X76957867Y-67736107D01*
X76970480Y-67757151D01*
X76980970Y-67779329D01*
X76989235Y-67802429D01*
X76995196Y-67826227D01*
X76998796Y-67850496D01*
X77000000Y-67875000D01*
X77000000Y-70875000D01*
X76998796Y-70899504D01*
X76995196Y-70923773D01*
X76989235Y-70947571D01*
X76980970Y-70970671D01*
X76970480Y-70992849D01*
X76957867Y-71013893D01*
X76943253Y-71033598D01*
X76926777Y-71051777D01*
X76908598Y-71068253D01*
X76888893Y-71082867D01*
X76867849Y-71095480D01*
X76845671Y-71105970D01*
X76822571Y-71114235D01*
X76798773Y-71120196D01*
X76774504Y-71123796D01*
X76750000Y-71125000D01*
X75650000Y-71125000D01*
X75625496Y-71123796D01*
X75601227Y-71120196D01*
X75577429Y-71114235D01*
X75554329Y-71105970D01*
X75532151Y-71095480D01*
X75511107Y-71082867D01*
X75491402Y-71068253D01*
X75473223Y-71051777D01*
X75456747Y-71033598D01*
X75442133Y-71013893D01*
X75429520Y-70992849D01*
X75419030Y-70970671D01*
X75410765Y-70947571D01*
X75404804Y-70923773D01*
X75401204Y-70899504D01*
X75400000Y-70875000D01*
X75400000Y-67875000D01*
X75401204Y-67850496D01*
X75404804Y-67826227D01*
X75410765Y-67802429D01*
X75419030Y-67779329D01*
X75429520Y-67757151D01*
X75442133Y-67736107D01*
X75456747Y-67716402D01*
X75473223Y-67698223D01*
X75491402Y-67681747D01*
X75511107Y-67667133D01*
X75532151Y-67654520D01*
X75554329Y-67644030D01*
X75577429Y-67635765D01*
X75601227Y-67629804D01*
X75625496Y-67626204D01*
X75650000Y-67625000D01*
X76750000Y-67625000D01*
X76774504Y-67626204D01*
G37*
G04 #@! TD.AperFunction*
D14*
X77470000Y-83820000D03*
X89852500Y-69532500D03*
X94615000Y-70167500D03*
X91349990Y-68769832D03*
X91349990Y-66667472D03*
X92075000Y-70167500D03*
X91757500Y-64770000D03*
X60960000Y-78105000D03*
X76200000Y-73660000D03*
X95250000Y-69215000D03*
X93115005Y-68519777D03*
X82232500Y-66675000D03*
X80962500Y-65405000D03*
D17*
X64770000Y-62825000D02*
X75050000Y-62825000D01*
D18*
X61595000Y-64775000D02*
X63545000Y-62825000D01*
X63545000Y-62825000D02*
X64770000Y-62825000D01*
D17*
X75050000Y-62825000D02*
X76200000Y-63975000D01*
D18*
X81280000Y-59622081D02*
X81982919Y-60325000D01*
X81280000Y-58420000D02*
X81280000Y-59622081D01*
X85877500Y-61755000D02*
X85877500Y-62230000D01*
X84447500Y-60325000D02*
X85877500Y-61755000D01*
X81982919Y-60325000D02*
X84447500Y-60325000D01*
X94615000Y-65887500D02*
X96520000Y-65887500D01*
X74930000Y-79755000D02*
X74930000Y-82170000D01*
X81280000Y-57150000D02*
X81280000Y-58420000D01*
X89470000Y-62930000D02*
X91440000Y-60960000D01*
X91440000Y-60960000D02*
X91440000Y-57785000D01*
X89470000Y-64135000D02*
X89470000Y-62930000D01*
X91440000Y-57785000D02*
X90487500Y-56832500D01*
X81597500Y-56832500D02*
X81280000Y-57150000D01*
X90487500Y-56832500D02*
X81597500Y-56832500D01*
X61595000Y-77662500D02*
X63545000Y-79612500D01*
X61595000Y-77152500D02*
X61595000Y-77662500D01*
X63545000Y-79612500D02*
X64770000Y-79612500D01*
X61595000Y-77152500D02*
X61595000Y-64775000D01*
X83865000Y-62230000D02*
X84302500Y-62230000D01*
X81347919Y-62230000D02*
X83865000Y-62230000D01*
X78740000Y-59622081D02*
X81347919Y-62230000D01*
X78740000Y-58420000D02*
X78740000Y-59622081D01*
X84302500Y-62230000D02*
X84302500Y-63347500D01*
X84302500Y-63917500D02*
X84520000Y-64135000D01*
X84302500Y-62230000D02*
X84302500Y-63917500D01*
X77470000Y-79755000D02*
X77470000Y-82170000D01*
D17*
X67470000Y-69375000D02*
X75400000Y-69375000D01*
X75400000Y-69375000D02*
X76200000Y-69375000D01*
X64770000Y-66675000D02*
X67470000Y-69375000D01*
X64770000Y-65325000D02*
X64770000Y-66675000D01*
D18*
X77470000Y-82170000D02*
X77470000Y-83820000D01*
X94524999Y-69563001D02*
X94615000Y-69653002D01*
X94615000Y-67462500D02*
X94615000Y-67900000D01*
X94615000Y-69653002D02*
X94615000Y-84490000D01*
X92030000Y-87075000D02*
X90805000Y-87075000D01*
X94615000Y-84490000D02*
X92030000Y-87075000D01*
X94615000Y-67900000D02*
X94524999Y-67990001D01*
X94524999Y-67990001D02*
X94524999Y-69563001D01*
X85495000Y-66675000D02*
X88352500Y-69532500D01*
X84520000Y-66675000D02*
X85495000Y-66675000D01*
X88352500Y-69532500D02*
X89852500Y-69532500D01*
X74930000Y-74447500D02*
X74930000Y-76455000D01*
X74930000Y-76455000D02*
X77470000Y-76455000D01*
X74930000Y-76455000D02*
X84320921Y-76455000D01*
X91349990Y-69335517D02*
X91349990Y-68769832D01*
X89470000Y-66675000D02*
X91342462Y-66675000D01*
X91349990Y-69425931D02*
X91349990Y-69335517D01*
X91342462Y-66675000D02*
X91349990Y-66667472D01*
X84320921Y-76455000D02*
X91349990Y-69425931D01*
X91409498Y-64044998D02*
X90684496Y-64770000D01*
X92482502Y-64421998D02*
X92105502Y-64044998D01*
X87630000Y-59690000D02*
X87209999Y-59269999D01*
X87209999Y-59269999D02*
X86360000Y-58420000D01*
X88458232Y-64770000D02*
X87630000Y-63941768D01*
X90684496Y-64770000D02*
X88458232Y-64770000D01*
X92105502Y-64044998D02*
X91409498Y-64044998D01*
X87630000Y-63941768D02*
X87630000Y-59690000D01*
X90925504Y-66675000D02*
X92482502Y-65118002D01*
X92482502Y-65118002D02*
X92482502Y-64421998D01*
X89470000Y-66675000D02*
X90925504Y-66675000D01*
X88263589Y-65405000D02*
X88495000Y-65405000D01*
X83820000Y-58420000D02*
X84669999Y-59269999D01*
X86995000Y-64136411D02*
X88263589Y-65405000D01*
X88495000Y-65405000D02*
X89470000Y-65405000D01*
X86995000Y-60960000D02*
X86995000Y-64136411D01*
X85304999Y-59269999D02*
X86995000Y-60960000D01*
X84669999Y-59269999D02*
X85304999Y-59269999D01*
X74930000Y-85470000D02*
X77470000Y-85470000D01*
X77470000Y-85470000D02*
X77470000Y-87477500D01*
X77470000Y-85470000D02*
X77620000Y-85470000D01*
X77620000Y-85470000D02*
X79692500Y-83397500D01*
X79692500Y-83397500D02*
X80115000Y-83397500D01*
X80115000Y-83397500D02*
X86995000Y-76517500D01*
X86995000Y-76517500D02*
X86995000Y-74612500D01*
X86995000Y-74612500D02*
X91122500Y-70485000D01*
X91757500Y-70485000D02*
X92075000Y-70167500D01*
X91122500Y-70485000D02*
X91757500Y-70485000D01*
X89470000Y-65405000D02*
X91122500Y-65405000D01*
X91122500Y-65405000D02*
X91757500Y-64770000D01*
X63795000Y-60325000D02*
X60960000Y-63160000D01*
X64770000Y-60325000D02*
X63795000Y-60325000D01*
X60960000Y-63160000D02*
X60960000Y-78105000D01*
X89470000Y-67945000D02*
X87436768Y-67945000D01*
X81310501Y-66130001D02*
X80614499Y-66130001D01*
X80614499Y-66130001D02*
X80534508Y-66050010D01*
X80534508Y-66050010D02*
X71765010Y-66050010D01*
X85541758Y-66049990D02*
X82680494Y-66049990D01*
X64173285Y-64135000D02*
X62230000Y-66078285D01*
X69850000Y-64135000D02*
X64173285Y-64135000D01*
X71765010Y-66050010D02*
X69850000Y-64135000D01*
X81490504Y-65949998D02*
X81310501Y-66130001D01*
X82580502Y-65949998D02*
X81490504Y-65949998D01*
X82680494Y-66049990D02*
X82580502Y-65949998D01*
X87436768Y-67945000D02*
X85541758Y-66049990D01*
X62230000Y-66078285D02*
X62230000Y-74295000D01*
X63722510Y-75787510D02*
X66262510Y-75787510D01*
X62230000Y-74295000D02*
X63722510Y-75787510D01*
X66262510Y-75787510D02*
X66675000Y-76200000D01*
X65995000Y-82112500D02*
X64770000Y-82112500D01*
X66675000Y-81432500D02*
X65995000Y-82112500D01*
X66675000Y-76200000D02*
X66675000Y-81432500D01*
X74930000Y-72872500D02*
X77470000Y-72872500D01*
X75717500Y-73660000D02*
X74930000Y-72872500D01*
X76200000Y-73660000D02*
X75717500Y-73660000D01*
X77470000Y-89052500D02*
X74930000Y-89052500D01*
X80010000Y-86987500D02*
X77945000Y-89052500D01*
X77945000Y-89052500D02*
X77470000Y-89052500D01*
X80010000Y-84138910D02*
X80010000Y-86987500D01*
X87073910Y-77075000D02*
X80010000Y-84138910D01*
X90805000Y-77075000D02*
X87073910Y-77075000D01*
X95250000Y-68732500D02*
X96520000Y-67462500D01*
X95250000Y-69215000D02*
X95250000Y-68732500D01*
X93115005Y-69085462D02*
X93115005Y-68519777D01*
X93345000Y-69315457D02*
X93115005Y-69085462D01*
X90805000Y-82075000D02*
X92030000Y-82075000D01*
X92030000Y-82075000D02*
X93345000Y-80760000D01*
X93345000Y-80760000D02*
X93345000Y-69315457D01*
X92030000Y-84575000D02*
X93795011Y-82809989D01*
X93795011Y-82809989D02*
X93795011Y-68912773D01*
X90992008Y-67300010D02*
X87428188Y-67300010D01*
X85495000Y-65405000D02*
X84520000Y-65405000D01*
X93795011Y-68912773D02*
X93840006Y-68867778D01*
X90805000Y-84575000D02*
X92030000Y-84575000D01*
X93840006Y-68171776D02*
X93068231Y-67400001D01*
X87428188Y-67300010D02*
X85533178Y-65405000D01*
X93068231Y-67400001D02*
X91091999Y-67400001D01*
X91091999Y-67400001D02*
X90992008Y-67300010D01*
X93840006Y-68867778D02*
X93840006Y-68171776D01*
X85533178Y-65405000D02*
X85495000Y-65405000D01*
X83502500Y-67945000D02*
X82232500Y-66675000D01*
X84520000Y-67945000D02*
X83502500Y-67945000D01*
X80962500Y-63182500D02*
X76200000Y-58420000D01*
X80962500Y-65405000D02*
X80962500Y-63182500D01*
D19*
G36*
X91948000Y-63284998D02*
G01*
X91446823Y-63284998D01*
X91409498Y-63281322D01*
X91372173Y-63284998D01*
X91372165Y-63284998D01*
X91260512Y-63295995D01*
X91117251Y-63339452D01*
X90985222Y-63410024D01*
X90944871Y-63443139D01*
X90896185Y-63383815D01*
X90799494Y-63304463D01*
X90689180Y-63245498D01*
X90569482Y-63209188D01*
X90445000Y-63196928D01*
X89755750Y-63200000D01*
X89597000Y-63358750D01*
X89597000Y-64008000D01*
X89617000Y-64008000D01*
X89617000Y-64010000D01*
X89323000Y-64010000D01*
X89323000Y-64008000D01*
X89343000Y-64008000D01*
X89343000Y-63358750D01*
X89184250Y-63200000D01*
X88495000Y-63196928D01*
X88390000Y-63207269D01*
X88390000Y-59816103D01*
X88466842Y-59847932D01*
X88753740Y-59905000D01*
X89046260Y-59905000D01*
X89333158Y-59847932D01*
X89603411Y-59735990D01*
X89846632Y-59573475D01*
X90053475Y-59366632D01*
X90215990Y-59123411D01*
X90327932Y-58853158D01*
X90385000Y-58566260D01*
X90385000Y-58273740D01*
X90327932Y-57986842D01*
X90215990Y-57716589D01*
X90053475Y-57473368D01*
X89846632Y-57266525D01*
X89603411Y-57104010D01*
X89333158Y-56992068D01*
X89046260Y-56935000D01*
X88753740Y-56935000D01*
X88466842Y-56992068D01*
X88196589Y-57104010D01*
X87953368Y-57266525D01*
X87746525Y-57473368D01*
X87630000Y-57647760D01*
X87513475Y-57473368D01*
X87306632Y-57266525D01*
X87063411Y-57104010D01*
X86793158Y-56992068D01*
X86506260Y-56935000D01*
X86213740Y-56935000D01*
X85926842Y-56992068D01*
X85656589Y-57104010D01*
X85413368Y-57266525D01*
X85206525Y-57473368D01*
X85090000Y-57647760D01*
X84973475Y-57473368D01*
X84766632Y-57266525D01*
X84523411Y-57104010D01*
X84253158Y-56992068D01*
X83966260Y-56935000D01*
X83673740Y-56935000D01*
X83386842Y-56992068D01*
X83116589Y-57104010D01*
X82873368Y-57266525D01*
X82666525Y-57473368D01*
X82544805Y-57655534D01*
X82475178Y-57538645D01*
X82280269Y-57322412D01*
X82046920Y-57148359D01*
X81784099Y-57023175D01*
X81636890Y-56978524D01*
X81407000Y-57099845D01*
X81407000Y-58293000D01*
X81427000Y-58293000D01*
X81427000Y-58547000D01*
X81407000Y-58547000D01*
X81407000Y-59740155D01*
X81636890Y-59861476D01*
X81784099Y-59816825D01*
X82046920Y-59691641D01*
X82280269Y-59517588D01*
X82475178Y-59301355D01*
X82544805Y-59184466D01*
X82666525Y-59366632D01*
X82873368Y-59573475D01*
X83116589Y-59735990D01*
X83386842Y-59847932D01*
X83673740Y-59905000D01*
X83966260Y-59905000D01*
X84191228Y-59860251D01*
X84245722Y-59904973D01*
X84377752Y-59975545D01*
X84521013Y-60019002D01*
X84632666Y-60029999D01*
X84632675Y-60029999D01*
X84669998Y-60033675D01*
X84707321Y-60029999D01*
X84990198Y-60029999D01*
X86121724Y-61161526D01*
X86004500Y-61278750D01*
X86004500Y-62103000D01*
X86024500Y-62103000D01*
X86024500Y-62357000D01*
X86004500Y-62357000D01*
X86004500Y-63181250D01*
X86163250Y-63340000D01*
X86235001Y-63341453D01*
X86235001Y-64099079D01*
X86231324Y-64136411D01*
X86235001Y-64173744D01*
X86243571Y-64260750D01*
X86245998Y-64285396D01*
X86289454Y-64428657D01*
X86360026Y-64560687D01*
X86426204Y-64641324D01*
X86455000Y-64676412D01*
X86483998Y-64700210D01*
X87699789Y-65916002D01*
X87723588Y-65945001D01*
X87839313Y-66039974D01*
X87971342Y-66110546D01*
X87976424Y-66112088D01*
X87916916Y-66223418D01*
X87872071Y-66371255D01*
X87856928Y-66525000D01*
X87856928Y-66540010D01*
X87742990Y-66540010D01*
X86096982Y-64894003D01*
X86073179Y-64864999D01*
X85970052Y-64780365D01*
X85961546Y-64770000D01*
X86000258Y-64722829D01*
X86073084Y-64586582D01*
X86117929Y-64438745D01*
X86133072Y-64285000D01*
X86133072Y-63985000D01*
X86117929Y-63831255D01*
X86073084Y-63683418D01*
X86000258Y-63547171D01*
X85902251Y-63427749D01*
X85782829Y-63329742D01*
X85664993Y-63266757D01*
X85750500Y-63181250D01*
X85750500Y-62357000D01*
X85730500Y-62357000D01*
X85730500Y-62103000D01*
X85750500Y-62103000D01*
X85750500Y-61278750D01*
X85591750Y-61120000D01*
X85440000Y-61116928D01*
X85315518Y-61129188D01*
X85195820Y-61165498D01*
X85085506Y-61224463D01*
X85018930Y-61279100D01*
X84997275Y-61261329D01*
X84849142Y-61182150D01*
X84688408Y-61133392D01*
X84521250Y-61116928D01*
X84083750Y-61116928D01*
X83916592Y-61133392D01*
X83755858Y-61182150D01*
X83607725Y-61261329D01*
X83477885Y-61367885D01*
X83394082Y-61470000D01*
X81662722Y-61470000D01*
X79726414Y-59533693D01*
X79893475Y-59366632D01*
X80015195Y-59184466D01*
X80084822Y-59301355D01*
X80279731Y-59517588D01*
X80513080Y-59691641D01*
X80775901Y-59816825D01*
X80923110Y-59861476D01*
X81153000Y-59740155D01*
X81153000Y-58547000D01*
X81133000Y-58547000D01*
X81133000Y-58293000D01*
X81153000Y-58293000D01*
X81153000Y-57099845D01*
X80923110Y-56978524D01*
X80775901Y-57023175D01*
X80513080Y-57148359D01*
X80279731Y-57322412D01*
X80084822Y-57538645D01*
X80015195Y-57655534D01*
X79893475Y-57473368D01*
X79686632Y-57266525D01*
X79443411Y-57104010D01*
X79173158Y-56992068D01*
X78886260Y-56935000D01*
X78593740Y-56935000D01*
X78306842Y-56992068D01*
X78036589Y-57104010D01*
X77793368Y-57266525D01*
X77661513Y-57398380D01*
X77639502Y-57325820D01*
X77580537Y-57215506D01*
X77501185Y-57118815D01*
X77404494Y-57039463D01*
X77294180Y-56980498D01*
X77174482Y-56944188D01*
X77050000Y-56931928D01*
X75350000Y-56931928D01*
X75225518Y-56944188D01*
X75105820Y-56980498D01*
X74995506Y-57039463D01*
X74898815Y-57118815D01*
X74819463Y-57215506D01*
X74760498Y-57325820D01*
X74724188Y-57445518D01*
X74711928Y-57570000D01*
X74711928Y-59270000D01*
X74724188Y-59394482D01*
X74760498Y-59514180D01*
X74819463Y-59624494D01*
X74898815Y-59721185D01*
X74995506Y-59800537D01*
X75105820Y-59859502D01*
X75225518Y-59895812D01*
X75350000Y-59908072D01*
X76613271Y-59908072D01*
X80202501Y-63497303D01*
X80202500Y-64701289D01*
X80158563Y-64745226D01*
X80045295Y-64914744D01*
X79967274Y-65103102D01*
X79930096Y-65290010D01*
X77637159Y-65290010D01*
X77635000Y-64260750D01*
X77476250Y-64102000D01*
X76327000Y-64102000D01*
X76327000Y-64122000D01*
X76073000Y-64122000D01*
X76073000Y-64102000D01*
X74923750Y-64102000D01*
X74765000Y-64260750D01*
X74762841Y-65290010D01*
X72079812Y-65290010D01*
X70413804Y-63624003D01*
X70390001Y-63594999D01*
X70274276Y-63500026D01*
X70142247Y-63429454D01*
X69998986Y-63385997D01*
X69887333Y-63375000D01*
X69887322Y-63375000D01*
X69850000Y-63371324D01*
X69812678Y-63375000D01*
X66268825Y-63375000D01*
X66336476Y-63181890D01*
X66215155Y-62952000D01*
X64897000Y-62952000D01*
X64897000Y-62972000D01*
X64643000Y-62972000D01*
X64643000Y-62952000D01*
X63324845Y-62952000D01*
X63203524Y-63181890D01*
X63295648Y-63444858D01*
X63442504Y-63696193D01*
X63487038Y-63746445D01*
X61720000Y-65513484D01*
X61720000Y-63474801D01*
X63540510Y-61654292D01*
X63551614Y-61663405D01*
X63656961Y-61719714D01*
X63635571Y-61735951D01*
X63442504Y-61953807D01*
X63295648Y-62205142D01*
X63203524Y-62468110D01*
X63324845Y-62698000D01*
X64643000Y-62698000D01*
X64643000Y-62678000D01*
X64897000Y-62678000D01*
X64897000Y-62698000D01*
X66215155Y-62698000D01*
X66336476Y-62468110D01*
X66251309Y-62225000D01*
X74761928Y-62225000D01*
X74765000Y-63689250D01*
X74923750Y-63848000D01*
X76073000Y-63848000D01*
X76073000Y-61748750D01*
X76327000Y-61748750D01*
X76327000Y-63848000D01*
X77476250Y-63848000D01*
X77635000Y-63689250D01*
X77638072Y-62225000D01*
X77625812Y-62100518D01*
X77589502Y-61980820D01*
X77530537Y-61870506D01*
X77451185Y-61773815D01*
X77354494Y-61694463D01*
X77244180Y-61635498D01*
X77124482Y-61599188D01*
X77000000Y-61586928D01*
X76485750Y-61590000D01*
X76327000Y-61748750D01*
X76073000Y-61748750D01*
X75914250Y-61590000D01*
X75400000Y-61586928D01*
X75275518Y-61599188D01*
X75155820Y-61635498D01*
X75045506Y-61694463D01*
X74948815Y-61773815D01*
X74869463Y-61870506D01*
X74810498Y-61980820D01*
X74774188Y-62100518D01*
X74761928Y-62225000D01*
X66251309Y-62225000D01*
X66244352Y-62205142D01*
X66097496Y-61953807D01*
X65904429Y-61735951D01*
X65883039Y-61719714D01*
X65988386Y-61663405D01*
X66122962Y-61552962D01*
X66233405Y-61418386D01*
X66315472Y-61264850D01*
X66366008Y-61098254D01*
X66383072Y-60925000D01*
X66383072Y-59725000D01*
X66366008Y-59551746D01*
X66315472Y-59385150D01*
X66233405Y-59231614D01*
X66122962Y-59097038D01*
X65988386Y-58986595D01*
X65834850Y-58904528D01*
X65668254Y-58853992D01*
X65495000Y-58836928D01*
X64045000Y-58836928D01*
X63871746Y-58853992D01*
X63705150Y-58904528D01*
X63551614Y-58986595D01*
X63417038Y-59097038D01*
X63306595Y-59231614D01*
X63224528Y-59385150D01*
X63173992Y-59551746D01*
X63156928Y-59725000D01*
X63156928Y-59888269D01*
X60449003Y-62596196D01*
X60419999Y-62619999D01*
X60377736Y-62671497D01*
X60325026Y-62735724D01*
X60274911Y-62829482D01*
X60254454Y-62867754D01*
X60210997Y-63011015D01*
X60200000Y-63122668D01*
X60200000Y-63122678D01*
X60196324Y-63160000D01*
X60200000Y-63197322D01*
X60200001Y-77401288D01*
X60156063Y-77445226D01*
X60042795Y-77614744D01*
X59964774Y-77803102D01*
X59925000Y-78003061D01*
X59925000Y-78206939D01*
X59964774Y-78406898D01*
X60042795Y-78595256D01*
X60156063Y-78764774D01*
X60300226Y-78908937D01*
X60469744Y-79022205D01*
X60658102Y-79100226D01*
X60858061Y-79140000D01*
X61061939Y-79140000D01*
X61261898Y-79100226D01*
X61450256Y-79022205D01*
X61619774Y-78908937D01*
X61763937Y-78764774D01*
X61877205Y-78595256D01*
X61955226Y-78406898D01*
X61995000Y-78206939D01*
X61995000Y-78003061D01*
X61955226Y-77803102D01*
X61877205Y-77614744D01*
X61763937Y-77445226D01*
X61720000Y-77401289D01*
X61720000Y-74859801D01*
X63158710Y-76298512D01*
X63182509Y-76327511D01*
X63211507Y-76351309D01*
X63298233Y-76422484D01*
X63322939Y-76435690D01*
X63266401Y-76541466D01*
X63181487Y-76821389D01*
X63152815Y-77112500D01*
X63181487Y-77403611D01*
X63266401Y-77683534D01*
X63404294Y-77941514D01*
X63589866Y-78167634D01*
X63815986Y-78353206D01*
X63841722Y-78366962D01*
X63635571Y-78523451D01*
X63442504Y-78741307D01*
X63295648Y-78992642D01*
X63203524Y-79255610D01*
X63324845Y-79485500D01*
X64643000Y-79485500D01*
X64643000Y-79465500D01*
X64897000Y-79465500D01*
X64897000Y-79485500D01*
X64917000Y-79485500D01*
X64917000Y-79739500D01*
X64897000Y-79739500D01*
X64897000Y-79759500D01*
X64643000Y-79759500D01*
X64643000Y-79739500D01*
X63324845Y-79739500D01*
X63203524Y-79969390D01*
X63295648Y-80232358D01*
X63442504Y-80483693D01*
X63635571Y-80701549D01*
X63841722Y-80858038D01*
X63815986Y-80871794D01*
X63589866Y-81057366D01*
X63404294Y-81283486D01*
X63266401Y-81541466D01*
X63181487Y-81821389D01*
X63152815Y-82112500D01*
X63181487Y-82403611D01*
X63266401Y-82683534D01*
X63404294Y-82941514D01*
X63589866Y-83167634D01*
X63815986Y-83353206D01*
X64073966Y-83491099D01*
X64353889Y-83576013D01*
X64572050Y-83597500D01*
X64967950Y-83597500D01*
X65186111Y-83576013D01*
X65466034Y-83491099D01*
X65724014Y-83353206D01*
X65950134Y-83167634D01*
X66135706Y-82941514D01*
X66185146Y-82849017D01*
X66287247Y-82818046D01*
X66419276Y-82747474D01*
X66535001Y-82652501D01*
X66558803Y-82623498D01*
X66562301Y-82620000D01*
X73691928Y-82620000D01*
X73704188Y-82744482D01*
X73740498Y-82864180D01*
X73799463Y-82974494D01*
X73878815Y-83071185D01*
X73975506Y-83150537D01*
X74085820Y-83209502D01*
X74205518Y-83245812D01*
X74330000Y-83258072D01*
X74644250Y-83255000D01*
X74803000Y-83096250D01*
X74803000Y-82297000D01*
X75057000Y-82297000D01*
X75057000Y-83096250D01*
X75215750Y-83255000D01*
X75530000Y-83258072D01*
X75654482Y-83245812D01*
X75774180Y-83209502D01*
X75884494Y-83150537D01*
X75981185Y-83071185D01*
X76060537Y-82974494D01*
X76119502Y-82864180D01*
X76155812Y-82744482D01*
X76168072Y-82620000D01*
X76165000Y-82455750D01*
X76006250Y-82297000D01*
X75057000Y-82297000D01*
X74803000Y-82297000D01*
X73853750Y-82297000D01*
X73695000Y-82455750D01*
X73691928Y-82620000D01*
X66562301Y-82620000D01*
X67186002Y-81996299D01*
X67215001Y-81972501D01*
X67309974Y-81856776D01*
X67380546Y-81724747D01*
X67381985Y-81720000D01*
X73691928Y-81720000D01*
X73695000Y-81884250D01*
X73853750Y-82043000D01*
X74803000Y-82043000D01*
X74803000Y-81243750D01*
X75057000Y-81243750D01*
X75057000Y-82043000D01*
X76006250Y-82043000D01*
X76165000Y-81884250D01*
X76168072Y-81720000D01*
X76155812Y-81595518D01*
X76119502Y-81475820D01*
X76060537Y-81365506D01*
X75981185Y-81268815D01*
X75884494Y-81189463D01*
X75774180Y-81130498D01*
X75654482Y-81094188D01*
X75530000Y-81081928D01*
X75215750Y-81085000D01*
X75057000Y-81243750D01*
X74803000Y-81243750D01*
X74644250Y-81085000D01*
X74330000Y-81081928D01*
X74205518Y-81094188D01*
X74085820Y-81130498D01*
X73975506Y-81189463D01*
X73878815Y-81268815D01*
X73799463Y-81365506D01*
X73740498Y-81475820D01*
X73704188Y-81595518D01*
X73691928Y-81720000D01*
X67381985Y-81720000D01*
X67424003Y-81581486D01*
X67435000Y-81469833D01*
X67435000Y-81469824D01*
X67438676Y-81432501D01*
X67435000Y-81395178D01*
X67435000Y-80205000D01*
X73691928Y-80205000D01*
X73704188Y-80329482D01*
X73740498Y-80449180D01*
X73799463Y-80559494D01*
X73878815Y-80656185D01*
X73975506Y-80735537D01*
X74085820Y-80794502D01*
X74205518Y-80830812D01*
X74330000Y-80843072D01*
X74644250Y-80840000D01*
X74803000Y-80681250D01*
X74803000Y-79882000D01*
X75057000Y-79882000D01*
X75057000Y-80681250D01*
X75215750Y-80840000D01*
X75530000Y-80843072D01*
X75654482Y-80830812D01*
X75774180Y-80794502D01*
X75884494Y-80735537D01*
X75981185Y-80656185D01*
X76060537Y-80559494D01*
X76119502Y-80449180D01*
X76155812Y-80329482D01*
X76168072Y-80205000D01*
X76165000Y-80040750D01*
X76006250Y-79882000D01*
X75057000Y-79882000D01*
X74803000Y-79882000D01*
X73853750Y-79882000D01*
X73695000Y-80040750D01*
X73691928Y-80205000D01*
X67435000Y-80205000D01*
X67435000Y-79305000D01*
X73691928Y-79305000D01*
X73695000Y-79469250D01*
X73853750Y-79628000D01*
X74803000Y-79628000D01*
X74803000Y-78828750D01*
X75057000Y-78828750D01*
X75057000Y-79628000D01*
X76006250Y-79628000D01*
X76165000Y-79469250D01*
X76168072Y-79305000D01*
X76155812Y-79180518D01*
X76119502Y-79060820D01*
X76060537Y-78950506D01*
X75981185Y-78853815D01*
X75884494Y-78774463D01*
X75774180Y-78715498D01*
X75654482Y-78679188D01*
X75530000Y-78666928D01*
X75215750Y-78670000D01*
X75057000Y-78828750D01*
X74803000Y-78828750D01*
X74644250Y-78670000D01*
X74330000Y-78666928D01*
X74205518Y-78679188D01*
X74085820Y-78715498D01*
X73975506Y-78774463D01*
X73878815Y-78853815D01*
X73799463Y-78950506D01*
X73740498Y-79060820D01*
X73704188Y-79180518D01*
X73691928Y-79305000D01*
X67435000Y-79305000D01*
X67435000Y-76237323D01*
X67438676Y-76200000D01*
X67435000Y-76162677D01*
X67435000Y-76162667D01*
X67424003Y-76051014D01*
X67380546Y-75907753D01*
X67309974Y-75775724D01*
X67215001Y-75659999D01*
X67185998Y-75636197D01*
X66826314Y-75276513D01*
X66802511Y-75247509D01*
X66686786Y-75152536D01*
X66554757Y-75081964D01*
X66411496Y-75038507D01*
X66383072Y-75035707D01*
X66383072Y-74012500D01*
X66366008Y-73839246D01*
X66315472Y-73672650D01*
X66233405Y-73519114D01*
X66122962Y-73384538D01*
X65988386Y-73274095D01*
X65834850Y-73192028D01*
X65668254Y-73141492D01*
X65495000Y-73124428D01*
X64045000Y-73124428D01*
X63871746Y-73141492D01*
X63705150Y-73192028D01*
X63551614Y-73274095D01*
X63417038Y-73384538D01*
X63306595Y-73519114D01*
X63224528Y-73672650D01*
X63173992Y-73839246D01*
X63156928Y-74012500D01*
X63156928Y-74147127D01*
X62990000Y-73980199D01*
X62990000Y-66393086D01*
X63343260Y-66039827D01*
X63404294Y-66154014D01*
X63589866Y-66380134D01*
X63815986Y-66565706D01*
X63885001Y-66602595D01*
X63885001Y-66631521D01*
X63880719Y-66675000D01*
X63897805Y-66848490D01*
X63948412Y-67015313D01*
X64030590Y-67169059D01*
X64113468Y-67270046D01*
X64113471Y-67270049D01*
X64141184Y-67303817D01*
X64174951Y-67331529D01*
X66813470Y-69970049D01*
X66841183Y-70003817D01*
X66874951Y-70031530D01*
X66874953Y-70031532D01*
X66975941Y-70114411D01*
X67129686Y-70196589D01*
X67243805Y-70231207D01*
X67296510Y-70247195D01*
X67426523Y-70260000D01*
X67426531Y-70260000D01*
X67470000Y-70264281D01*
X67513469Y-70260000D01*
X74761928Y-70260000D01*
X74761928Y-70875000D01*
X74778992Y-71048254D01*
X74829528Y-71214850D01*
X74911595Y-71368386D01*
X75022038Y-71502962D01*
X75156614Y-71613405D01*
X75310150Y-71695472D01*
X75476746Y-71746008D01*
X75650000Y-71763072D01*
X76750000Y-71763072D01*
X76923254Y-71746008D01*
X77089850Y-71695472D01*
X77243386Y-71613405D01*
X77377962Y-71502962D01*
X77488405Y-71368386D01*
X77570472Y-71214850D01*
X77621008Y-71048254D01*
X77638072Y-70875000D01*
X77638072Y-67875000D01*
X77621008Y-67701746D01*
X77570472Y-67535150D01*
X77488405Y-67381614D01*
X77377962Y-67247038D01*
X77243386Y-67136595D01*
X77089850Y-67054528D01*
X76923254Y-67003992D01*
X76750000Y-66986928D01*
X75650000Y-66986928D01*
X75476746Y-67003992D01*
X75310150Y-67054528D01*
X75156614Y-67136595D01*
X75022038Y-67247038D01*
X74911595Y-67381614D01*
X74829528Y-67535150D01*
X74778992Y-67701746D01*
X74761928Y-67875000D01*
X74761928Y-68490000D01*
X67836579Y-68490000D01*
X65827421Y-66480842D01*
X65950134Y-66380134D01*
X66135706Y-66154014D01*
X66273599Y-65896034D01*
X66358513Y-65616111D01*
X66387185Y-65325000D01*
X66358513Y-65033889D01*
X66316381Y-64895000D01*
X69535199Y-64895000D01*
X71201210Y-66561012D01*
X71225009Y-66590011D01*
X71254007Y-66613809D01*
X71340733Y-66684984D01*
X71472726Y-66755536D01*
X71472763Y-66755556D01*
X71616024Y-66799013D01*
X71727677Y-66810010D01*
X71727686Y-66810010D01*
X71765009Y-66813686D01*
X71802332Y-66810010D01*
X80274476Y-66810010D01*
X80322252Y-66835547D01*
X80465513Y-66879004D01*
X80577166Y-66890001D01*
X80577176Y-66890001D01*
X80614498Y-66893677D01*
X80651821Y-66890001D01*
X81219989Y-66890001D01*
X81237274Y-66976898D01*
X81315295Y-67165256D01*
X81428563Y-67334774D01*
X81572726Y-67478937D01*
X81742244Y-67592205D01*
X81930602Y-67670226D01*
X82130561Y-67710000D01*
X82192699Y-67710000D01*
X82938701Y-68456003D01*
X82962499Y-68485001D01*
X83078224Y-68579974D01*
X83078596Y-68580173D01*
X83137749Y-68652251D01*
X83257171Y-68750258D01*
X83393418Y-68823084D01*
X83541255Y-68867929D01*
X83695000Y-68883072D01*
X85345000Y-68883072D01*
X85498745Y-68867929D01*
X85646582Y-68823084D01*
X85782829Y-68750258D01*
X85902251Y-68652251D01*
X86000258Y-68532829D01*
X86073084Y-68396582D01*
X86089073Y-68343874D01*
X87788701Y-70043503D01*
X87812499Y-70072501D01*
X87928224Y-70167474D01*
X88060253Y-70238046D01*
X88203514Y-70281503D01*
X88315167Y-70292500D01*
X88315176Y-70292500D01*
X88352499Y-70296176D01*
X88389822Y-70292500D01*
X89148789Y-70292500D01*
X89192726Y-70336437D01*
X89295806Y-70405313D01*
X84006120Y-75695000D01*
X78624320Y-75695000D01*
X78600537Y-75650506D01*
X78521185Y-75553815D01*
X78424494Y-75474463D01*
X78314180Y-75415498D01*
X78303492Y-75412256D01*
X78396185Y-75336185D01*
X78475537Y-75239494D01*
X78534502Y-75129180D01*
X78570812Y-75009482D01*
X78583072Y-74885000D01*
X78580000Y-74733250D01*
X78421250Y-74574500D01*
X77597000Y-74574500D01*
X77597000Y-74594500D01*
X77343000Y-74594500D01*
X77343000Y-74574500D01*
X77323000Y-74574500D01*
X77323000Y-74320500D01*
X77343000Y-74320500D01*
X77343000Y-74300500D01*
X77597000Y-74300500D01*
X77597000Y-74320500D01*
X78421250Y-74320500D01*
X78580000Y-74161750D01*
X78583072Y-74010000D01*
X78570812Y-73885518D01*
X78534502Y-73765820D01*
X78475537Y-73655506D01*
X78420900Y-73588930D01*
X78438671Y-73567275D01*
X78517850Y-73419142D01*
X78566608Y-73258408D01*
X78583072Y-73091250D01*
X78583072Y-72653750D01*
X78566608Y-72486592D01*
X78517850Y-72325858D01*
X78438671Y-72177725D01*
X78332115Y-72047885D01*
X78202275Y-71941329D01*
X78054142Y-71862150D01*
X77893408Y-71813392D01*
X77726250Y-71796928D01*
X77213750Y-71796928D01*
X77046592Y-71813392D01*
X76885858Y-71862150D01*
X76737725Y-71941329D01*
X76607885Y-72047885D01*
X76554857Y-72112500D01*
X75845143Y-72112500D01*
X75792115Y-72047885D01*
X75662275Y-71941329D01*
X75514142Y-71862150D01*
X75353408Y-71813392D01*
X75186250Y-71796928D01*
X74673750Y-71796928D01*
X74506592Y-71813392D01*
X74345858Y-71862150D01*
X74197725Y-71941329D01*
X74067885Y-72047885D01*
X73961329Y-72177725D01*
X73882150Y-72325858D01*
X73833392Y-72486592D01*
X73816928Y-72653750D01*
X73816928Y-73091250D01*
X73833392Y-73258408D01*
X73882150Y-73419142D01*
X73961329Y-73567275D01*
X74037426Y-73660000D01*
X73961329Y-73752725D01*
X73882150Y-73900858D01*
X73833392Y-74061592D01*
X73816928Y-74228750D01*
X73816928Y-74666250D01*
X73833392Y-74833408D01*
X73882150Y-74994142D01*
X73961329Y-75142275D01*
X74067885Y-75272115D01*
X74170000Y-75355918D01*
X74170000Y-75389962D01*
X74085820Y-75415498D01*
X73975506Y-75474463D01*
X73878815Y-75553815D01*
X73799463Y-75650506D01*
X73740498Y-75760820D01*
X73704188Y-75880518D01*
X73691928Y-76005000D01*
X73691928Y-76905000D01*
X73704188Y-77029482D01*
X73740498Y-77149180D01*
X73799463Y-77259494D01*
X73878815Y-77356185D01*
X73975506Y-77435537D01*
X74085820Y-77494502D01*
X74205518Y-77530812D01*
X74330000Y-77543072D01*
X75530000Y-77543072D01*
X75654482Y-77530812D01*
X75774180Y-77494502D01*
X75884494Y-77435537D01*
X75981185Y-77356185D01*
X76060537Y-77259494D01*
X76084320Y-77215000D01*
X76315680Y-77215000D01*
X76339463Y-77259494D01*
X76418815Y-77356185D01*
X76515506Y-77435537D01*
X76625820Y-77494502D01*
X76745518Y-77530812D01*
X76870000Y-77543072D01*
X78070000Y-77543072D01*
X78194482Y-77530812D01*
X78314180Y-77494502D01*
X78424494Y-77435537D01*
X78521185Y-77356185D01*
X78600537Y-77259494D01*
X78624320Y-77215000D01*
X84283599Y-77215000D01*
X84320921Y-77218676D01*
X84358243Y-77215000D01*
X84358254Y-77215000D01*
X84469907Y-77204003D01*
X84613168Y-77160546D01*
X84745197Y-77089974D01*
X84860922Y-76995001D01*
X84884725Y-76965997D01*
X86235000Y-75615722D01*
X86235000Y-76202698D01*
X79800199Y-82637500D01*
X79729833Y-82637500D01*
X79692500Y-82633823D01*
X79655167Y-82637500D01*
X79543514Y-82648497D01*
X79400253Y-82691954D01*
X79268224Y-82762526D01*
X79152499Y-82857499D01*
X79128701Y-82886497D01*
X78470514Y-83544685D01*
X78465226Y-83518102D01*
X78387205Y-83329744D01*
X78308095Y-83211348D01*
X78314180Y-83209502D01*
X78424494Y-83150537D01*
X78521185Y-83071185D01*
X78600537Y-82974494D01*
X78659502Y-82864180D01*
X78695812Y-82744482D01*
X78708072Y-82620000D01*
X78708072Y-81720000D01*
X78695812Y-81595518D01*
X78659502Y-81475820D01*
X78600537Y-81365506D01*
X78521185Y-81268815D01*
X78424494Y-81189463D01*
X78314180Y-81130498D01*
X78230000Y-81104962D01*
X78230000Y-80820038D01*
X78314180Y-80794502D01*
X78424494Y-80735537D01*
X78521185Y-80656185D01*
X78600537Y-80559494D01*
X78659502Y-80449180D01*
X78695812Y-80329482D01*
X78708072Y-80205000D01*
X78708072Y-79305000D01*
X78695812Y-79180518D01*
X78659502Y-79060820D01*
X78600537Y-78950506D01*
X78521185Y-78853815D01*
X78424494Y-78774463D01*
X78314180Y-78715498D01*
X78194482Y-78679188D01*
X78070000Y-78666928D01*
X76870000Y-78666928D01*
X76745518Y-78679188D01*
X76625820Y-78715498D01*
X76515506Y-78774463D01*
X76418815Y-78853815D01*
X76339463Y-78950506D01*
X76280498Y-79060820D01*
X76244188Y-79180518D01*
X76231928Y-79305000D01*
X76231928Y-80205000D01*
X76244188Y-80329482D01*
X76280498Y-80449180D01*
X76339463Y-80559494D01*
X76418815Y-80656185D01*
X76515506Y-80735537D01*
X76625820Y-80794502D01*
X76710000Y-80820038D01*
X76710001Y-81104962D01*
X76625820Y-81130498D01*
X76515506Y-81189463D01*
X76418815Y-81268815D01*
X76339463Y-81365506D01*
X76280498Y-81475820D01*
X76244188Y-81595518D01*
X76231928Y-81720000D01*
X76231928Y-82620000D01*
X76244188Y-82744482D01*
X76280498Y-82864180D01*
X76339463Y-82974494D01*
X76418815Y-83071185D01*
X76515506Y-83150537D01*
X76625820Y-83209502D01*
X76631905Y-83211348D01*
X76552795Y-83329744D01*
X76474774Y-83518102D01*
X76435000Y-83718061D01*
X76435000Y-83921939D01*
X76474774Y-84121898D01*
X76552795Y-84310256D01*
X76631905Y-84428652D01*
X76625820Y-84430498D01*
X76515506Y-84489463D01*
X76418815Y-84568815D01*
X76339463Y-84665506D01*
X76315680Y-84710000D01*
X76084320Y-84710000D01*
X76060537Y-84665506D01*
X75981185Y-84568815D01*
X75884494Y-84489463D01*
X75774180Y-84430498D01*
X75654482Y-84394188D01*
X75530000Y-84381928D01*
X74330000Y-84381928D01*
X74205518Y-84394188D01*
X74085820Y-84430498D01*
X73975506Y-84489463D01*
X73878815Y-84568815D01*
X73799463Y-84665506D01*
X73740498Y-84775820D01*
X73704188Y-84895518D01*
X73691928Y-85020000D01*
X73691928Y-85920000D01*
X73704188Y-86044482D01*
X73740498Y-86164180D01*
X73799463Y-86274494D01*
X73878815Y-86371185D01*
X73975506Y-86450537D01*
X74085820Y-86509502D01*
X74096508Y-86512744D01*
X74003815Y-86588815D01*
X73924463Y-86685506D01*
X73865498Y-86795820D01*
X73829188Y-86915518D01*
X73816928Y-87040000D01*
X73820000Y-87191750D01*
X73978750Y-87350500D01*
X74803000Y-87350500D01*
X74803000Y-87330500D01*
X75057000Y-87330500D01*
X75057000Y-87350500D01*
X75881250Y-87350500D01*
X76040000Y-87191750D01*
X76043072Y-87040000D01*
X76030812Y-86915518D01*
X75994502Y-86795820D01*
X75935537Y-86685506D01*
X75856185Y-86588815D01*
X75763492Y-86512744D01*
X75774180Y-86509502D01*
X75884494Y-86450537D01*
X75981185Y-86371185D01*
X76060537Y-86274494D01*
X76084320Y-86230000D01*
X76315680Y-86230000D01*
X76339463Y-86274494D01*
X76418815Y-86371185D01*
X76515506Y-86450537D01*
X76625820Y-86509502D01*
X76710001Y-86535038D01*
X76710001Y-86569082D01*
X76607885Y-86652885D01*
X76501329Y-86782725D01*
X76422150Y-86930858D01*
X76373392Y-87091592D01*
X76356928Y-87258750D01*
X76356928Y-87696250D01*
X76373392Y-87863408D01*
X76422150Y-88024142D01*
X76501329Y-88172275D01*
X76577426Y-88265000D01*
X76554857Y-88292500D01*
X75916657Y-88292500D01*
X75935537Y-88269494D01*
X75994502Y-88159180D01*
X76030812Y-88039482D01*
X76043072Y-87915000D01*
X76040000Y-87763250D01*
X75881250Y-87604500D01*
X75057000Y-87604500D01*
X75057000Y-87624500D01*
X74803000Y-87624500D01*
X74803000Y-87604500D01*
X73978750Y-87604500D01*
X73820000Y-87763250D01*
X73816928Y-87915000D01*
X73829188Y-88039482D01*
X73865498Y-88159180D01*
X73924463Y-88269494D01*
X73979100Y-88336070D01*
X73961329Y-88357725D01*
X73882150Y-88505858D01*
X73833392Y-88666592D01*
X73816928Y-88833750D01*
X73816928Y-89271250D01*
X73833392Y-89438408D01*
X73882150Y-89599142D01*
X73961329Y-89747275D01*
X74067885Y-89877115D01*
X74197725Y-89983671D01*
X74345858Y-90062850D01*
X74506592Y-90111608D01*
X74673750Y-90128072D01*
X75186250Y-90128072D01*
X75353408Y-90111608D01*
X75514142Y-90062850D01*
X75662275Y-89983671D01*
X75792115Y-89877115D01*
X75845143Y-89812500D01*
X76554857Y-89812500D01*
X76607885Y-89877115D01*
X76737725Y-89983671D01*
X76885858Y-90062850D01*
X77046592Y-90111608D01*
X77213750Y-90128072D01*
X77726250Y-90128072D01*
X77893408Y-90111608D01*
X78054142Y-90062850D01*
X78202275Y-89983671D01*
X78332115Y-89877115D01*
X78438671Y-89747275D01*
X78517850Y-89599142D01*
X78537310Y-89534991D01*
X80521003Y-87551299D01*
X80550001Y-87527501D01*
X80576332Y-87495417D01*
X80644974Y-87411777D01*
X80715546Y-87279747D01*
X80721915Y-87258750D01*
X80759003Y-87136486D01*
X80770000Y-87024833D01*
X80770000Y-87024823D01*
X80773676Y-86987501D01*
X80770000Y-86950178D01*
X80770000Y-84453711D01*
X87388712Y-77835000D01*
X89402405Y-77835000D01*
X89439294Y-77904014D01*
X89624866Y-78130134D01*
X89850986Y-78315706D01*
X89868374Y-78325000D01*
X89850986Y-78334294D01*
X89624866Y-78519866D01*
X89439294Y-78745986D01*
X89301401Y-79003966D01*
X89216487Y-79283889D01*
X89187815Y-79575000D01*
X89216487Y-79866111D01*
X89301401Y-80146034D01*
X89439294Y-80404014D01*
X89624866Y-80630134D01*
X89850986Y-80815706D01*
X89868374Y-80825000D01*
X89850986Y-80834294D01*
X89624866Y-81019866D01*
X89439294Y-81245986D01*
X89301401Y-81503966D01*
X89216487Y-81783889D01*
X89187815Y-82075000D01*
X89216487Y-82366111D01*
X89301401Y-82646034D01*
X89439294Y-82904014D01*
X89624866Y-83130134D01*
X89850986Y-83315706D01*
X89868374Y-83325000D01*
X89850986Y-83334294D01*
X89624866Y-83519866D01*
X89439294Y-83745986D01*
X89301401Y-84003966D01*
X89216487Y-84283889D01*
X89187815Y-84575000D01*
X89216487Y-84866111D01*
X89301401Y-85146034D01*
X89439294Y-85404014D01*
X89624866Y-85630134D01*
X89850986Y-85815706D01*
X89868374Y-85825000D01*
X89850986Y-85834294D01*
X89624866Y-86019866D01*
X89439294Y-86245986D01*
X89301401Y-86503966D01*
X89216487Y-86783889D01*
X89187815Y-87075000D01*
X89216487Y-87366111D01*
X89301401Y-87646034D01*
X89439294Y-87904014D01*
X89624866Y-88130134D01*
X89850986Y-88315706D01*
X89876722Y-88329462D01*
X89670571Y-88485951D01*
X89477504Y-88703807D01*
X89330648Y-88955142D01*
X89238524Y-89218110D01*
X89359845Y-89448000D01*
X90678000Y-89448000D01*
X90678000Y-89428000D01*
X90932000Y-89428000D01*
X90932000Y-89448000D01*
X92250155Y-89448000D01*
X92371476Y-89218110D01*
X92279352Y-88955142D01*
X92132496Y-88703807D01*
X91939429Y-88485951D01*
X91733278Y-88329462D01*
X91759014Y-88315706D01*
X91985134Y-88130134D01*
X92170706Y-87904014D01*
X92220146Y-87811517D01*
X92322247Y-87780546D01*
X92454276Y-87709974D01*
X92570001Y-87615001D01*
X92593804Y-87585997D01*
X95126003Y-85053799D01*
X95155001Y-85030001D01*
X95213272Y-84958998D01*
X95249974Y-84914277D01*
X95320546Y-84782247D01*
X95338219Y-84723985D01*
X95364003Y-84638986D01*
X95375000Y-84527333D01*
X95375000Y-84527324D01*
X95378676Y-84490001D01*
X95375000Y-84452678D01*
X95375000Y-70871211D01*
X95418937Y-70827274D01*
X95532205Y-70657756D01*
X95610226Y-70469398D01*
X95650000Y-70269439D01*
X95650000Y-70169591D01*
X95740256Y-70132205D01*
X95909774Y-70018937D01*
X96053937Y-69874774D01*
X96167205Y-69705256D01*
X96245226Y-69516898D01*
X96285000Y-69316939D01*
X96285000Y-69113061D01*
X96245226Y-68913102D01*
X96215636Y-68841666D01*
X96519230Y-68538072D01*
X96776250Y-68538072D01*
X96943408Y-68521608D01*
X97104142Y-68472850D01*
X97252275Y-68393671D01*
X97382115Y-68287115D01*
X97488671Y-68157275D01*
X97567850Y-68009142D01*
X97616608Y-67848408D01*
X97633072Y-67681250D01*
X97633072Y-67243750D01*
X97616608Y-67076592D01*
X97567850Y-66915858D01*
X97488671Y-66767725D01*
X97470900Y-66746070D01*
X97525537Y-66679494D01*
X97584502Y-66569180D01*
X97620812Y-66449482D01*
X97633072Y-66325000D01*
X97630000Y-66173250D01*
X97471250Y-66014500D01*
X96647000Y-66014500D01*
X96647000Y-66034500D01*
X96393000Y-66034500D01*
X96393000Y-66014500D01*
X95568750Y-66014500D01*
X95567500Y-66015750D01*
X95566250Y-66014500D01*
X94742000Y-66014500D01*
X94742000Y-66034500D01*
X94488000Y-66034500D01*
X94488000Y-66014500D01*
X93663750Y-66014500D01*
X93505000Y-66173250D01*
X93501928Y-66325000D01*
X93514188Y-66449482D01*
X93550498Y-66569180D01*
X93609463Y-66679494D01*
X93664100Y-66746070D01*
X93646329Y-66767725D01*
X93600429Y-66853597D01*
X93492507Y-66765027D01*
X93360478Y-66694455D01*
X93217217Y-66650998D01*
X93105564Y-66640001D01*
X93105553Y-66640001D01*
X93068231Y-66636325D01*
X93030909Y-66640001D01*
X92384990Y-66640001D01*
X92384990Y-66565533D01*
X92345216Y-66365574D01*
X92334823Y-66340483D01*
X92993506Y-65681800D01*
X93022503Y-65658003D01*
X93117476Y-65542278D01*
X93188048Y-65410249D01*
X93231505Y-65266988D01*
X93242502Y-65155335D01*
X93242502Y-65155327D01*
X93246178Y-65118002D01*
X93242502Y-65080677D01*
X93242502Y-64897000D01*
X93827531Y-64897000D01*
X93785506Y-64919463D01*
X93688815Y-64998815D01*
X93609463Y-65095506D01*
X93550498Y-65205820D01*
X93514188Y-65325518D01*
X93501928Y-65450000D01*
X93505000Y-65601750D01*
X93663750Y-65760500D01*
X94488000Y-65760500D01*
X94488000Y-65740500D01*
X94742000Y-65740500D01*
X94742000Y-65760500D01*
X95566250Y-65760500D01*
X95567500Y-65759250D01*
X95568750Y-65760500D01*
X96393000Y-65760500D01*
X96393000Y-65740500D01*
X96647000Y-65740500D01*
X96647000Y-65760500D01*
X97471250Y-65760500D01*
X97630000Y-65601750D01*
X97633072Y-65450000D01*
X97620812Y-65325518D01*
X97584502Y-65205820D01*
X97525537Y-65095506D01*
X97446185Y-64998815D01*
X97349494Y-64919463D01*
X97307469Y-64897000D01*
X100305000Y-64897000D01*
X100305000Y-70517418D01*
X100305001Y-70517428D01*
X100305000Y-94590000D01*
X63627000Y-94590000D01*
X63627000Y-91475000D01*
X89191928Y-91475000D01*
X89191928Y-92675000D01*
X89208992Y-92848254D01*
X89259528Y-93014850D01*
X89341595Y-93168386D01*
X89452038Y-93302962D01*
X89586614Y-93413405D01*
X89740150Y-93495472D01*
X89906746Y-93546008D01*
X90080000Y-93563072D01*
X91530000Y-93563072D01*
X91703254Y-93546008D01*
X91869850Y-93495472D01*
X92023386Y-93413405D01*
X92157962Y-93302962D01*
X92268405Y-93168386D01*
X92350472Y-93014850D01*
X92401008Y-92848254D01*
X92418072Y-92675000D01*
X92418072Y-91475000D01*
X92401008Y-91301746D01*
X92350472Y-91135150D01*
X92268405Y-90981614D01*
X92157962Y-90847038D01*
X92023386Y-90736595D01*
X91918039Y-90680286D01*
X91939429Y-90664049D01*
X92132496Y-90446193D01*
X92279352Y-90194858D01*
X92371476Y-89931890D01*
X92250155Y-89702000D01*
X90932000Y-89702000D01*
X90932000Y-89722000D01*
X90678000Y-89722000D01*
X90678000Y-89702000D01*
X89359845Y-89702000D01*
X89238524Y-89931890D01*
X89330648Y-90194858D01*
X89477504Y-90446193D01*
X89670571Y-90664049D01*
X89691961Y-90680286D01*
X89586614Y-90736595D01*
X89452038Y-90847038D01*
X89341595Y-90981614D01*
X89259528Y-91135150D01*
X89208992Y-91301746D01*
X89191928Y-91475000D01*
X63627000Y-91475000D01*
X63627000Y-86360000D01*
X63624560Y-86335224D01*
X63617333Y-86311399D01*
X63605597Y-86289443D01*
X63589803Y-86270197D01*
X63570557Y-86254403D01*
X63548601Y-86242667D01*
X63524776Y-86235440D01*
X63500000Y-86233000D01*
X55270000Y-86233000D01*
X55270000Y-56540000D01*
X91948000Y-56540000D01*
X91948000Y-63284998D01*
G37*
X91948000Y-63284998D02*
X91446823Y-63284998D01*
X91409498Y-63281322D01*
X91372173Y-63284998D01*
X91372165Y-63284998D01*
X91260512Y-63295995D01*
X91117251Y-63339452D01*
X90985222Y-63410024D01*
X90944871Y-63443139D01*
X90896185Y-63383815D01*
X90799494Y-63304463D01*
X90689180Y-63245498D01*
X90569482Y-63209188D01*
X90445000Y-63196928D01*
X89755750Y-63200000D01*
X89597000Y-63358750D01*
X89597000Y-64008000D01*
X89617000Y-64008000D01*
X89617000Y-64010000D01*
X89323000Y-64010000D01*
X89323000Y-64008000D01*
X89343000Y-64008000D01*
X89343000Y-63358750D01*
X89184250Y-63200000D01*
X88495000Y-63196928D01*
X88390000Y-63207269D01*
X88390000Y-59816103D01*
X88466842Y-59847932D01*
X88753740Y-59905000D01*
X89046260Y-59905000D01*
X89333158Y-59847932D01*
X89603411Y-59735990D01*
X89846632Y-59573475D01*
X90053475Y-59366632D01*
X90215990Y-59123411D01*
X90327932Y-58853158D01*
X90385000Y-58566260D01*
X90385000Y-58273740D01*
X90327932Y-57986842D01*
X90215990Y-57716589D01*
X90053475Y-57473368D01*
X89846632Y-57266525D01*
X89603411Y-57104010D01*
X89333158Y-56992068D01*
X89046260Y-56935000D01*
X88753740Y-56935000D01*
X88466842Y-56992068D01*
X88196589Y-57104010D01*
X87953368Y-57266525D01*
X87746525Y-57473368D01*
X87630000Y-57647760D01*
X87513475Y-57473368D01*
X87306632Y-57266525D01*
X87063411Y-57104010D01*
X86793158Y-56992068D01*
X86506260Y-56935000D01*
X86213740Y-56935000D01*
X85926842Y-56992068D01*
X85656589Y-57104010D01*
X85413368Y-57266525D01*
X85206525Y-57473368D01*
X85090000Y-57647760D01*
X84973475Y-57473368D01*
X84766632Y-57266525D01*
X84523411Y-57104010D01*
X84253158Y-56992068D01*
X83966260Y-56935000D01*
X83673740Y-56935000D01*
X83386842Y-56992068D01*
X83116589Y-57104010D01*
X82873368Y-57266525D01*
X82666525Y-57473368D01*
X82544805Y-57655534D01*
X82475178Y-57538645D01*
X82280269Y-57322412D01*
X82046920Y-57148359D01*
X81784099Y-57023175D01*
X81636890Y-56978524D01*
X81407000Y-57099845D01*
X81407000Y-58293000D01*
X81427000Y-58293000D01*
X81427000Y-58547000D01*
X81407000Y-58547000D01*
X81407000Y-59740155D01*
X81636890Y-59861476D01*
X81784099Y-59816825D01*
X82046920Y-59691641D01*
X82280269Y-59517588D01*
X82475178Y-59301355D01*
X82544805Y-59184466D01*
X82666525Y-59366632D01*
X82873368Y-59573475D01*
X83116589Y-59735990D01*
X83386842Y-59847932D01*
X83673740Y-59905000D01*
X83966260Y-59905000D01*
X84191228Y-59860251D01*
X84245722Y-59904973D01*
X84377752Y-59975545D01*
X84521013Y-60019002D01*
X84632666Y-60029999D01*
X84632675Y-60029999D01*
X84669998Y-60033675D01*
X84707321Y-60029999D01*
X84990198Y-60029999D01*
X86121724Y-61161526D01*
X86004500Y-61278750D01*
X86004500Y-62103000D01*
X86024500Y-62103000D01*
X86024500Y-62357000D01*
X86004500Y-62357000D01*
X86004500Y-63181250D01*
X86163250Y-63340000D01*
X86235001Y-63341453D01*
X86235001Y-64099079D01*
X86231324Y-64136411D01*
X86235001Y-64173744D01*
X86243571Y-64260750D01*
X86245998Y-64285396D01*
X86289454Y-64428657D01*
X86360026Y-64560687D01*
X86426204Y-64641324D01*
X86455000Y-64676412D01*
X86483998Y-64700210D01*
X87699789Y-65916002D01*
X87723588Y-65945001D01*
X87839313Y-66039974D01*
X87971342Y-66110546D01*
X87976424Y-66112088D01*
X87916916Y-66223418D01*
X87872071Y-66371255D01*
X87856928Y-66525000D01*
X87856928Y-66540010D01*
X87742990Y-66540010D01*
X86096982Y-64894003D01*
X86073179Y-64864999D01*
X85970052Y-64780365D01*
X85961546Y-64770000D01*
X86000258Y-64722829D01*
X86073084Y-64586582D01*
X86117929Y-64438745D01*
X86133072Y-64285000D01*
X86133072Y-63985000D01*
X86117929Y-63831255D01*
X86073084Y-63683418D01*
X86000258Y-63547171D01*
X85902251Y-63427749D01*
X85782829Y-63329742D01*
X85664993Y-63266757D01*
X85750500Y-63181250D01*
X85750500Y-62357000D01*
X85730500Y-62357000D01*
X85730500Y-62103000D01*
X85750500Y-62103000D01*
X85750500Y-61278750D01*
X85591750Y-61120000D01*
X85440000Y-61116928D01*
X85315518Y-61129188D01*
X85195820Y-61165498D01*
X85085506Y-61224463D01*
X85018930Y-61279100D01*
X84997275Y-61261329D01*
X84849142Y-61182150D01*
X84688408Y-61133392D01*
X84521250Y-61116928D01*
X84083750Y-61116928D01*
X83916592Y-61133392D01*
X83755858Y-61182150D01*
X83607725Y-61261329D01*
X83477885Y-61367885D01*
X83394082Y-61470000D01*
X81662722Y-61470000D01*
X79726414Y-59533693D01*
X79893475Y-59366632D01*
X80015195Y-59184466D01*
X80084822Y-59301355D01*
X80279731Y-59517588D01*
X80513080Y-59691641D01*
X80775901Y-59816825D01*
X80923110Y-59861476D01*
X81153000Y-59740155D01*
X81153000Y-58547000D01*
X81133000Y-58547000D01*
X81133000Y-58293000D01*
X81153000Y-58293000D01*
X81153000Y-57099845D01*
X80923110Y-56978524D01*
X80775901Y-57023175D01*
X80513080Y-57148359D01*
X80279731Y-57322412D01*
X80084822Y-57538645D01*
X80015195Y-57655534D01*
X79893475Y-57473368D01*
X79686632Y-57266525D01*
X79443411Y-57104010D01*
X79173158Y-56992068D01*
X78886260Y-56935000D01*
X78593740Y-56935000D01*
X78306842Y-56992068D01*
X78036589Y-57104010D01*
X77793368Y-57266525D01*
X77661513Y-57398380D01*
X77639502Y-57325820D01*
X77580537Y-57215506D01*
X77501185Y-57118815D01*
X77404494Y-57039463D01*
X77294180Y-56980498D01*
X77174482Y-56944188D01*
X77050000Y-56931928D01*
X75350000Y-56931928D01*
X75225518Y-56944188D01*
X75105820Y-56980498D01*
X74995506Y-57039463D01*
X74898815Y-57118815D01*
X74819463Y-57215506D01*
X74760498Y-57325820D01*
X74724188Y-57445518D01*
X74711928Y-57570000D01*
X74711928Y-59270000D01*
X74724188Y-59394482D01*
X74760498Y-59514180D01*
X74819463Y-59624494D01*
X74898815Y-59721185D01*
X74995506Y-59800537D01*
X75105820Y-59859502D01*
X75225518Y-59895812D01*
X75350000Y-59908072D01*
X76613271Y-59908072D01*
X80202501Y-63497303D01*
X80202500Y-64701289D01*
X80158563Y-64745226D01*
X80045295Y-64914744D01*
X79967274Y-65103102D01*
X79930096Y-65290010D01*
X77637159Y-65290010D01*
X77635000Y-64260750D01*
X77476250Y-64102000D01*
X76327000Y-64102000D01*
X76327000Y-64122000D01*
X76073000Y-64122000D01*
X76073000Y-64102000D01*
X74923750Y-64102000D01*
X74765000Y-64260750D01*
X74762841Y-65290010D01*
X72079812Y-65290010D01*
X70413804Y-63624003D01*
X70390001Y-63594999D01*
X70274276Y-63500026D01*
X70142247Y-63429454D01*
X69998986Y-63385997D01*
X69887333Y-63375000D01*
X69887322Y-63375000D01*
X69850000Y-63371324D01*
X69812678Y-63375000D01*
X66268825Y-63375000D01*
X66336476Y-63181890D01*
X66215155Y-62952000D01*
X64897000Y-62952000D01*
X64897000Y-62972000D01*
X64643000Y-62972000D01*
X64643000Y-62952000D01*
X63324845Y-62952000D01*
X63203524Y-63181890D01*
X63295648Y-63444858D01*
X63442504Y-63696193D01*
X63487038Y-63746445D01*
X61720000Y-65513484D01*
X61720000Y-63474801D01*
X63540510Y-61654292D01*
X63551614Y-61663405D01*
X63656961Y-61719714D01*
X63635571Y-61735951D01*
X63442504Y-61953807D01*
X63295648Y-62205142D01*
X63203524Y-62468110D01*
X63324845Y-62698000D01*
X64643000Y-62698000D01*
X64643000Y-62678000D01*
X64897000Y-62678000D01*
X64897000Y-62698000D01*
X66215155Y-62698000D01*
X66336476Y-62468110D01*
X66251309Y-62225000D01*
X74761928Y-62225000D01*
X74765000Y-63689250D01*
X74923750Y-63848000D01*
X76073000Y-63848000D01*
X76073000Y-61748750D01*
X76327000Y-61748750D01*
X76327000Y-63848000D01*
X77476250Y-63848000D01*
X77635000Y-63689250D01*
X77638072Y-62225000D01*
X77625812Y-62100518D01*
X77589502Y-61980820D01*
X77530537Y-61870506D01*
X77451185Y-61773815D01*
X77354494Y-61694463D01*
X77244180Y-61635498D01*
X77124482Y-61599188D01*
X77000000Y-61586928D01*
X76485750Y-61590000D01*
X76327000Y-61748750D01*
X76073000Y-61748750D01*
X75914250Y-61590000D01*
X75400000Y-61586928D01*
X75275518Y-61599188D01*
X75155820Y-61635498D01*
X75045506Y-61694463D01*
X74948815Y-61773815D01*
X74869463Y-61870506D01*
X74810498Y-61980820D01*
X74774188Y-62100518D01*
X74761928Y-62225000D01*
X66251309Y-62225000D01*
X66244352Y-62205142D01*
X66097496Y-61953807D01*
X65904429Y-61735951D01*
X65883039Y-61719714D01*
X65988386Y-61663405D01*
X66122962Y-61552962D01*
X66233405Y-61418386D01*
X66315472Y-61264850D01*
X66366008Y-61098254D01*
X66383072Y-60925000D01*
X66383072Y-59725000D01*
X66366008Y-59551746D01*
X66315472Y-59385150D01*
X66233405Y-59231614D01*
X66122962Y-59097038D01*
X65988386Y-58986595D01*
X65834850Y-58904528D01*
X65668254Y-58853992D01*
X65495000Y-58836928D01*
X64045000Y-58836928D01*
X63871746Y-58853992D01*
X63705150Y-58904528D01*
X63551614Y-58986595D01*
X63417038Y-59097038D01*
X63306595Y-59231614D01*
X63224528Y-59385150D01*
X63173992Y-59551746D01*
X63156928Y-59725000D01*
X63156928Y-59888269D01*
X60449003Y-62596196D01*
X60419999Y-62619999D01*
X60377736Y-62671497D01*
X60325026Y-62735724D01*
X60274911Y-62829482D01*
X60254454Y-62867754D01*
X60210997Y-63011015D01*
X60200000Y-63122668D01*
X60200000Y-63122678D01*
X60196324Y-63160000D01*
X60200000Y-63197322D01*
X60200001Y-77401288D01*
X60156063Y-77445226D01*
X60042795Y-77614744D01*
X59964774Y-77803102D01*
X59925000Y-78003061D01*
X59925000Y-78206939D01*
X59964774Y-78406898D01*
X60042795Y-78595256D01*
X60156063Y-78764774D01*
X60300226Y-78908937D01*
X60469744Y-79022205D01*
X60658102Y-79100226D01*
X60858061Y-79140000D01*
X61061939Y-79140000D01*
X61261898Y-79100226D01*
X61450256Y-79022205D01*
X61619774Y-78908937D01*
X61763937Y-78764774D01*
X61877205Y-78595256D01*
X61955226Y-78406898D01*
X61995000Y-78206939D01*
X61995000Y-78003061D01*
X61955226Y-77803102D01*
X61877205Y-77614744D01*
X61763937Y-77445226D01*
X61720000Y-77401289D01*
X61720000Y-74859801D01*
X63158710Y-76298512D01*
X63182509Y-76327511D01*
X63211507Y-76351309D01*
X63298233Y-76422484D01*
X63322939Y-76435690D01*
X63266401Y-76541466D01*
X63181487Y-76821389D01*
X63152815Y-77112500D01*
X63181487Y-77403611D01*
X63266401Y-77683534D01*
X63404294Y-77941514D01*
X63589866Y-78167634D01*
X63815986Y-78353206D01*
X63841722Y-78366962D01*
X63635571Y-78523451D01*
X63442504Y-78741307D01*
X63295648Y-78992642D01*
X63203524Y-79255610D01*
X63324845Y-79485500D01*
X64643000Y-79485500D01*
X64643000Y-79465500D01*
X64897000Y-79465500D01*
X64897000Y-79485500D01*
X64917000Y-79485500D01*
X64917000Y-79739500D01*
X64897000Y-79739500D01*
X64897000Y-79759500D01*
X64643000Y-79759500D01*
X64643000Y-79739500D01*
X63324845Y-79739500D01*
X63203524Y-79969390D01*
X63295648Y-80232358D01*
X63442504Y-80483693D01*
X63635571Y-80701549D01*
X63841722Y-80858038D01*
X63815986Y-80871794D01*
X63589866Y-81057366D01*
X63404294Y-81283486D01*
X63266401Y-81541466D01*
X63181487Y-81821389D01*
X63152815Y-82112500D01*
X63181487Y-82403611D01*
X63266401Y-82683534D01*
X63404294Y-82941514D01*
X63589866Y-83167634D01*
X63815986Y-83353206D01*
X64073966Y-83491099D01*
X64353889Y-83576013D01*
X64572050Y-83597500D01*
X64967950Y-83597500D01*
X65186111Y-83576013D01*
X65466034Y-83491099D01*
X65724014Y-83353206D01*
X65950134Y-83167634D01*
X66135706Y-82941514D01*
X66185146Y-82849017D01*
X66287247Y-82818046D01*
X66419276Y-82747474D01*
X66535001Y-82652501D01*
X66558803Y-82623498D01*
X66562301Y-82620000D01*
X73691928Y-82620000D01*
X73704188Y-82744482D01*
X73740498Y-82864180D01*
X73799463Y-82974494D01*
X73878815Y-83071185D01*
X73975506Y-83150537D01*
X74085820Y-83209502D01*
X74205518Y-83245812D01*
X74330000Y-83258072D01*
X74644250Y-83255000D01*
X74803000Y-83096250D01*
X74803000Y-82297000D01*
X75057000Y-82297000D01*
X75057000Y-83096250D01*
X75215750Y-83255000D01*
X75530000Y-83258072D01*
X75654482Y-83245812D01*
X75774180Y-83209502D01*
X75884494Y-83150537D01*
X75981185Y-83071185D01*
X76060537Y-82974494D01*
X76119502Y-82864180D01*
X76155812Y-82744482D01*
X76168072Y-82620000D01*
X76165000Y-82455750D01*
X76006250Y-82297000D01*
X75057000Y-82297000D01*
X74803000Y-82297000D01*
X73853750Y-82297000D01*
X73695000Y-82455750D01*
X73691928Y-82620000D01*
X66562301Y-82620000D01*
X67186002Y-81996299D01*
X67215001Y-81972501D01*
X67309974Y-81856776D01*
X67380546Y-81724747D01*
X67381985Y-81720000D01*
X73691928Y-81720000D01*
X73695000Y-81884250D01*
X73853750Y-82043000D01*
X74803000Y-82043000D01*
X74803000Y-81243750D01*
X75057000Y-81243750D01*
X75057000Y-82043000D01*
X76006250Y-82043000D01*
X76165000Y-81884250D01*
X76168072Y-81720000D01*
X76155812Y-81595518D01*
X76119502Y-81475820D01*
X76060537Y-81365506D01*
X75981185Y-81268815D01*
X75884494Y-81189463D01*
X75774180Y-81130498D01*
X75654482Y-81094188D01*
X75530000Y-81081928D01*
X75215750Y-81085000D01*
X75057000Y-81243750D01*
X74803000Y-81243750D01*
X74644250Y-81085000D01*
X74330000Y-81081928D01*
X74205518Y-81094188D01*
X74085820Y-81130498D01*
X73975506Y-81189463D01*
X73878815Y-81268815D01*
X73799463Y-81365506D01*
X73740498Y-81475820D01*
X73704188Y-81595518D01*
X73691928Y-81720000D01*
X67381985Y-81720000D01*
X67424003Y-81581486D01*
X67435000Y-81469833D01*
X67435000Y-81469824D01*
X67438676Y-81432501D01*
X67435000Y-81395178D01*
X67435000Y-80205000D01*
X73691928Y-80205000D01*
X73704188Y-80329482D01*
X73740498Y-80449180D01*
X73799463Y-80559494D01*
X73878815Y-80656185D01*
X73975506Y-80735537D01*
X74085820Y-80794502D01*
X74205518Y-80830812D01*
X74330000Y-80843072D01*
X74644250Y-80840000D01*
X74803000Y-80681250D01*
X74803000Y-79882000D01*
X75057000Y-79882000D01*
X75057000Y-80681250D01*
X75215750Y-80840000D01*
X75530000Y-80843072D01*
X75654482Y-80830812D01*
X75774180Y-80794502D01*
X75884494Y-80735537D01*
X75981185Y-80656185D01*
X76060537Y-80559494D01*
X76119502Y-80449180D01*
X76155812Y-80329482D01*
X76168072Y-80205000D01*
X76165000Y-80040750D01*
X76006250Y-79882000D01*
X75057000Y-79882000D01*
X74803000Y-79882000D01*
X73853750Y-79882000D01*
X73695000Y-80040750D01*
X73691928Y-80205000D01*
X67435000Y-80205000D01*
X67435000Y-79305000D01*
X73691928Y-79305000D01*
X73695000Y-79469250D01*
X73853750Y-79628000D01*
X74803000Y-79628000D01*
X74803000Y-78828750D01*
X75057000Y-78828750D01*
X75057000Y-79628000D01*
X76006250Y-79628000D01*
X76165000Y-79469250D01*
X76168072Y-79305000D01*
X76155812Y-79180518D01*
X76119502Y-79060820D01*
X76060537Y-78950506D01*
X75981185Y-78853815D01*
X75884494Y-78774463D01*
X75774180Y-78715498D01*
X75654482Y-78679188D01*
X75530000Y-78666928D01*
X75215750Y-78670000D01*
X75057000Y-78828750D01*
X74803000Y-78828750D01*
X74644250Y-78670000D01*
X74330000Y-78666928D01*
X74205518Y-78679188D01*
X74085820Y-78715498D01*
X73975506Y-78774463D01*
X73878815Y-78853815D01*
X73799463Y-78950506D01*
X73740498Y-79060820D01*
X73704188Y-79180518D01*
X73691928Y-79305000D01*
X67435000Y-79305000D01*
X67435000Y-76237323D01*
X67438676Y-76200000D01*
X67435000Y-76162677D01*
X67435000Y-76162667D01*
X67424003Y-76051014D01*
X67380546Y-75907753D01*
X67309974Y-75775724D01*
X67215001Y-75659999D01*
X67185998Y-75636197D01*
X66826314Y-75276513D01*
X66802511Y-75247509D01*
X66686786Y-75152536D01*
X66554757Y-75081964D01*
X66411496Y-75038507D01*
X66383072Y-75035707D01*
X66383072Y-74012500D01*
X66366008Y-73839246D01*
X66315472Y-73672650D01*
X66233405Y-73519114D01*
X66122962Y-73384538D01*
X65988386Y-73274095D01*
X65834850Y-73192028D01*
X65668254Y-73141492D01*
X65495000Y-73124428D01*
X64045000Y-73124428D01*
X63871746Y-73141492D01*
X63705150Y-73192028D01*
X63551614Y-73274095D01*
X63417038Y-73384538D01*
X63306595Y-73519114D01*
X63224528Y-73672650D01*
X63173992Y-73839246D01*
X63156928Y-74012500D01*
X63156928Y-74147127D01*
X62990000Y-73980199D01*
X62990000Y-66393086D01*
X63343260Y-66039827D01*
X63404294Y-66154014D01*
X63589866Y-66380134D01*
X63815986Y-66565706D01*
X63885001Y-66602595D01*
X63885001Y-66631521D01*
X63880719Y-66675000D01*
X63897805Y-66848490D01*
X63948412Y-67015313D01*
X64030590Y-67169059D01*
X64113468Y-67270046D01*
X64113471Y-67270049D01*
X64141184Y-67303817D01*
X64174951Y-67331529D01*
X66813470Y-69970049D01*
X66841183Y-70003817D01*
X66874951Y-70031530D01*
X66874953Y-70031532D01*
X66975941Y-70114411D01*
X67129686Y-70196589D01*
X67243805Y-70231207D01*
X67296510Y-70247195D01*
X67426523Y-70260000D01*
X67426531Y-70260000D01*
X67470000Y-70264281D01*
X67513469Y-70260000D01*
X74761928Y-70260000D01*
X74761928Y-70875000D01*
X74778992Y-71048254D01*
X74829528Y-71214850D01*
X74911595Y-71368386D01*
X75022038Y-71502962D01*
X75156614Y-71613405D01*
X75310150Y-71695472D01*
X75476746Y-71746008D01*
X75650000Y-71763072D01*
X76750000Y-71763072D01*
X76923254Y-71746008D01*
X77089850Y-71695472D01*
X77243386Y-71613405D01*
X77377962Y-71502962D01*
X77488405Y-71368386D01*
X77570472Y-71214850D01*
X77621008Y-71048254D01*
X77638072Y-70875000D01*
X77638072Y-67875000D01*
X77621008Y-67701746D01*
X77570472Y-67535150D01*
X77488405Y-67381614D01*
X77377962Y-67247038D01*
X77243386Y-67136595D01*
X77089850Y-67054528D01*
X76923254Y-67003992D01*
X76750000Y-66986928D01*
X75650000Y-66986928D01*
X75476746Y-67003992D01*
X75310150Y-67054528D01*
X75156614Y-67136595D01*
X75022038Y-67247038D01*
X74911595Y-67381614D01*
X74829528Y-67535150D01*
X74778992Y-67701746D01*
X74761928Y-67875000D01*
X74761928Y-68490000D01*
X67836579Y-68490000D01*
X65827421Y-66480842D01*
X65950134Y-66380134D01*
X66135706Y-66154014D01*
X66273599Y-65896034D01*
X66358513Y-65616111D01*
X66387185Y-65325000D01*
X66358513Y-65033889D01*
X66316381Y-64895000D01*
X69535199Y-64895000D01*
X71201210Y-66561012D01*
X71225009Y-66590011D01*
X71254007Y-66613809D01*
X71340733Y-66684984D01*
X71472726Y-66755536D01*
X71472763Y-66755556D01*
X71616024Y-66799013D01*
X71727677Y-66810010D01*
X71727686Y-66810010D01*
X71765009Y-66813686D01*
X71802332Y-66810010D01*
X80274476Y-66810010D01*
X80322252Y-66835547D01*
X80465513Y-66879004D01*
X80577166Y-66890001D01*
X80577176Y-66890001D01*
X80614498Y-66893677D01*
X80651821Y-66890001D01*
X81219989Y-66890001D01*
X81237274Y-66976898D01*
X81315295Y-67165256D01*
X81428563Y-67334774D01*
X81572726Y-67478937D01*
X81742244Y-67592205D01*
X81930602Y-67670226D01*
X82130561Y-67710000D01*
X82192699Y-67710000D01*
X82938701Y-68456003D01*
X82962499Y-68485001D01*
X83078224Y-68579974D01*
X83078596Y-68580173D01*
X83137749Y-68652251D01*
X83257171Y-68750258D01*
X83393418Y-68823084D01*
X83541255Y-68867929D01*
X83695000Y-68883072D01*
X85345000Y-68883072D01*
X85498745Y-68867929D01*
X85646582Y-68823084D01*
X85782829Y-68750258D01*
X85902251Y-68652251D01*
X86000258Y-68532829D01*
X86073084Y-68396582D01*
X86089073Y-68343874D01*
X87788701Y-70043503D01*
X87812499Y-70072501D01*
X87928224Y-70167474D01*
X88060253Y-70238046D01*
X88203514Y-70281503D01*
X88315167Y-70292500D01*
X88315176Y-70292500D01*
X88352499Y-70296176D01*
X88389822Y-70292500D01*
X89148789Y-70292500D01*
X89192726Y-70336437D01*
X89295806Y-70405313D01*
X84006120Y-75695000D01*
X78624320Y-75695000D01*
X78600537Y-75650506D01*
X78521185Y-75553815D01*
X78424494Y-75474463D01*
X78314180Y-75415498D01*
X78303492Y-75412256D01*
X78396185Y-75336185D01*
X78475537Y-75239494D01*
X78534502Y-75129180D01*
X78570812Y-75009482D01*
X78583072Y-74885000D01*
X78580000Y-74733250D01*
X78421250Y-74574500D01*
X77597000Y-74574500D01*
X77597000Y-74594500D01*
X77343000Y-74594500D01*
X77343000Y-74574500D01*
X77323000Y-74574500D01*
X77323000Y-74320500D01*
X77343000Y-74320500D01*
X77343000Y-74300500D01*
X77597000Y-74300500D01*
X77597000Y-74320500D01*
X78421250Y-74320500D01*
X78580000Y-74161750D01*
X78583072Y-74010000D01*
X78570812Y-73885518D01*
X78534502Y-73765820D01*
X78475537Y-73655506D01*
X78420900Y-73588930D01*
X78438671Y-73567275D01*
X78517850Y-73419142D01*
X78566608Y-73258408D01*
X78583072Y-73091250D01*
X78583072Y-72653750D01*
X78566608Y-72486592D01*
X78517850Y-72325858D01*
X78438671Y-72177725D01*
X78332115Y-72047885D01*
X78202275Y-71941329D01*
X78054142Y-71862150D01*
X77893408Y-71813392D01*
X77726250Y-71796928D01*
X77213750Y-71796928D01*
X77046592Y-71813392D01*
X76885858Y-71862150D01*
X76737725Y-71941329D01*
X76607885Y-72047885D01*
X76554857Y-72112500D01*
X75845143Y-72112500D01*
X75792115Y-72047885D01*
X75662275Y-71941329D01*
X75514142Y-71862150D01*
X75353408Y-71813392D01*
X75186250Y-71796928D01*
X74673750Y-71796928D01*
X74506592Y-71813392D01*
X74345858Y-71862150D01*
X74197725Y-71941329D01*
X74067885Y-72047885D01*
X73961329Y-72177725D01*
X73882150Y-72325858D01*
X73833392Y-72486592D01*
X73816928Y-72653750D01*
X73816928Y-73091250D01*
X73833392Y-73258408D01*
X73882150Y-73419142D01*
X73961329Y-73567275D01*
X74037426Y-73660000D01*
X73961329Y-73752725D01*
X73882150Y-73900858D01*
X73833392Y-74061592D01*
X73816928Y-74228750D01*
X73816928Y-74666250D01*
X73833392Y-74833408D01*
X73882150Y-74994142D01*
X73961329Y-75142275D01*
X74067885Y-75272115D01*
X74170000Y-75355918D01*
X74170000Y-75389962D01*
X74085820Y-75415498D01*
X73975506Y-75474463D01*
X73878815Y-75553815D01*
X73799463Y-75650506D01*
X73740498Y-75760820D01*
X73704188Y-75880518D01*
X73691928Y-76005000D01*
X73691928Y-76905000D01*
X73704188Y-77029482D01*
X73740498Y-77149180D01*
X73799463Y-77259494D01*
X73878815Y-77356185D01*
X73975506Y-77435537D01*
X74085820Y-77494502D01*
X74205518Y-77530812D01*
X74330000Y-77543072D01*
X75530000Y-77543072D01*
X75654482Y-77530812D01*
X75774180Y-77494502D01*
X75884494Y-77435537D01*
X75981185Y-77356185D01*
X76060537Y-77259494D01*
X76084320Y-77215000D01*
X76315680Y-77215000D01*
X76339463Y-77259494D01*
X76418815Y-77356185D01*
X76515506Y-77435537D01*
X76625820Y-77494502D01*
X76745518Y-77530812D01*
X76870000Y-77543072D01*
X78070000Y-77543072D01*
X78194482Y-77530812D01*
X78314180Y-77494502D01*
X78424494Y-77435537D01*
X78521185Y-77356185D01*
X78600537Y-77259494D01*
X78624320Y-77215000D01*
X84283599Y-77215000D01*
X84320921Y-77218676D01*
X84358243Y-77215000D01*
X84358254Y-77215000D01*
X84469907Y-77204003D01*
X84613168Y-77160546D01*
X84745197Y-77089974D01*
X84860922Y-76995001D01*
X84884725Y-76965997D01*
X86235000Y-75615722D01*
X86235000Y-76202698D01*
X79800199Y-82637500D01*
X79729833Y-82637500D01*
X79692500Y-82633823D01*
X79655167Y-82637500D01*
X79543514Y-82648497D01*
X79400253Y-82691954D01*
X79268224Y-82762526D01*
X79152499Y-82857499D01*
X79128701Y-82886497D01*
X78470514Y-83544685D01*
X78465226Y-83518102D01*
X78387205Y-83329744D01*
X78308095Y-83211348D01*
X78314180Y-83209502D01*
X78424494Y-83150537D01*
X78521185Y-83071185D01*
X78600537Y-82974494D01*
X78659502Y-82864180D01*
X78695812Y-82744482D01*
X78708072Y-82620000D01*
X78708072Y-81720000D01*
X78695812Y-81595518D01*
X78659502Y-81475820D01*
X78600537Y-81365506D01*
X78521185Y-81268815D01*
X78424494Y-81189463D01*
X78314180Y-81130498D01*
X78230000Y-81104962D01*
X78230000Y-80820038D01*
X78314180Y-80794502D01*
X78424494Y-80735537D01*
X78521185Y-80656185D01*
X78600537Y-80559494D01*
X78659502Y-80449180D01*
X78695812Y-80329482D01*
X78708072Y-80205000D01*
X78708072Y-79305000D01*
X78695812Y-79180518D01*
X78659502Y-79060820D01*
X78600537Y-78950506D01*
X78521185Y-78853815D01*
X78424494Y-78774463D01*
X78314180Y-78715498D01*
X78194482Y-78679188D01*
X78070000Y-78666928D01*
X76870000Y-78666928D01*
X76745518Y-78679188D01*
X76625820Y-78715498D01*
X76515506Y-78774463D01*
X76418815Y-78853815D01*
X76339463Y-78950506D01*
X76280498Y-79060820D01*
X76244188Y-79180518D01*
X76231928Y-79305000D01*
X76231928Y-80205000D01*
X76244188Y-80329482D01*
X76280498Y-80449180D01*
X76339463Y-80559494D01*
X76418815Y-80656185D01*
X76515506Y-80735537D01*
X76625820Y-80794502D01*
X76710000Y-80820038D01*
X76710001Y-81104962D01*
X76625820Y-81130498D01*
X76515506Y-81189463D01*
X76418815Y-81268815D01*
X76339463Y-81365506D01*
X76280498Y-81475820D01*
X76244188Y-81595518D01*
X76231928Y-81720000D01*
X76231928Y-82620000D01*
X76244188Y-82744482D01*
X76280498Y-82864180D01*
X76339463Y-82974494D01*
X76418815Y-83071185D01*
X76515506Y-83150537D01*
X76625820Y-83209502D01*
X76631905Y-83211348D01*
X76552795Y-83329744D01*
X76474774Y-83518102D01*
X76435000Y-83718061D01*
X76435000Y-83921939D01*
X76474774Y-84121898D01*
X76552795Y-84310256D01*
X76631905Y-84428652D01*
X76625820Y-84430498D01*
X76515506Y-84489463D01*
X76418815Y-84568815D01*
X76339463Y-84665506D01*
X76315680Y-84710000D01*
X76084320Y-84710000D01*
X76060537Y-84665506D01*
X75981185Y-84568815D01*
X75884494Y-84489463D01*
X75774180Y-84430498D01*
X75654482Y-84394188D01*
X75530000Y-84381928D01*
X74330000Y-84381928D01*
X74205518Y-84394188D01*
X74085820Y-84430498D01*
X73975506Y-84489463D01*
X73878815Y-84568815D01*
X73799463Y-84665506D01*
X73740498Y-84775820D01*
X73704188Y-84895518D01*
X73691928Y-85020000D01*
X73691928Y-85920000D01*
X73704188Y-86044482D01*
X73740498Y-86164180D01*
X73799463Y-86274494D01*
X73878815Y-86371185D01*
X73975506Y-86450537D01*
X74085820Y-86509502D01*
X74096508Y-86512744D01*
X74003815Y-86588815D01*
X73924463Y-86685506D01*
X73865498Y-86795820D01*
X73829188Y-86915518D01*
X73816928Y-87040000D01*
X73820000Y-87191750D01*
X73978750Y-87350500D01*
X74803000Y-87350500D01*
X74803000Y-87330500D01*
X75057000Y-87330500D01*
X75057000Y-87350500D01*
X75881250Y-87350500D01*
X76040000Y-87191750D01*
X76043072Y-87040000D01*
X76030812Y-86915518D01*
X75994502Y-86795820D01*
X75935537Y-86685506D01*
X75856185Y-86588815D01*
X75763492Y-86512744D01*
X75774180Y-86509502D01*
X75884494Y-86450537D01*
X75981185Y-86371185D01*
X76060537Y-86274494D01*
X76084320Y-86230000D01*
X76315680Y-86230000D01*
X76339463Y-86274494D01*
X76418815Y-86371185D01*
X76515506Y-86450537D01*
X76625820Y-86509502D01*
X76710001Y-86535038D01*
X76710001Y-86569082D01*
X76607885Y-86652885D01*
X76501329Y-86782725D01*
X76422150Y-86930858D01*
X76373392Y-87091592D01*
X76356928Y-87258750D01*
X76356928Y-87696250D01*
X76373392Y-87863408D01*
X76422150Y-88024142D01*
X76501329Y-88172275D01*
X76577426Y-88265000D01*
X76554857Y-88292500D01*
X75916657Y-88292500D01*
X75935537Y-88269494D01*
X75994502Y-88159180D01*
X76030812Y-88039482D01*
X76043072Y-87915000D01*
X76040000Y-87763250D01*
X75881250Y-87604500D01*
X75057000Y-87604500D01*
X75057000Y-87624500D01*
X74803000Y-87624500D01*
X74803000Y-87604500D01*
X73978750Y-87604500D01*
X73820000Y-87763250D01*
X73816928Y-87915000D01*
X73829188Y-88039482D01*
X73865498Y-88159180D01*
X73924463Y-88269494D01*
X73979100Y-88336070D01*
X73961329Y-88357725D01*
X73882150Y-88505858D01*
X73833392Y-88666592D01*
X73816928Y-88833750D01*
X73816928Y-89271250D01*
X73833392Y-89438408D01*
X73882150Y-89599142D01*
X73961329Y-89747275D01*
X74067885Y-89877115D01*
X74197725Y-89983671D01*
X74345858Y-90062850D01*
X74506592Y-90111608D01*
X74673750Y-90128072D01*
X75186250Y-90128072D01*
X75353408Y-90111608D01*
X75514142Y-90062850D01*
X75662275Y-89983671D01*
X75792115Y-89877115D01*
X75845143Y-89812500D01*
X76554857Y-89812500D01*
X76607885Y-89877115D01*
X76737725Y-89983671D01*
X76885858Y-90062850D01*
X77046592Y-90111608D01*
X77213750Y-90128072D01*
X77726250Y-90128072D01*
X77893408Y-90111608D01*
X78054142Y-90062850D01*
X78202275Y-89983671D01*
X78332115Y-89877115D01*
X78438671Y-89747275D01*
X78517850Y-89599142D01*
X78537310Y-89534991D01*
X80521003Y-87551299D01*
X80550001Y-87527501D01*
X80576332Y-87495417D01*
X80644974Y-87411777D01*
X80715546Y-87279747D01*
X80721915Y-87258750D01*
X80759003Y-87136486D01*
X80770000Y-87024833D01*
X80770000Y-87024823D01*
X80773676Y-86987501D01*
X80770000Y-86950178D01*
X80770000Y-84453711D01*
X87388712Y-77835000D01*
X89402405Y-77835000D01*
X89439294Y-77904014D01*
X89624866Y-78130134D01*
X89850986Y-78315706D01*
X89868374Y-78325000D01*
X89850986Y-78334294D01*
X89624866Y-78519866D01*
X89439294Y-78745986D01*
X89301401Y-79003966D01*
X89216487Y-79283889D01*
X89187815Y-79575000D01*
X89216487Y-79866111D01*
X89301401Y-80146034D01*
X89439294Y-80404014D01*
X89624866Y-80630134D01*
X89850986Y-80815706D01*
X89868374Y-80825000D01*
X89850986Y-80834294D01*
X89624866Y-81019866D01*
X89439294Y-81245986D01*
X89301401Y-81503966D01*
X89216487Y-81783889D01*
X89187815Y-82075000D01*
X89216487Y-82366111D01*
X89301401Y-82646034D01*
X89439294Y-82904014D01*
X89624866Y-83130134D01*
X89850986Y-83315706D01*
X89868374Y-83325000D01*
X89850986Y-83334294D01*
X89624866Y-83519866D01*
X89439294Y-83745986D01*
X89301401Y-84003966D01*
X89216487Y-84283889D01*
X89187815Y-84575000D01*
X89216487Y-84866111D01*
X89301401Y-85146034D01*
X89439294Y-85404014D01*
X89624866Y-85630134D01*
X89850986Y-85815706D01*
X89868374Y-85825000D01*
X89850986Y-85834294D01*
X89624866Y-86019866D01*
X89439294Y-86245986D01*
X89301401Y-86503966D01*
X89216487Y-86783889D01*
X89187815Y-87075000D01*
X89216487Y-87366111D01*
X89301401Y-87646034D01*
X89439294Y-87904014D01*
X89624866Y-88130134D01*
X89850986Y-88315706D01*
X89876722Y-88329462D01*
X89670571Y-88485951D01*
X89477504Y-88703807D01*
X89330648Y-88955142D01*
X89238524Y-89218110D01*
X89359845Y-89448000D01*
X90678000Y-89448000D01*
X90678000Y-89428000D01*
X90932000Y-89428000D01*
X90932000Y-89448000D01*
X92250155Y-89448000D01*
X92371476Y-89218110D01*
X92279352Y-88955142D01*
X92132496Y-88703807D01*
X91939429Y-88485951D01*
X91733278Y-88329462D01*
X91759014Y-88315706D01*
X91985134Y-88130134D01*
X92170706Y-87904014D01*
X92220146Y-87811517D01*
X92322247Y-87780546D01*
X92454276Y-87709974D01*
X92570001Y-87615001D01*
X92593804Y-87585997D01*
X95126003Y-85053799D01*
X95155001Y-85030001D01*
X95213272Y-84958998D01*
X95249974Y-84914277D01*
X95320546Y-84782247D01*
X95338219Y-84723985D01*
X95364003Y-84638986D01*
X95375000Y-84527333D01*
X95375000Y-84527324D01*
X95378676Y-84490001D01*
X95375000Y-84452678D01*
X95375000Y-70871211D01*
X95418937Y-70827274D01*
X95532205Y-70657756D01*
X95610226Y-70469398D01*
X95650000Y-70269439D01*
X95650000Y-70169591D01*
X95740256Y-70132205D01*
X95909774Y-70018937D01*
X96053937Y-69874774D01*
X96167205Y-69705256D01*
X96245226Y-69516898D01*
X96285000Y-69316939D01*
X96285000Y-69113061D01*
X96245226Y-68913102D01*
X96215636Y-68841666D01*
X96519230Y-68538072D01*
X96776250Y-68538072D01*
X96943408Y-68521608D01*
X97104142Y-68472850D01*
X97252275Y-68393671D01*
X97382115Y-68287115D01*
X97488671Y-68157275D01*
X97567850Y-68009142D01*
X97616608Y-67848408D01*
X97633072Y-67681250D01*
X97633072Y-67243750D01*
X97616608Y-67076592D01*
X97567850Y-66915858D01*
X97488671Y-66767725D01*
X97470900Y-66746070D01*
X97525537Y-66679494D01*
X97584502Y-66569180D01*
X97620812Y-66449482D01*
X97633072Y-66325000D01*
X97630000Y-66173250D01*
X97471250Y-66014500D01*
X96647000Y-66014500D01*
X96647000Y-66034500D01*
X96393000Y-66034500D01*
X96393000Y-66014500D01*
X95568750Y-66014500D01*
X95567500Y-66015750D01*
X95566250Y-66014500D01*
X94742000Y-66014500D01*
X94742000Y-66034500D01*
X94488000Y-66034500D01*
X94488000Y-66014500D01*
X93663750Y-66014500D01*
X93505000Y-66173250D01*
X93501928Y-66325000D01*
X93514188Y-66449482D01*
X93550498Y-66569180D01*
X93609463Y-66679494D01*
X93664100Y-66746070D01*
X93646329Y-66767725D01*
X93600429Y-66853597D01*
X93492507Y-66765027D01*
X93360478Y-66694455D01*
X93217217Y-66650998D01*
X93105564Y-66640001D01*
X93105553Y-66640001D01*
X93068231Y-66636325D01*
X93030909Y-66640001D01*
X92384990Y-66640001D01*
X92384990Y-66565533D01*
X92345216Y-66365574D01*
X92334823Y-66340483D01*
X92993506Y-65681800D01*
X93022503Y-65658003D01*
X93117476Y-65542278D01*
X93188048Y-65410249D01*
X93231505Y-65266988D01*
X93242502Y-65155335D01*
X93242502Y-65155327D01*
X93246178Y-65118002D01*
X93242502Y-65080677D01*
X93242502Y-64897000D01*
X93827531Y-64897000D01*
X93785506Y-64919463D01*
X93688815Y-64998815D01*
X93609463Y-65095506D01*
X93550498Y-65205820D01*
X93514188Y-65325518D01*
X93501928Y-65450000D01*
X93505000Y-65601750D01*
X93663750Y-65760500D01*
X94488000Y-65760500D01*
X94488000Y-65740500D01*
X94742000Y-65740500D01*
X94742000Y-65760500D01*
X95566250Y-65760500D01*
X95567500Y-65759250D01*
X95568750Y-65760500D01*
X96393000Y-65760500D01*
X96393000Y-65740500D01*
X96647000Y-65740500D01*
X96647000Y-65760500D01*
X97471250Y-65760500D01*
X97630000Y-65601750D01*
X97633072Y-65450000D01*
X97620812Y-65325518D01*
X97584502Y-65205820D01*
X97525537Y-65095506D01*
X97446185Y-64998815D01*
X97349494Y-64919463D01*
X97307469Y-64897000D01*
X100305000Y-64897000D01*
X100305000Y-70517418D01*
X100305001Y-70517428D01*
X100305000Y-94590000D01*
X63627000Y-94590000D01*
X63627000Y-91475000D01*
X89191928Y-91475000D01*
X89191928Y-92675000D01*
X89208992Y-92848254D01*
X89259528Y-93014850D01*
X89341595Y-93168386D01*
X89452038Y-93302962D01*
X89586614Y-93413405D01*
X89740150Y-93495472D01*
X89906746Y-93546008D01*
X90080000Y-93563072D01*
X91530000Y-93563072D01*
X91703254Y-93546008D01*
X91869850Y-93495472D01*
X92023386Y-93413405D01*
X92157962Y-93302962D01*
X92268405Y-93168386D01*
X92350472Y-93014850D01*
X92401008Y-92848254D01*
X92418072Y-92675000D01*
X92418072Y-91475000D01*
X92401008Y-91301746D01*
X92350472Y-91135150D01*
X92268405Y-90981614D01*
X92157962Y-90847038D01*
X92023386Y-90736595D01*
X91918039Y-90680286D01*
X91939429Y-90664049D01*
X92132496Y-90446193D01*
X92279352Y-90194858D01*
X92371476Y-89931890D01*
X92250155Y-89702000D01*
X90932000Y-89702000D01*
X90932000Y-89722000D01*
X90678000Y-89722000D01*
X90678000Y-89702000D01*
X89359845Y-89702000D01*
X89238524Y-89931890D01*
X89330648Y-90194858D01*
X89477504Y-90446193D01*
X89670571Y-90664049D01*
X89691961Y-90680286D01*
X89586614Y-90736595D01*
X89452038Y-90847038D01*
X89341595Y-90981614D01*
X89259528Y-91135150D01*
X89208992Y-91301746D01*
X89191928Y-91475000D01*
X63627000Y-91475000D01*
X63627000Y-86360000D01*
X63624560Y-86335224D01*
X63617333Y-86311399D01*
X63605597Y-86289443D01*
X63589803Y-86270197D01*
X63570557Y-86254403D01*
X63548601Y-86242667D01*
X63524776Y-86235440D01*
X63500000Y-86233000D01*
X55270000Y-86233000D01*
X55270000Y-56540000D01*
X91948000Y-56540000D01*
X91948000Y-63284998D01*
M02*
