G04 #@! TF.GenerationSoftware,KiCad,Pcbnew,(5.1.5)-3*
G04 #@! TF.CreationDate,2020-11-01T11:24:48+01:00*
G04 #@! TF.ProjectId,KnokooPedalCtrl,4b6e6f6b-6f6f-4506-9564-616c4374726c,v0.2*
G04 #@! TF.SameCoordinates,Original*
G04 #@! TF.FileFunction,Soldermask,Bot*
G04 #@! TF.FilePolarity,Negative*
%FSLAX46Y46*%
G04 Gerber Fmt 4.6, Leading zero omitted, Abs format (unit mm)*
G04 Created by KiCad (PCBNEW (5.1.5)-3) date 2020-11-01 11:24:48*
%MOMM*%
%LPD*%
G04 APERTURE LIST*
%ADD10C,0.100000*%
G04 APERTURE END LIST*
D10*
G36*
X59054239Y-88251467D02*
G01*
X59368282Y-88313934D01*
X59959926Y-88559001D01*
X60492392Y-88914784D01*
X60945216Y-89367608D01*
X61300999Y-89900074D01*
X61512815Y-90411443D01*
X61546066Y-90491719D01*
X61671000Y-91119803D01*
X61671000Y-91760197D01*
X61608533Y-92074239D01*
X61546066Y-92388282D01*
X61300999Y-92979926D01*
X60945216Y-93512392D01*
X60492392Y-93965216D01*
X59959926Y-94320999D01*
X59368282Y-94566066D01*
X59054239Y-94628533D01*
X58740197Y-94691000D01*
X58099803Y-94691000D01*
X57785761Y-94628533D01*
X57471718Y-94566066D01*
X56880074Y-94320999D01*
X56347608Y-93965216D01*
X55894784Y-93512392D01*
X55539001Y-92979926D01*
X55293934Y-92388282D01*
X55231467Y-92074239D01*
X55169000Y-91760197D01*
X55169000Y-91119803D01*
X55293934Y-90491719D01*
X55327185Y-90411443D01*
X55539001Y-89900074D01*
X55894784Y-89367608D01*
X56347608Y-88914784D01*
X56880074Y-88559001D01*
X57471718Y-88313934D01*
X57785761Y-88251467D01*
X58099803Y-88189000D01*
X58740197Y-88189000D01*
X59054239Y-88251467D01*
G37*
G36*
X91688600Y-91177989D02*
G01*
X91721652Y-91188015D01*
X91752103Y-91204292D01*
X91778799Y-91226201D01*
X91800708Y-91252897D01*
X91816985Y-91283348D01*
X91827011Y-91316400D01*
X91831000Y-91356903D01*
X91831000Y-92793097D01*
X91827011Y-92833600D01*
X91816985Y-92866652D01*
X91800708Y-92897103D01*
X91778799Y-92923799D01*
X91752103Y-92945708D01*
X91721652Y-92961985D01*
X91688600Y-92972011D01*
X91648097Y-92976000D01*
X89961903Y-92976000D01*
X89921400Y-92972011D01*
X89888348Y-92961985D01*
X89857897Y-92945708D01*
X89831201Y-92923799D01*
X89809292Y-92897103D01*
X89793015Y-92866652D01*
X89782989Y-92833600D01*
X89779000Y-92793097D01*
X89779000Y-91356903D01*
X89782989Y-91316400D01*
X89793015Y-91283348D01*
X89809292Y-91252897D01*
X89831201Y-91226201D01*
X89857897Y-91204292D01*
X89888348Y-91188015D01*
X89921400Y-91177989D01*
X89961903Y-91174000D01*
X91648097Y-91174000D01*
X91688600Y-91177989D01*
G37*
G36*
X91040443Y-88680519D02*
G01*
X91106627Y-88687037D01*
X91276466Y-88738557D01*
X91432991Y-88822222D01*
X91468729Y-88851552D01*
X91570186Y-88934814D01*
X91653448Y-89036271D01*
X91682778Y-89072009D01*
X91766443Y-89228534D01*
X91817963Y-89398373D01*
X91835359Y-89575000D01*
X91817963Y-89751627D01*
X91766443Y-89921466D01*
X91682778Y-90077991D01*
X91653448Y-90113729D01*
X91570186Y-90215186D01*
X91468729Y-90298448D01*
X91432991Y-90327778D01*
X91276466Y-90411443D01*
X91106627Y-90462963D01*
X91040442Y-90469482D01*
X90974260Y-90476000D01*
X90635740Y-90476000D01*
X90569558Y-90469482D01*
X90503373Y-90462963D01*
X90333534Y-90411443D01*
X90177009Y-90327778D01*
X90141271Y-90298448D01*
X90039814Y-90215186D01*
X89956552Y-90113729D01*
X89927222Y-90077991D01*
X89843557Y-89921466D01*
X89792037Y-89751627D01*
X89774641Y-89575000D01*
X89792037Y-89398373D01*
X89843557Y-89228534D01*
X89927222Y-89072009D01*
X89956552Y-89036271D01*
X90039814Y-88934814D01*
X90141271Y-88851552D01*
X90177009Y-88822222D01*
X90333534Y-88738557D01*
X90503373Y-88687037D01*
X90569557Y-88680519D01*
X90635740Y-88674000D01*
X90974260Y-88674000D01*
X91040443Y-88680519D01*
G37*
G36*
X91040442Y-86180518D02*
G01*
X91106627Y-86187037D01*
X91276466Y-86238557D01*
X91432991Y-86322222D01*
X91468729Y-86351552D01*
X91570186Y-86434814D01*
X91653448Y-86536271D01*
X91682778Y-86572009D01*
X91766443Y-86728534D01*
X91817963Y-86898373D01*
X91835359Y-87075000D01*
X91817963Y-87251627D01*
X91766443Y-87421466D01*
X91682778Y-87577991D01*
X91653448Y-87613729D01*
X91570186Y-87715186D01*
X91468729Y-87798448D01*
X91432991Y-87827778D01*
X91276466Y-87911443D01*
X91106627Y-87962963D01*
X91040442Y-87969482D01*
X90974260Y-87976000D01*
X90635740Y-87976000D01*
X90569558Y-87969482D01*
X90503373Y-87962963D01*
X90333534Y-87911443D01*
X90177009Y-87827778D01*
X90141271Y-87798448D01*
X90039814Y-87715186D01*
X89956552Y-87613729D01*
X89927222Y-87577991D01*
X89843557Y-87421466D01*
X89792037Y-87251627D01*
X89774641Y-87075000D01*
X89792037Y-86898373D01*
X89843557Y-86728534D01*
X89927222Y-86572009D01*
X89956552Y-86536271D01*
X90039814Y-86434814D01*
X90141271Y-86351552D01*
X90177009Y-86322222D01*
X90333534Y-86238557D01*
X90503373Y-86187037D01*
X90569558Y-86180518D01*
X90635740Y-86174000D01*
X90974260Y-86174000D01*
X91040442Y-86180518D01*
G37*
G36*
X91040443Y-83680519D02*
G01*
X91106627Y-83687037D01*
X91276466Y-83738557D01*
X91432991Y-83822222D01*
X91468729Y-83851552D01*
X91570186Y-83934814D01*
X91653448Y-84036271D01*
X91682778Y-84072009D01*
X91766443Y-84228534D01*
X91817963Y-84398373D01*
X91835359Y-84575000D01*
X91817963Y-84751627D01*
X91766443Y-84921466D01*
X91682778Y-85077991D01*
X91653448Y-85113729D01*
X91570186Y-85215186D01*
X91468729Y-85298448D01*
X91432991Y-85327778D01*
X91276466Y-85411443D01*
X91106627Y-85462963D01*
X91040442Y-85469482D01*
X90974260Y-85476000D01*
X90635740Y-85476000D01*
X90569558Y-85469482D01*
X90503373Y-85462963D01*
X90333534Y-85411443D01*
X90177009Y-85327778D01*
X90141271Y-85298448D01*
X90039814Y-85215186D01*
X89956552Y-85113729D01*
X89927222Y-85077991D01*
X89843557Y-84921466D01*
X89792037Y-84751627D01*
X89774641Y-84575000D01*
X89792037Y-84398373D01*
X89843557Y-84228534D01*
X89927222Y-84072009D01*
X89956552Y-84036271D01*
X90039814Y-83934814D01*
X90141271Y-83851552D01*
X90177009Y-83822222D01*
X90333534Y-83738557D01*
X90503373Y-83687037D01*
X90569557Y-83680519D01*
X90635740Y-83674000D01*
X90974260Y-83674000D01*
X91040443Y-83680519D01*
G37*
G36*
X65005442Y-81218018D02*
G01*
X65071627Y-81224537D01*
X65241466Y-81276057D01*
X65397991Y-81359722D01*
X65433729Y-81389052D01*
X65535186Y-81472314D01*
X65617002Y-81572009D01*
X65647778Y-81609509D01*
X65731443Y-81766034D01*
X65782963Y-81935873D01*
X65800359Y-82112500D01*
X65782963Y-82289127D01*
X65731443Y-82458966D01*
X65647778Y-82615491D01*
X65618448Y-82651229D01*
X65535186Y-82752686D01*
X65433729Y-82835948D01*
X65397991Y-82865278D01*
X65241466Y-82948943D01*
X65071627Y-83000463D01*
X65005442Y-83006982D01*
X64939260Y-83013500D01*
X64600740Y-83013500D01*
X64534558Y-83006982D01*
X64468373Y-83000463D01*
X64298534Y-82948943D01*
X64142009Y-82865278D01*
X64106271Y-82835948D01*
X64004814Y-82752686D01*
X63921552Y-82651229D01*
X63892222Y-82615491D01*
X63808557Y-82458966D01*
X63757037Y-82289127D01*
X63739641Y-82112500D01*
X63757037Y-81935873D01*
X63808557Y-81766034D01*
X63892222Y-81609509D01*
X63922998Y-81572009D01*
X64004814Y-81472314D01*
X64106271Y-81389052D01*
X64142009Y-81359722D01*
X64298534Y-81276057D01*
X64468373Y-81224537D01*
X64534558Y-81218018D01*
X64600740Y-81211500D01*
X64939260Y-81211500D01*
X65005442Y-81218018D01*
G37*
G36*
X91040442Y-81180518D02*
G01*
X91106627Y-81187037D01*
X91276466Y-81238557D01*
X91432991Y-81322222D01*
X91468729Y-81351552D01*
X91570186Y-81434814D01*
X91653448Y-81536271D01*
X91682778Y-81572009D01*
X91766443Y-81728534D01*
X91817963Y-81898373D01*
X91835359Y-82075000D01*
X91817963Y-82251627D01*
X91766443Y-82421466D01*
X91682778Y-82577991D01*
X91653448Y-82613729D01*
X91570186Y-82715186D01*
X91468729Y-82798448D01*
X91432991Y-82827778D01*
X91276466Y-82911443D01*
X91106627Y-82962963D01*
X91040443Y-82969481D01*
X90974260Y-82976000D01*
X90635740Y-82976000D01*
X90569557Y-82969481D01*
X90503373Y-82962963D01*
X90333534Y-82911443D01*
X90177009Y-82827778D01*
X90141271Y-82798448D01*
X90039814Y-82715186D01*
X89956552Y-82613729D01*
X89927222Y-82577991D01*
X89843557Y-82421466D01*
X89792037Y-82251627D01*
X89774641Y-82075000D01*
X89792037Y-81898373D01*
X89843557Y-81728534D01*
X89927222Y-81572009D01*
X89956552Y-81536271D01*
X90039814Y-81434814D01*
X90141271Y-81351552D01*
X90177009Y-81322222D01*
X90333534Y-81238557D01*
X90503373Y-81187037D01*
X90569558Y-81180518D01*
X90635740Y-81174000D01*
X90974260Y-81174000D01*
X91040442Y-81180518D01*
G37*
G36*
X65005442Y-78718018D02*
G01*
X65071627Y-78724537D01*
X65241466Y-78776057D01*
X65397991Y-78859722D01*
X65433729Y-78889052D01*
X65535186Y-78972314D01*
X65617002Y-79072009D01*
X65647778Y-79109509D01*
X65731443Y-79266034D01*
X65782963Y-79435873D01*
X65800359Y-79612500D01*
X65782963Y-79789127D01*
X65731443Y-79958966D01*
X65647778Y-80115491D01*
X65618448Y-80151229D01*
X65535186Y-80252686D01*
X65433729Y-80335948D01*
X65397991Y-80365278D01*
X65241466Y-80448943D01*
X65071627Y-80500463D01*
X65005443Y-80506981D01*
X64939260Y-80513500D01*
X64600740Y-80513500D01*
X64534557Y-80506981D01*
X64468373Y-80500463D01*
X64298534Y-80448943D01*
X64142009Y-80365278D01*
X64106271Y-80335948D01*
X64004814Y-80252686D01*
X63921552Y-80151229D01*
X63892222Y-80115491D01*
X63808557Y-79958966D01*
X63757037Y-79789127D01*
X63739641Y-79612500D01*
X63757037Y-79435873D01*
X63808557Y-79266034D01*
X63892222Y-79109509D01*
X63922998Y-79072009D01*
X64004814Y-78972314D01*
X64106271Y-78889052D01*
X64142009Y-78859722D01*
X64298534Y-78776057D01*
X64468373Y-78724537D01*
X64534558Y-78718018D01*
X64600740Y-78711500D01*
X64939260Y-78711500D01*
X65005442Y-78718018D01*
G37*
G36*
X91040442Y-78680518D02*
G01*
X91106627Y-78687037D01*
X91276466Y-78738557D01*
X91432991Y-78822222D01*
X91468729Y-78851552D01*
X91570186Y-78934814D01*
X91653448Y-79036271D01*
X91682778Y-79072009D01*
X91766443Y-79228534D01*
X91817963Y-79398373D01*
X91835359Y-79575000D01*
X91817963Y-79751627D01*
X91766443Y-79921466D01*
X91682778Y-80077991D01*
X91653448Y-80113729D01*
X91570186Y-80215186D01*
X91468729Y-80298448D01*
X91432991Y-80327778D01*
X91276466Y-80411443D01*
X91106627Y-80462963D01*
X91040442Y-80469482D01*
X90974260Y-80476000D01*
X90635740Y-80476000D01*
X90569558Y-80469482D01*
X90503373Y-80462963D01*
X90333534Y-80411443D01*
X90177009Y-80327778D01*
X90141271Y-80298448D01*
X90039814Y-80215186D01*
X89956552Y-80113729D01*
X89927222Y-80077991D01*
X89843557Y-79921466D01*
X89792037Y-79751627D01*
X89774641Y-79575000D01*
X89792037Y-79398373D01*
X89843557Y-79228534D01*
X89927222Y-79072009D01*
X89956552Y-79036271D01*
X90039814Y-78934814D01*
X90141271Y-78851552D01*
X90177009Y-78822222D01*
X90333534Y-78738557D01*
X90503373Y-78687037D01*
X90569558Y-78680518D01*
X90635740Y-78674000D01*
X90974260Y-78674000D01*
X91040442Y-78680518D01*
G37*
G36*
X65005442Y-76218018D02*
G01*
X65071627Y-76224537D01*
X65241466Y-76276057D01*
X65397991Y-76359722D01*
X65433729Y-76389052D01*
X65535186Y-76472314D01*
X65617002Y-76572009D01*
X65647778Y-76609509D01*
X65731443Y-76766034D01*
X65782963Y-76935873D01*
X65800359Y-77112500D01*
X65782963Y-77289127D01*
X65731443Y-77458966D01*
X65647778Y-77615491D01*
X65618448Y-77651229D01*
X65535186Y-77752686D01*
X65433729Y-77835948D01*
X65397991Y-77865278D01*
X65241466Y-77948943D01*
X65071627Y-78000463D01*
X65005443Y-78006981D01*
X64939260Y-78013500D01*
X64600740Y-78013500D01*
X64534557Y-78006981D01*
X64468373Y-78000463D01*
X64298534Y-77948943D01*
X64142009Y-77865278D01*
X64106271Y-77835948D01*
X64004814Y-77752686D01*
X63921552Y-77651229D01*
X63892222Y-77615491D01*
X63808557Y-77458966D01*
X63757037Y-77289127D01*
X63739641Y-77112500D01*
X63757037Y-76935873D01*
X63808557Y-76766034D01*
X63892222Y-76609509D01*
X63922998Y-76572009D01*
X64004814Y-76472314D01*
X64106271Y-76389052D01*
X64142009Y-76359722D01*
X64298534Y-76276057D01*
X64468373Y-76224537D01*
X64534558Y-76218018D01*
X64600740Y-76211500D01*
X64939260Y-76211500D01*
X65005442Y-76218018D01*
G37*
G36*
X91040443Y-76180519D02*
G01*
X91106627Y-76187037D01*
X91276466Y-76238557D01*
X91432991Y-76322222D01*
X91468729Y-76351552D01*
X91570186Y-76434814D01*
X91653448Y-76536271D01*
X91682778Y-76572009D01*
X91766443Y-76728534D01*
X91817963Y-76898373D01*
X91835359Y-77075000D01*
X91817963Y-77251627D01*
X91766443Y-77421466D01*
X91682778Y-77577991D01*
X91653448Y-77613729D01*
X91570186Y-77715186D01*
X91468729Y-77798448D01*
X91432991Y-77827778D01*
X91276466Y-77911443D01*
X91106627Y-77962963D01*
X91040443Y-77969481D01*
X90974260Y-77976000D01*
X90635740Y-77976000D01*
X90569557Y-77969481D01*
X90503373Y-77962963D01*
X90333534Y-77911443D01*
X90177009Y-77827778D01*
X90141271Y-77798448D01*
X90039814Y-77715186D01*
X89956552Y-77613729D01*
X89927222Y-77577991D01*
X89843557Y-77421466D01*
X89792037Y-77251627D01*
X89774641Y-77075000D01*
X89792037Y-76898373D01*
X89843557Y-76728534D01*
X89927222Y-76572009D01*
X89956552Y-76536271D01*
X90039814Y-76434814D01*
X90141271Y-76351552D01*
X90177009Y-76322222D01*
X90333534Y-76238557D01*
X90503373Y-76187037D01*
X90569557Y-76180519D01*
X90635740Y-76174000D01*
X90974260Y-76174000D01*
X91040443Y-76180519D01*
G37*
G36*
X65653600Y-73715489D02*
G01*
X65686652Y-73725515D01*
X65717103Y-73741792D01*
X65743799Y-73763701D01*
X65765708Y-73790397D01*
X65781985Y-73820848D01*
X65792011Y-73853900D01*
X65796000Y-73894403D01*
X65796000Y-75330597D01*
X65792011Y-75371100D01*
X65781985Y-75404152D01*
X65765708Y-75434603D01*
X65743799Y-75461299D01*
X65717103Y-75483208D01*
X65686652Y-75499485D01*
X65653600Y-75509511D01*
X65613097Y-75513500D01*
X63926903Y-75513500D01*
X63886400Y-75509511D01*
X63853348Y-75499485D01*
X63822897Y-75483208D01*
X63796201Y-75461299D01*
X63774292Y-75434603D01*
X63758015Y-75404152D01*
X63747989Y-75371100D01*
X63744000Y-75330597D01*
X63744000Y-73894403D01*
X63747989Y-73853900D01*
X63758015Y-73820848D01*
X63774292Y-73790397D01*
X63796201Y-73763701D01*
X63822897Y-73741792D01*
X63853348Y-73725515D01*
X63886400Y-73715489D01*
X63926903Y-73711500D01*
X65613097Y-73711500D01*
X65653600Y-73715489D01*
G37*
G36*
X91040442Y-73680518D02*
G01*
X91106627Y-73687037D01*
X91276466Y-73738557D01*
X91432991Y-73822222D01*
X91468729Y-73851552D01*
X91570186Y-73934814D01*
X91653448Y-74036271D01*
X91682778Y-74072009D01*
X91766443Y-74228534D01*
X91817963Y-74398373D01*
X91835359Y-74575000D01*
X91817963Y-74751627D01*
X91766443Y-74921466D01*
X91682778Y-75077991D01*
X91653448Y-75113729D01*
X91570186Y-75215186D01*
X91468729Y-75298448D01*
X91432991Y-75327778D01*
X91432989Y-75327779D01*
X91290107Y-75404152D01*
X91276466Y-75411443D01*
X91106627Y-75462963D01*
X91046966Y-75468839D01*
X90974260Y-75476000D01*
X90635740Y-75476000D01*
X90563034Y-75468839D01*
X90503373Y-75462963D01*
X90333534Y-75411443D01*
X90319894Y-75404152D01*
X90177011Y-75327779D01*
X90177009Y-75327778D01*
X90141271Y-75298448D01*
X90039814Y-75215186D01*
X89956552Y-75113729D01*
X89927222Y-75077991D01*
X89843557Y-74921466D01*
X89792037Y-74751627D01*
X89774641Y-74575000D01*
X89792037Y-74398373D01*
X89843557Y-74228534D01*
X89927222Y-74072009D01*
X89956552Y-74036271D01*
X90039814Y-73934814D01*
X90141271Y-73851552D01*
X90177009Y-73822222D01*
X90333534Y-73738557D01*
X90503373Y-73687037D01*
X90569558Y-73680518D01*
X90635740Y-73674000D01*
X90974260Y-73674000D01*
X91040442Y-73680518D01*
G37*
G36*
X65005443Y-64430519D02*
G01*
X65071627Y-64437037D01*
X65241466Y-64488557D01*
X65397991Y-64572222D01*
X65433729Y-64601552D01*
X65535186Y-64684814D01*
X65618448Y-64786271D01*
X65647778Y-64822009D01*
X65731443Y-64978534D01*
X65782963Y-65148373D01*
X65800359Y-65325000D01*
X65782963Y-65501627D01*
X65731443Y-65671466D01*
X65647778Y-65827991D01*
X65618448Y-65863729D01*
X65535186Y-65965186D01*
X65433729Y-66048448D01*
X65397991Y-66077778D01*
X65241466Y-66161443D01*
X65071627Y-66212963D01*
X65005442Y-66219482D01*
X64939260Y-66226000D01*
X64600740Y-66226000D01*
X64534558Y-66219482D01*
X64468373Y-66212963D01*
X64298534Y-66161443D01*
X64142009Y-66077778D01*
X64106271Y-66048448D01*
X64004814Y-65965186D01*
X63921552Y-65863729D01*
X63892222Y-65827991D01*
X63808557Y-65671466D01*
X63757037Y-65501627D01*
X63739641Y-65325000D01*
X63757037Y-65148373D01*
X63808557Y-64978534D01*
X63892222Y-64822009D01*
X63921552Y-64786271D01*
X64004814Y-64684814D01*
X64106271Y-64601552D01*
X64142009Y-64572222D01*
X64298534Y-64488557D01*
X64468373Y-64437037D01*
X64534557Y-64430519D01*
X64600740Y-64424000D01*
X64939260Y-64424000D01*
X65005443Y-64430519D01*
G37*
G36*
X65005443Y-61930519D02*
G01*
X65071627Y-61937037D01*
X65241466Y-61988557D01*
X65397991Y-62072222D01*
X65433729Y-62101552D01*
X65535186Y-62184814D01*
X65618448Y-62286271D01*
X65647778Y-62322009D01*
X65731443Y-62478534D01*
X65782963Y-62648373D01*
X65800359Y-62825000D01*
X65782963Y-63001627D01*
X65731443Y-63171466D01*
X65647778Y-63327991D01*
X65618448Y-63363729D01*
X65535186Y-63465186D01*
X65433729Y-63548448D01*
X65397991Y-63577778D01*
X65241466Y-63661443D01*
X65071627Y-63712963D01*
X65005442Y-63719482D01*
X64939260Y-63726000D01*
X64600740Y-63726000D01*
X64534558Y-63719482D01*
X64468373Y-63712963D01*
X64298534Y-63661443D01*
X64142009Y-63577778D01*
X64106271Y-63548448D01*
X64004814Y-63465186D01*
X63921552Y-63363729D01*
X63892222Y-63327991D01*
X63808557Y-63171466D01*
X63757037Y-63001627D01*
X63739641Y-62825000D01*
X63757037Y-62648373D01*
X63808557Y-62478534D01*
X63892222Y-62322009D01*
X63921552Y-62286271D01*
X64004814Y-62184814D01*
X64106271Y-62101552D01*
X64142009Y-62072222D01*
X64298534Y-61988557D01*
X64468373Y-61937037D01*
X64534557Y-61930519D01*
X64600740Y-61924000D01*
X64939260Y-61924000D01*
X65005443Y-61930519D01*
G37*
G36*
X97789239Y-56501467D02*
G01*
X98103282Y-56563934D01*
X98694926Y-56809001D01*
X99227392Y-57164784D01*
X99680216Y-57617608D01*
X100035999Y-58150074D01*
X100281066Y-58741718D01*
X100301965Y-58846784D01*
X100406000Y-59369803D01*
X100406000Y-60010197D01*
X100343533Y-60324239D01*
X100281066Y-60638282D01*
X100035999Y-61229926D01*
X99680216Y-61762392D01*
X99227392Y-62215216D01*
X98694926Y-62570999D01*
X98103282Y-62816066D01*
X97789239Y-62878533D01*
X97475197Y-62941000D01*
X96834803Y-62941000D01*
X96520761Y-62878533D01*
X96206718Y-62816066D01*
X95615074Y-62570999D01*
X95082608Y-62215216D01*
X94629784Y-61762392D01*
X94274001Y-61229926D01*
X94028934Y-60638282D01*
X93966467Y-60324239D01*
X93904000Y-60010197D01*
X93904000Y-59369803D01*
X94008035Y-58846784D01*
X94028934Y-58741718D01*
X94274001Y-58150074D01*
X94629784Y-57617608D01*
X95082608Y-57164784D01*
X95615074Y-56809001D01*
X96206718Y-56563934D01*
X96520761Y-56501467D01*
X96834803Y-56439000D01*
X97475197Y-56439000D01*
X97789239Y-56501467D01*
G37*
G36*
X65653600Y-59427989D02*
G01*
X65686652Y-59438015D01*
X65717103Y-59454292D01*
X65743799Y-59476201D01*
X65765708Y-59502897D01*
X65781985Y-59533348D01*
X65792011Y-59566400D01*
X65796000Y-59606903D01*
X65796000Y-61043097D01*
X65792011Y-61083600D01*
X65781985Y-61116652D01*
X65765708Y-61147103D01*
X65743799Y-61173799D01*
X65717103Y-61195708D01*
X65686652Y-61211985D01*
X65653600Y-61222011D01*
X65613097Y-61226000D01*
X63926903Y-61226000D01*
X63886400Y-61222011D01*
X63853348Y-61211985D01*
X63822897Y-61195708D01*
X63796201Y-61173799D01*
X63774292Y-61147103D01*
X63758015Y-61116652D01*
X63747989Y-61083600D01*
X63744000Y-61043097D01*
X63744000Y-59606903D01*
X63747989Y-59566400D01*
X63758015Y-59533348D01*
X63774292Y-59502897D01*
X63796201Y-59476201D01*
X63822897Y-59454292D01*
X63853348Y-59438015D01*
X63886400Y-59427989D01*
X63926903Y-59424000D01*
X65613097Y-59424000D01*
X65653600Y-59427989D01*
G37*
G36*
X86473512Y-57523927D02*
G01*
X86622812Y-57553624D01*
X86786784Y-57621544D01*
X86934354Y-57720147D01*
X87059853Y-57845646D01*
X87158456Y-57993216D01*
X87226376Y-58157188D01*
X87261000Y-58331259D01*
X87261000Y-58508741D01*
X87226376Y-58682812D01*
X87158456Y-58846784D01*
X87059853Y-58994354D01*
X86934354Y-59119853D01*
X86786784Y-59218456D01*
X86622812Y-59286376D01*
X86473512Y-59316073D01*
X86448742Y-59321000D01*
X86271258Y-59321000D01*
X86246488Y-59316073D01*
X86097188Y-59286376D01*
X85933216Y-59218456D01*
X85785646Y-59119853D01*
X85660147Y-58994354D01*
X85561544Y-58846784D01*
X85493624Y-58682812D01*
X85459000Y-58508741D01*
X85459000Y-58331259D01*
X85493624Y-58157188D01*
X85561544Y-57993216D01*
X85660147Y-57845646D01*
X85785646Y-57720147D01*
X85933216Y-57621544D01*
X86097188Y-57553624D01*
X86246488Y-57523927D01*
X86271258Y-57519000D01*
X86448742Y-57519000D01*
X86473512Y-57523927D01*
G37*
G36*
X89013512Y-57523927D02*
G01*
X89162812Y-57553624D01*
X89326784Y-57621544D01*
X89474354Y-57720147D01*
X89599853Y-57845646D01*
X89698456Y-57993216D01*
X89766376Y-58157188D01*
X89801000Y-58331259D01*
X89801000Y-58508741D01*
X89766376Y-58682812D01*
X89698456Y-58846784D01*
X89599853Y-58994354D01*
X89474354Y-59119853D01*
X89326784Y-59218456D01*
X89162812Y-59286376D01*
X89013512Y-59316073D01*
X88988742Y-59321000D01*
X88811258Y-59321000D01*
X88786488Y-59316073D01*
X88637188Y-59286376D01*
X88473216Y-59218456D01*
X88325646Y-59119853D01*
X88200147Y-58994354D01*
X88101544Y-58846784D01*
X88033624Y-58682812D01*
X87999000Y-58508741D01*
X87999000Y-58331259D01*
X88033624Y-58157188D01*
X88101544Y-57993216D01*
X88200147Y-57845646D01*
X88325646Y-57720147D01*
X88473216Y-57621544D01*
X88637188Y-57553624D01*
X88786488Y-57523927D01*
X88811258Y-57519000D01*
X88988742Y-57519000D01*
X89013512Y-57523927D01*
G37*
G36*
X77101000Y-59321000D02*
G01*
X75299000Y-59321000D01*
X75299000Y-57519000D01*
X77101000Y-57519000D01*
X77101000Y-59321000D01*
G37*
G36*
X83933512Y-57523927D02*
G01*
X84082812Y-57553624D01*
X84246784Y-57621544D01*
X84394354Y-57720147D01*
X84519853Y-57845646D01*
X84618456Y-57993216D01*
X84686376Y-58157188D01*
X84721000Y-58331259D01*
X84721000Y-58508741D01*
X84686376Y-58682812D01*
X84618456Y-58846784D01*
X84519853Y-58994354D01*
X84394354Y-59119853D01*
X84246784Y-59218456D01*
X84082812Y-59286376D01*
X83933512Y-59316073D01*
X83908742Y-59321000D01*
X83731258Y-59321000D01*
X83706488Y-59316073D01*
X83557188Y-59286376D01*
X83393216Y-59218456D01*
X83245646Y-59119853D01*
X83120147Y-58994354D01*
X83021544Y-58846784D01*
X82953624Y-58682812D01*
X82919000Y-58508741D01*
X82919000Y-58331259D01*
X82953624Y-58157188D01*
X83021544Y-57993216D01*
X83120147Y-57845646D01*
X83245646Y-57720147D01*
X83393216Y-57621544D01*
X83557188Y-57553624D01*
X83706488Y-57523927D01*
X83731258Y-57519000D01*
X83908742Y-57519000D01*
X83933512Y-57523927D01*
G37*
G36*
X81393512Y-57523927D02*
G01*
X81542812Y-57553624D01*
X81706784Y-57621544D01*
X81854354Y-57720147D01*
X81979853Y-57845646D01*
X82078456Y-57993216D01*
X82146376Y-58157188D01*
X82181000Y-58331259D01*
X82181000Y-58508741D01*
X82146376Y-58682812D01*
X82078456Y-58846784D01*
X81979853Y-58994354D01*
X81854354Y-59119853D01*
X81706784Y-59218456D01*
X81542812Y-59286376D01*
X81393512Y-59316073D01*
X81368742Y-59321000D01*
X81191258Y-59321000D01*
X81166488Y-59316073D01*
X81017188Y-59286376D01*
X80853216Y-59218456D01*
X80705646Y-59119853D01*
X80580147Y-58994354D01*
X80481544Y-58846784D01*
X80413624Y-58682812D01*
X80379000Y-58508741D01*
X80379000Y-58331259D01*
X80413624Y-58157188D01*
X80481544Y-57993216D01*
X80580147Y-57845646D01*
X80705646Y-57720147D01*
X80853216Y-57621544D01*
X81017188Y-57553624D01*
X81166488Y-57523927D01*
X81191258Y-57519000D01*
X81368742Y-57519000D01*
X81393512Y-57523927D01*
G37*
G36*
X78853512Y-57523927D02*
G01*
X79002812Y-57553624D01*
X79166784Y-57621544D01*
X79314354Y-57720147D01*
X79439853Y-57845646D01*
X79538456Y-57993216D01*
X79606376Y-58157188D01*
X79641000Y-58331259D01*
X79641000Y-58508741D01*
X79606376Y-58682812D01*
X79538456Y-58846784D01*
X79439853Y-58994354D01*
X79314354Y-59119853D01*
X79166784Y-59218456D01*
X79002812Y-59286376D01*
X78853512Y-59316073D01*
X78828742Y-59321000D01*
X78651258Y-59321000D01*
X78626488Y-59316073D01*
X78477188Y-59286376D01*
X78313216Y-59218456D01*
X78165646Y-59119853D01*
X78040147Y-58994354D01*
X77941544Y-58846784D01*
X77873624Y-58682812D01*
X77839000Y-58508741D01*
X77839000Y-58331259D01*
X77873624Y-58157188D01*
X77941544Y-57993216D01*
X78040147Y-57845646D01*
X78165646Y-57720147D01*
X78313216Y-57621544D01*
X78477188Y-57553624D01*
X78626488Y-57523927D01*
X78651258Y-57519000D01*
X78828742Y-57519000D01*
X78853512Y-57523927D01*
G37*
M02*
